<?xml version="1.0" encoding="utf-8"?>
<!-- Generator: Adobe Illustrator 27.0.0, SVG Export Plug-In . SVG Version: 6.00 Build 0)  -->
<svg version="1.1" xmlns="http://www.w3.org/2000/svg" xmlns:xlink="http://www.w3.org/1999/xlink" x="0px" y="0px"
	 viewBox="0 0 750 500" style="enable-background:new 0 0 750 500;" xml:space="preserve">
<style type="text/css">
	.st0{fill:#4B7195;}
	.st1{fill:#FFFFFF;}
	.st2{opacity:0.4;fill:#A3D5E6;}
	.st3{fill:#C33E5D;}
</style>
<g id="BACKGROUND">
</g>
<g id="OBJECTS">
	<g>
		<g>
			<g>
				<g>
					<path class="st0" d="M166.53,409.33v3.22c-5.83,0.67-7.25,5.59-7.25,11.59v1.98c0,6,1.43,10.92,7.25,11.59v3.21H55.14
						c-4.57,0-8.27-3.7-8.27-8.27v-15.03c0-4.57,3.7-8.29,8.27-8.29H166.53z"/>
					<path class="st1" d="M164.8,434.42c0.67,1.58-0.56,3.3-2.26,3.3l-106.45,0.08v-25.32l106.45,0.08c0.62,0,1.18,0.23,1.6,0.6
						c0.74,0.62,1.08,1.69,0.67,2.7c-0.88,2.11-0.85,5.04-0.85,8.29v1.98C163.95,429.38,163.91,432.31,164.8,434.42z"/>
					<path class="st2" d="M164.13,413.16c-2.05,0.11-96.11,4.97-102.56,14.12c-1.75,2.48-3.73,3.86-5.49,4.14v-18.93l106.45,0.08
						C163.16,412.55,163.71,412.79,164.13,413.16z"/>
				</g>
				<path class="st0" d="M61.57,440.93h-9.36c-2.95,0-5.34-2.39-5.34-5.34v-20.9c0-2.95,2.39-5.34,5.34-5.34h9.36V440.93z"/>
				<path class="st2" d="M164.8,434.42c0.67,1.58-0.56,3.3-2.26,3.3l-21.25,0.02c16.88-1.92,15.83-15.79,15.83-15.79
					c0.19-0.67-13.34-8.8-13.11-9.41l18.53,0.02c0.62,0,1.18,0.23,1.6,0.6c0.74,0.62,1.08,1.69,0.67,2.7
					c-0.88,2.11-0.85,5.04-0.85,8.29v1.98C163.95,429.38,163.91,432.31,164.8,434.42z"/>
			</g>
			<g>
				<rect x="61.75" y="423.29" class="st2" width="102.19" height="2.28"/>
				<rect x="61.75" y="418.15" class="st2" width="102.19" height="2.28"/>
				<rect x="61.75" y="429.83" class="st2" width="102.19" height="2.28"/>
			</g>
			<polygon class="st3" points="131.03,433.07 125.6,427.65 120.16,433.07 120.16,418.15 131.03,418.15 			"/>
		</g>
		<g>
			<g>
				<g>
					<path class="st3" d="M178.45,440.82v3.22c-5.83,0.67-7.25,5.59-7.25,11.59v1.98c0,6,1.43,10.92,7.25,11.59v3.21H67.06
						c-4.57,0-8.27-3.7-8.27-8.27v-15.03c0-4.57,3.7-8.29,8.27-8.29H178.45z"/>
					<path class="st1" d="M176.71,465.9c0.67,1.58-0.56,3.3-2.26,3.3L68,469.28v-25.32l106.45,0.08c0.62,0,1.18,0.23,1.6,0.6
						c0.74,0.62,1.08,1.69,0.67,2.7c-0.88,2.11-0.85,5.04-0.85,8.29v1.98C175.86,460.87,175.83,463.8,176.71,465.9z"/>
					<path class="st2" d="M176.05,444.64c-2.05,0.11-96.11,4.97-102.56,14.12c-1.75,2.48-3.73,3.86-5.49,4.14v-18.93l106.45,0.08
						C175.07,444.04,175.63,444.27,176.05,444.64z"/>
				</g>
				<path class="st3" d="M73.49,472.42h-9.36c-2.95,0-5.34-2.39-5.34-5.34v-20.9c0-2.95,2.39-5.34,5.34-5.34h9.36V472.42z"/>
				<path class="st2" d="M176.71,465.9c0.67,1.58-0.56,3.3-2.26,3.3l-21.25,0.02c16.88-1.92,15.83-15.79,15.83-15.79
					c0.19-0.67-13.34-8.8-13.11-9.41l18.53,0.02c0.62,0,1.18,0.23,1.6,0.6c0.74,0.62,1.08,1.69,0.67,2.7
					c-0.88,2.11-0.85,5.04-0.85,8.29v1.98C175.86,460.87,175.83,463.8,176.71,465.9z"/>
			</g>
			<g>
				<rect x="73.67" y="454.77" class="st2" width="102.19" height="2.28"/>
				<rect x="73.67" y="449.63" class="st2" width="102.19" height="2.28"/>
				<rect x="73.67" y="461.31" class="st2" width="102.19" height="2.28"/>
			</g>
			<polygon class="st3" points="164.68,466.54 158.94,460.81 153.2,466.54 153.2,450.78 164.68,450.78 			"/>
		</g>
	</g>
</g>
</svg>
