<?xml version="1.0" encoding="utf-8"?>
<!-- Generator: Adobe Illustrator 27.0.0, SVG Export Plug-In . SVG Version: 6.00 Build 0)  -->
<svg version="1.1" xmlns="http://www.w3.org/2000/svg" xmlns:xlink="http://www.w3.org/1999/xlink" x="0px" y="0px"
	 viewBox="0 0 750 500" style="enable-background:new 0 0 750 500;" xml:space="preserve">
<style type="text/css">
	.st0{fill:#0C8068;}
	.st1{fill:none;stroke:#0A6D53;stroke-miterlimit:10;}
	.st2{opacity:0.5;fill:#0A6D53;}
	.st3{fill:#159A7A;}
	.st4{fill:none;stroke:#0C8068;stroke-miterlimit:10;}
	.st5{opacity:0.5;fill:#0C8068;}
	.st6{fill:#EBA154;}
	.st7{fill:#DC831E;}
</style>
<g id="BACKGROUND">
</g>
<g id="OBJECTS">
	<g>
		<g>
			<path class="st0" d="M623.77,433.16c-6.51,0.49-11.96-1.06-16.51-3.88c-18.37-11.37-22.2-43.43-22.47-45.84
				c0.16,0.74,1.97,4.66,21.07,17.51c1.59,1.07,3.04,2.16,4.37,3.26c0,0,0.02,0.02,0.07,0.05
				C626.94,418.04,623.77,433.16,623.77,433.16z"/>
			<path class="st1" d="M584.78,383.3c0,0,17.15,42.09,36.18,46.53"/>
			<path class="st2" d="M623.77,433.16c-6.51,0.49-11.96-1.06-16.51-3.88c3.66-8.65,2.97-25.07,2.97-25.07s0.02,0.02,0.07,0.05
				C626.94,418.04,623.77,433.16,623.77,433.16z"/>
		</g>
		<g>
			<path class="st0" d="M672.53,385.79c-0.07,0.45-0.33,2-0.84,4.29c0,0,0,0,0,0.01c-2.71,12.14-12.49,44.8-38.81,41.52
				c0,0-0.44-2.8,0.44-7c1.3-6.16,5.49-15.34,18.22-23.04C670.42,390.15,672.33,386.48,672.53,385.79z"/>
			<path class="st1" d="M671.68,388.38c0,0-13.51,35-36.94,42.13"/>
			<path class="st2" d="M671.68,390.08C671.68,390.08,671.68,390.08,671.68,390.08c-2.71,12.14-12.49,44.8-38.81,41.53
				c0,0-0.44-2.8,0.44-7h0.03C655.24,425.79,671.68,390.08,671.68,390.08z"/>
		</g>
		<g>
			<path class="st3" d="M631.46,432.78c-0.65,1.13-10.26-2.86-14.59-14.42h0c-2.6-6.94-3.29-16.61,1-29.54
				c11.29-33.94,6.64-40.34,6.5-40.52c0.23,0.11,10.04,4.98,16.36,16.83c0,0,0.01,0.02,0.03,0.05
				C647.71,378.25,650.42,399.79,631.46,432.78z"/>
			<path class="st4" d="M624.36,348.3c0,0,14.72,18.57,9.11,53.89c-5.6,35.32-2.01,30.58-2.01,30.58"/>
			<path class="st5" d="M631.46,432.78c-0.65,1.13-10.26-2.86-14.59-14.42c24.23,6.88,23.86-53.22,23.86-53.22s0.01,0.02,0.03,0.05
				C647.71,378.25,650.42,399.79,631.46,432.78z"/>
		</g>
		<path class="st0" d="M584.77,383.3c0,0,0,0.04,0.01,0.12C584.77,383.34,584.77,383.3,584.77,383.3z"/>
		<path class="st6" d="M650.09,432.27v27.13c0,7.94-6.43,14.37-14.37,14.37h-12.76c-5.2,0-9.75-2.76-12.27-6.89h0
			c-1.33-2.18-2.09-4.74-2.09-7.48v-27.13H650.09z"/>
		<path class="st6" d="M651.59,428.75h-44.51c-0.59,0-1.06,0.47-1.06,1.06v1.4c0,0.58,0.47,1.06,1.06,1.06h44.51
			c0.58,0,1.06-0.47,1.06-1.06v-1.4C652.65,429.23,652.18,428.75,651.59,428.75z"/>
		<path class="st7" d="M650.09,432.27v27.13c0,7.94-6.43,14.37-14.37,14.37h-12.76c-5.2,0-9.75-2.76-12.27-6.89
			c30.39,9.55,36.99-12.8,35.82-21.67c-1.17-8.86-12.12-12.94-12.12-12.94H650.09z"/>
	</g>
</g>
</svg>
