<?xml version="1.0" encoding="utf-8"?>
<!-- Generator: Adobe Illustrator 27.0.0, SVG Export Plug-In . SVG Version: 6.00 Build 0)  -->
<svg version="1.1" xmlns="http://www.w3.org/2000/svg" xmlns:xlink="http://www.w3.org/1999/xlink" x="0px" y="0px"
	 viewBox="0 0 750 500" style="enable-background:new 0 0 750 500;" xml:space="preserve">
<style type="text/css">
	.st0{fill:#80ABBD;}
	.st1{fill:#FFFFFF;}
	.st2{fill:#4B7195;}
	.st3{opacity:0.4;fill:#5A93A0;}
</style>
<g id="BACKGROUND">
</g>
<g id="OBJECTS">
	<g>
		<g>
			<path class="st0" d="M426.93,472.88c-0.03,0.01-0.07,0.02-0.11,0.02c-0.27,0.03-0.55,0.04-0.83,0.04H207
				c-2.91,0-5.5-1.35-7.19-3.47c-1.26-1.57-2.01-3.57-2.01-5.74l-0.03-0.1l-34.1-96.35c-2.61-7.36,2.85-15.09,10.66-15.09h142.18
				c4.8,0,9.07,3.02,10.67,7.54l36.75,103.82c0.04,0.12,0.06,0.18,0.06,0.18h62.21C431.91,463.73,432.54,472.27,426.93,472.88z"/>
			<path class="st1" d="M263.62,410.35c3.6,10.45-0.47,21.33-9.08,24.29c-8.61,2.96-18.51-3.11-22.1-13.57
				c-3.6-10.45,0.47-21.33,9.08-24.29C250.13,393.82,260.02,399.9,263.62,410.35z"/>
			<path class="st2" d="M426.2,463.73h-62.21c0,0-0.02-0.06-0.05-0.18l-36.76-103.82c-1.6-4.52-5.87-7.53-10.67-7.53h-4.75
				c0,0,10.62,0.69,13.28,10.2c2.66,9.5,38.95,110.35,38.95,110.35l2.68,0.2h59.31c0.29,0,0.57-0.01,0.84-0.04
				C432.55,472.38,431.95,463.73,426.2,463.73z"/>
		</g>
		<path class="st3" d="M426.93,472.88c-0.03,0.01-0.07,0.02-0.11,0.02c-0.27,0.03-0.55,0.04-0.83,0.04H207
			c-2.91,0-5.5-1.35-7.19-3.47c129.44,11.12,116.7-117.28,116.7-117.28c4.8,0,9.07,3.02,10.67,7.54l36.75,103.82
			c0.04,0.12,0.06,0.18,0.06,0.18h61.23C425.88,466.76,426.46,469.81,426.93,472.88z"/>
	</g>
</g>
</svg>
