<?xml version="1.0" encoding="utf-8"?>
<!-- Generator: Adobe Illustrator 27.0.0, SVG Export Plug-In . SVG Version: 6.00 Build 0)  -->
<svg version="1.1" xmlns="http://www.w3.org/2000/svg" xmlns:xlink="http://www.w3.org/1999/xlink" x="0px" y="0px"
	 viewBox="0 0 750 500" style="enable-background:new 0 0 750 500;" xml:space="preserve">
<style type="text/css">
	.st0{fill:#B83D5D;}
	.st1{fill:#E3B5AA;}
	.st2{fill:#D78F97;}
	.st3{fill:none;stroke:#C87E84;stroke-width:0.5;stroke-miterlimit:10;}
	.st4{fill:#C87E84;}
	.st5{fill:none;stroke:#B83D5D;stroke-miterlimit:10;}
	.st6{fill:#36364F;}
	.st7{fill:none;stroke:#FFFFFF;stroke-width:4;stroke-miterlimit:10;}
	.st8{fill:#9A304F;}
	.st9{fill:#C33E5D;}
	.st10{fill:#EBA154;}
	.st11{opacity:0.5;fill:#D9751F;}
	.st12{fill:none;stroke:#DC831E;stroke-width:3;stroke-miterlimit:10;}
	.st13{fill:#FFFFFF;}
	.st14{font-family:'Montserrat-Bold';}
	.st15{font-size:44.386px;}
</style>
<g id="BACKGROUND">
</g>
<g id="OBJECTS">
	<g>
		<path class="st0" d="M466.06,221.79c-1.49,32.66-33.6,57.69-57.65,59.21c-31.78,2-54.49-26.66-57.65-59.21
			c-2.74-28.19,7.27-27.77,14.73-39.53c9.04-14.24,25.88-22.11,42.92-22.11C440.25,160.15,468.07,177.84,466.06,221.79z"/>
		<rect x="386.06" y="277.95" class="st1" width="44.69" height="55.94"/>
		<g>
			<g>
				<path class="st1" d="M458.6,245.32c7.97-12.1,18.11-12.63,22.35,1.68c4.23,14.31-9.74,26.08-21.12,21.73
					C448.44,264.38,458.6,245.32,458.6,245.32z"/>
				<path class="st2" d="M468.01,245.63c5.34-0.98,8.08,14.93-3.63,15.46l2.41-5.55l-2.26-4.62L468.01,245.63z"/>
				<path class="st3" d="M462.62,263.27c6.83-7.27,1.9-12.35,1.9-12.35s6.5-13.32,9.1-3.11"/>
			</g>
		</g>
		<g>
			<g>
				<path class="st1" d="M357.84,245.32c-7.97-12.1-18.11-12.63-22.35,1.68c-4.23,14.31,9.74,26.08,21.12,21.73
					C367.99,264.38,357.84,245.32,357.84,245.32z"/>
				<path class="st2" d="M348.43,245.63c-5.34-0.98-8.08,14.93,3.63,15.46l-2.41-5.55l2.26-4.62L348.43,245.63z"/>
				<path class="st3" d="M353.81,263.27c-6.83-7.27-1.9-12.35-1.9-12.35s-6.5-13.32-9.1-3.11"/>
			</g>
		</g>
		<path class="st4" d="M430.75,279.18v20.81c-16.06,21.76-44.69,14.69-44.69,14.69l0.5-35.5H430.75z"/>
		<path class="st1" d="M408.41,303.03L408.41,303.03c-26.68,0-48.3-21.62-48.3-48.3v-35.3c0-18.02,14.61-32.62,32.62-32.62h31.35
			c18.02,0,32.62,14.61,32.62,32.62v35.3C456.71,281.4,435.08,303.03,408.41,303.03z"/>
		<path class="st5" d="M415.84,261.04c0,4.1-3.33,7.43-7.43,7.43c-4.1,0-7.43-3.33-7.43-7.43"/>
		<path class="st0" d="M365.21,188.97c0,0-8.46-14.02,2.14-26.39C367.34,162.58,374.96,176.68,365.21,188.97z"/>
		<path class="st0" d="M369.51,185.64c0,0-11.78,11.38-26.2,3.81C343.31,189.45,355.35,178.88,369.51,185.64z"/>
		<path class="st6" d="M389.22,243.71c0,3.99-1.7,7.23-3.8,7.23s-3.8-3.24-3.8-7.23c0-3.99,1.7-7.23,3.8-7.23
			S389.22,239.71,389.22,243.71z"/>
		
			<ellipse transform="matrix(0.2622 -0.965 0.965 0.2622 48.261 549.4594)" class="st7" cx="383.46" cy="243.17" rx="19.42" ry="19.42"/>
		<path class="st6" d="M435.18,243.71c0,3.99-1.7,7.23-3.8,7.23s-3.8-3.24-3.8-7.23c0-3.99,1.7-7.23,3.8-7.23
			S435.18,239.71,435.18,243.71z"/>
		
			<ellipse transform="matrix(0.2669 -0.9637 0.9637 0.2669 83.3288 595.8837)" class="st7" cx="433.35" cy="243.17" rx="19.42" ry="19.42"/>
		<path class="st0" d="M366.09,200.59c0,0,30.68-16.18,51.07-4.45c20.39,11.72,22.68,35.94,42.82,29.67c0,0,15.29-6.73-1.53-30.18
			s-28.33-28.04-50.23-22.94S372.08,181.76,366.09,200.59z"/>
		<path class="st8" d="M364.92,200.36c0,0,10.13-13.43,24.31-16.98c14.18-3.55,29.86,13.89,29.86,13.89S382.76,192.09,364.92,200.36
			z"/>
		<path class="st0" d="M360.18,217.25c0,0,3.42,24.93,0,40.14C360.18,257.39,355.19,218.74,360.18,217.25z"/>
		<path class="st0" d="M456.35,217.25c0,0-3.42,24.93,0,40.14C456.35,257.39,461.35,218.74,456.35,217.25z"/>
		<path class="st0" d="M394.08,215.31c-5.27-2.52-14.64-5.29-23.33,0.89c-1.46,1.04-0.9,3.33,0.86,3.63
			c2.79,0.48,6.78,0.98,11.31,0.95c3.52-0.02,7.68-0.89,10.79-1.69C395.54,218.63,395.79,216.12,394.08,215.31z"/>
		<path class="st0" d="M444.98,215.31c-5.27-2.52-14.64-5.29-23.33,0.89c-1.46,1.04-0.9,3.33,0.86,3.63
			c2.79,0.48,6.78,0.98,11.31,0.95c3.52-0.02,7.68-0.89,10.79-1.69C446.43,218.63,446.68,216.12,444.98,215.31z"/>
		<g>
			<g>
				<path class="st9" d="M424.74,278.49c-0.5,0.89-1.09,1.83-1.9,2.76c-2.58,3.11-6.97,6.09-14.48,6.23l-0.01,0.03l-0.55-0.01
					l-0.02-0.04c-7.04-0.14-11.38-2.79-14-5.71c-1.01-1.1-1.78-2.26-2.34-3.31c-1.25-2.4-1.58-4.29-1.58-4.29l36.47,0.07
					C426.34,274.22,426.03,276.1,424.74,278.49z"/>
			</g>
			<path class="st6" d="M424.74,278.49c-0.5,0.89-1.09,1.83-1.9,2.76c-8.37-3.68-18.44-4.45-29.06,0.5
				c-1.01-1.1-1.78-2.26-2.34-3.31c-1.25-2.4-1.58-4.29-1.58-4.29l36.47,0.07C426.34,274.22,426.03,276.1,424.74,278.49z"/>
		</g>
		<path class="st10" d="M563.43,472.85l-326.96,0.34c0,0,6.1-12.76,14.88-29.67c0.65-1.25,1.32-2.53,2-3.83
			c11.99-22.87,28.12-51.76,40.71-67.43c14.5-18.04,48.76-30.9,72.03-37.93c13.56-4.09,23.38-6.2,23.38-6.2h37.56
			c0,0,8.82,1.89,21.28,5.58c23.25,6.87,58.01,20.97,74.13,38.55c3.54,3.86,6.87,8.53,9.99,13.71
			C552.27,418.94,563.43,472.85,563.43,472.85z"/>
		<path class="st11" d="M563.43,472.85l-326.96,0.34c0,0,6.1-12.76,14.88-29.67c163.16,47.96,249.14-30.64,268.76-51.92
			c3.17-3.44,7.57-5.5,12.24-5.63l0.08,0C552.27,418.94,563.43,472.85,563.43,472.85z"/>
		<line class="st7" x1="403.28" y1="246.47" x2="413.53" y2="246.47"/>
		<path class="st1" d="M448.31,333.7c-40.47,44.53-82.22,0.63-82.22,0.63c13.56-4.1,23.38-6.21,23.38-6.21h37.56
			C427.03,328.12,435.85,330.02,448.31,333.7z"/>
		<g>
			<line class="st12" x1="319.04" y1="422.46" x2="319.04" y2="473.25"/>
			<line class="st12" x1="319.04" y1="454.83" x2="305.41" y2="437.45"/>
		</g>
		<g>
			<line class="st12" x1="496.84" y1="422.46" x2="496.84" y2="473.25"/>
			<line class="st12" x1="496.84" y1="454.83" x2="508.95" y2="439.39"/>
		</g>
		<path class="st12" d="M364.15,353.66c0,0,50.18,34.27,84.16-1.66"/>
		<text transform="matrix(1 0 0 1 451.7164 424.131)" class="st13 st14 st15">x</text>
		<path class="st0" d="M364.93,179.59c11.27-47.36,124.15-42.15,103.15,50.06c-6.29,27.62-52.3-62.79-92.01-40.61
			c-2.97,1.66-6.67,1.23-9.15-1.09l0,0C364.64,185.82,364.2,182.63,364.93,179.59z"/>
	</g>
</g>
</svg>
