<?xml version="1.0" encoding="utf-8"?>
<!-- Generator: Adobe Illustrator 27.0.0, SVG Export Plug-In . SVG Version: 6.00 Build 0)  -->
<svg version="1.1" xmlns="http://www.w3.org/2000/svg" xmlns:xlink="http://www.w3.org/1999/xlink" x="0px" y="0px"
	 viewBox="0 0 750 500" style="enable-background:new 0 0 750 500;" xml:space="preserve">
<style type="text/css">
	.st0{fill:#EBA154;}
	.st1{fill:none;stroke:#FD783D;stroke-miterlimit:10;stroke-dasharray:4;}
	.st2{fill:#FFFFFF;}
	.st3{fill:#49496B;}
	.st4{font-family:'Montserrat-Black';}
	.st5{font-size:18.4267px;}
	.st6{fill:#323247;}
	.st7{fill:#B83D5D;}
	.st8{fill:#64648E;}
	.st9{fill:#FD783D;}
	.st10{fill:none;stroke:#FD783D;stroke-miterlimit:10;}
	.st11{fill:none;stroke:#FD783D;stroke-miterlimit:10;stroke-dasharray:5.071,5.071;}
	.st12{fill:none;stroke:#FD783D;stroke-miterlimit:10;stroke-dasharray:3.7405,3.7405;}
	.st13{fill:none;stroke:#FD783D;stroke-miterlimit:10;stroke-dasharray:3.3959,3.3959;}
</style>
<g id="BACKGROUND">
</g>
<g id="OBJECTS">
	<g>
		<path class="st0" d="M701.54,135.73c0-0.08,0.01-0.16,0.01-0.24c0-0.08-0.01-0.16-0.01-0.23c1.2-0.55,2.4-1.19,3.59-1.96
			c1.27-0.87,2.56-1.88,3.76-3.04l-0.26-1.02c-0.25-1.16-0.7-2.27-1.1-3.38c-0.23-0.54-0.5-1.07-0.76-1.6
			c-0.24-0.55-0.53-1.06-0.85-1.56l-0.54-0.89c-1.63,0.01-3.29,0.22-4.8,0.5c-1.36,0.28-2.68,0.69-3.91,1.16l-0.33-0.33
			c0.46-1.24,0.87-2.55,1.15-3.91c0.29-1.51,0.5-3.16,0.51-4.8l-0.89-0.54c-0.5-0.32-1.02-0.61-1.56-0.85
			c-0.53-0.26-1.06-0.53-1.61-0.76c-1.11-0.41-2.22-0.85-3.37-1.1l-1.02-0.26c-1.15,1.2-2.16,2.48-3.04,3.76
			c-0.77,1.18-1.4,2.38-1.96,3.59c-0.07,0-0.16-0.02-0.23-0.02c-0.08,0-0.16,0.02-0.24,0.02c-0.54-1.21-1.19-2.41-1.96-3.59
			c-0.86-1.28-1.88-2.56-3.03-3.76l-1.02,0.26c-1.17,0.25-2.27,0.7-3.38,1.1c-0.54,0.23-1.07,0.5-1.61,0.76
			c-0.54,0.24-1.05,0.53-1.56,0.85l-0.89,0.54c0.02,1.63,0.23,3.29,0.51,4.8c0.28,1.36,0.69,2.67,1.16,3.91
			c-0.11,0.11-0.23,0.22-0.33,0.33c-1.24-0.47-2.55-0.87-3.91-1.16c-1.51-0.28-3.17-0.49-4.8-0.5l-0.55,0.89
			c-0.31,0.5-0.6,1.01-0.85,1.56c-0.25,0.53-0.52,1.06-0.75,1.6c-0.42,1.11-0.85,2.23-1.1,3.38l-0.26,1.02
			c1.2,1.16,2.48,2.16,3.76,3.04c1.18,0.77,2.38,1.4,3.58,1.96c0,0.07-0.01,0.15-0.01,0.23c0,0.08,0.01,0.16,0.01,0.24
			c-1.2,0.54-2.4,1.19-3.58,1.96c-1.28,0.86-2.56,1.88-3.76,3.03l0.26,1.02c0.25,1.16,0.69,2.27,1.1,3.38
			c0.23,0.54,0.5,1.07,0.75,1.61c0.25,0.54,0.54,1.05,0.85,1.55l0.55,0.9c1.62-0.01,3.29-0.22,4.8-0.5
			c1.36-0.28,2.67-0.69,3.91-1.16c0.1,0.11,0.22,0.23,0.33,0.33c-0.47,1.24-0.87,2.55-1.16,3.91c-0.28,1.51-0.49,3.17-0.51,4.8
			l0.89,0.55c0.51,0.31,1.02,0.6,1.56,0.84c0.54,0.26,1.07,0.53,1.61,0.76c1.11,0.42,2.22,0.85,3.38,1.1l1.02,0.26
			c1.14-1.2,2.16-2.48,3.03-3.76c0.77-1.18,1.42-2.38,1.96-3.59c0.08,0.01,0.16,0.02,0.24,0.02c0.07,0,0.16-0.01,0.23-0.02
			c0.55,1.21,1.19,2.41,1.96,3.59c0.87,1.28,1.88,2.56,3.04,3.76l1.02-0.26c1.16-0.25,2.26-0.69,3.37-1.1
			c0.55-0.23,1.08-0.5,1.61-0.76c0.54-0.24,1.06-0.53,1.56-0.84l0.89-0.55c-0.01-1.62-0.22-3.29-0.51-4.8
			c-0.27-1.36-0.69-2.67-1.15-3.91c0.11-0.1,0.22-0.22,0.33-0.33c1.23,0.47,2.55,0.87,3.91,1.16c1.51,0.28,3.16,0.49,4.8,0.5
			l0.54-0.9c0.32-0.5,0.61-1.01,0.85-1.55c0.26-0.54,0.53-1.07,0.76-1.61c0.41-1.11,0.85-2.23,1.1-3.38l0.26-1.02
			c-1.2-1.14-2.49-2.16-3.76-3.03C703.94,136.92,702.74,136.27,701.54,135.73z M684.3,143.74c-4.56,0-8.25-3.69-8.25-8.25
			c0-4.56,3.69-8.25,8.25-8.25c4.56,0,8.25,3.69,8.25,8.25C692.55,140.05,688.85,143.74,684.3,143.74z"/>
		<polyline class="st1" points="660.64,148.23 604.95,148.23 604.95,203.07 620.41,203.07 		"/>
		<g>
			<rect x="621.74" y="232.42" class="st2" width="30.61" height="5.47"/>
			<rect x="621.74" y="242.55" class="st2" width="47.07" height="5.47"/>
			<rect x="621.74" y="252.67" class="st2" width="16.03" height="5.47"/>
			<rect x="644.31" y="252.67" class="st0" width="16.03" height="5.47"/>
			<rect x="666.08" y="252.67" class="st0" width="23.02" height="5.47"/>
			<rect x="675.12" y="242.55" class="st0" width="13.98" height="5.47"/>
			<rect x="658.49" y="232.42" class="st0" width="30.61" height="5.47"/>
		</g>
		<rect x="699.29" y="196.99" class="st2" width="1.02" height="60.98"/>
	</g>
	<g>
		<rect x="622.21" y="199.23" class="st2" width="31.48" height="5.63"/>
		<rect x="622.21" y="209.64" class="st2" width="48.4" height="5.63"/>
		<rect x="622.21" y="220.05" class="st2" width="16.48" height="5.63"/>
		<rect x="645.43" y="220.05" class="st0" width="16.48" height="5.63"/>
		<rect x="667.81" y="220.05" class="st0" width="23.67" height="5.63"/>
		<rect x="677.11" y="209.64" class="st0" width="14.38" height="5.63"/>
		<rect x="660" y="199.23" class="st0" width="31.48" height="5.63"/>
	</g>
	<g>
		<g>
			<rect x="492.11" y="94.37" class="st3" width="90.59" height="178.02"/>
			<rect x="502.43" y="132.23" class="st2" width="68.02" height="7.22"/>
			<rect x="502.43" y="148.23" class="st2" width="45.02" height="7.22"/>
			<rect x="554.14" y="148.23" class="st0" width="16.31" height="7.22"/>
			<rect x="528.3" y="164.22" class="st0" width="42.15" height="7.22"/>
			<rect x="502.43" y="164.22" class="st2" width="19.74" height="7.22"/>
			<rect x="502.43" y="180.22" class="st2" width="35.95" height="7.22"/>
			<rect x="543.92" y="180.22" class="st0" width="26.53" height="7.22"/>
			<rect x="522.17" y="196.22" class="st0" width="48.28" height="7.22"/>
			<rect x="502.43" y="196.22" class="st2" width="14.59" height="7.22"/>
			<rect x="502.43" y="212.21" class="st2" width="29.19" height="7.22"/>
			<rect x="536.44" y="212.21" class="st0" width="34.01" height="7.22"/>
			<g>
				<g>
					<path class="st0" d="M568.44,254.84v2.03l-7.44,2.83v-1.95l5.21-1.89l-5.21-1.91v-1.94L568.44,254.84z"/>
				</g>
				<g>
					<path class="st0" d="M547.28,252.01v1.94l-5.21,1.91l5.21,1.89v1.95l-7.44-2.83v-2.03L547.28,252.01z"/>
				</g>
				<g>
					<path class="st0" d="M556.08,246.53h2.33l-5.53,15.78h-2.33L556.08,246.53z"/>
				</g>
			</g>
			<g>
				<g>
					<path class="st0" d="M534.26,115.92v2.66l-9.76,3.71v-2.56l6.83-2.48l-6.83-2.5v-2.54L534.26,115.92z"/>
				</g>
				<g>
					<path class="st0" d="M516.32,112.21v2.54l-6.83,2.5l6.83,2.48v2.56l-9.76-3.71v-2.66L516.32,112.21z"/>
				</g>
			</g>
		</g>
		<text transform="matrix(1 0 0 1 492.7012 79.8665)" class="st2 st4 st5">HTML</text>
	</g>
	<g>
		<path class="st6" d="M649.49,316.69c0-0.07,0.01-0.13,0.01-0.2c0-0.07-0.01-0.13-0.01-0.2c1.02-0.47,2.06-1.01,3.07-1.67
			c1.09-0.75,2.19-1.61,3.21-2.6l-0.22-0.87c-0.21-0.99-0.6-1.94-0.94-2.89c-0.2-0.46-0.43-0.92-0.65-1.37
			c-0.2-0.47-0.45-0.91-0.73-1.33l-0.46-0.77c-1.4,0.01-2.81,0.19-4.1,0.43c-1.17,0.24-2.3,0.59-3.35,0.99l-0.28-0.28
			c0.39-1.06,0.75-2.18,0.98-3.35c0.25-1.29,0.43-2.71,0.44-4.1l-0.77-0.46c-0.43-0.28-0.87-0.52-1.34-0.73
			c-0.45-0.22-0.91-0.45-1.38-0.65c-0.95-0.35-1.9-0.73-2.88-0.94l-0.87-0.22c-0.99,1.02-1.85,2.12-2.6,3.21
			c-0.66,1.01-1.2,2.04-1.67,3.07c-0.06,0-0.13-0.02-0.2-0.02c-0.07,0-0.13,0.02-0.2,0.02c-0.46-1.03-1.01-2.06-1.67-3.07
			c-0.74-1.09-1.61-2.19-2.59-3.21l-0.87,0.22c-1,0.21-1.94,0.6-2.89,0.94c-0.46,0.2-0.92,0.43-1.38,0.65
			c-0.46,0.2-0.9,0.45-1.34,0.73l-0.77,0.46c0.02,1.4,0.2,2.81,0.44,4.1c0.24,1.17,0.59,2.29,0.99,3.35c-0.1,0.1-0.2,0.19-0.28,0.28
			c-1.06-0.4-2.18-0.75-3.35-0.99c-1.29-0.24-2.71-0.42-4.1-0.43l-0.47,0.77c-0.27,0.43-0.52,0.86-0.73,1.33
			c-0.21,0.45-0.44,0.91-0.64,1.37c-0.36,0.95-0.73,1.9-0.94,2.89l-0.22,0.87c1.02,0.99,2.12,1.85,3.21,2.6
			c1.01,0.66,2.04,1.2,3.06,1.67c0,0.06-0.01,0.12-0.01,0.2c0,0.07,0.01,0.13,0.01,0.2c-1.02,0.46-2.06,1.01-3.06,1.67
			c-1.09,0.74-2.19,1.61-3.21,2.59l0.22,0.87c0.21,0.99,0.59,1.94,0.94,2.89c0.2,0.46,0.43,0.92,0.64,1.38
			c0.21,0.46,0.46,0.9,0.73,1.33l0.47,0.77c1.39-0.01,2.81-0.19,4.1-0.43c1.17-0.24,2.29-0.59,3.35-0.99
			c0.09,0.1,0.19,0.2,0.28,0.28c-0.4,1.06-0.75,2.18-0.99,3.35c-0.24,1.29-0.42,2.71-0.44,4.1l0.77,0.47
			c0.44,0.27,0.87,0.52,1.34,0.72c0.46,0.22,0.92,0.45,1.38,0.65c0.95,0.36,1.9,0.73,2.89,0.94l0.87,0.22
			c0.98-1.02,1.85-2.12,2.59-3.21c0.66-1.01,1.21-2.04,1.67-3.07c0.07,0.01,0.13,0.02,0.2,0.02c0.06,0,0.13-0.01,0.2-0.02
			c0.47,1.03,1.01,2.06,1.67,3.07c0.75,1.09,1.61,2.19,2.6,3.21l0.87-0.22c0.99-0.21,1.93-0.59,2.88-0.94
			c0.47-0.2,0.93-0.43,1.38-0.65c0.46-0.2,0.91-0.45,1.34-0.72l0.77-0.47c-0.01-1.39-0.19-2.81-0.44-4.1
			c-0.23-1.17-0.59-2.29-0.98-3.35c0.1-0.09,0.19-0.19,0.28-0.28c1.05,0.4,2.18,0.75,3.35,0.99c1.29,0.24,2.71,0.42,4.1,0.43
			l0.46-0.77c0.28-0.43,0.53-0.86,0.73-1.33c0.22-0.46,0.45-0.92,0.65-1.38c0.35-0.95,0.73-1.9,0.94-2.89l0.22-0.87
			c-1.02-0.98-2.13-1.85-3.21-2.59C651.55,317.7,650.51,317.15,649.49,316.69z M634.74,323.54c-3.9,0-7.06-3.16-7.06-7.06
			c0-3.9,3.16-7.06,7.06-7.06c3.9,0,7.06,3.16,7.06,7.06C641.8,320.38,638.64,323.54,634.74,323.54z"/>
		<g>
			<g>
				<rect x="575.32" y="290.48" class="st7" width="9.32" height="41.97"/>
				<rect x="561.58" y="308.97" class="st8" width="9.99" height="23.48"/>
				<rect x="547.74" y="316.48" class="st9" width="9.99" height="15.96"/>
			</g>
			<g>
				<g>
					<line class="st10" x1="545.97" y1="325.76" x2="543.97" y2="325.76"/>
					<line class="st11" x1="538.9" y1="325.76" x2="531.3" y2="325.76"/>
					<polyline class="st10" points="528.76,325.76 526.76,325.76 526.76,327.76 					"/>
					<line class="st12" x1="526.76" y1="331.5" x2="526.76" y2="359.56"/>
					<polyline class="st10" points="526.76,361.43 526.76,363.43 528.76,363.43 					"/>
					<line class="st13" x1="532.16" y1="363.43" x2="544.04" y2="363.43"/>
					<line class="st10" x1="545.74" y1="363.43" x2="547.74" y2="363.43"/>
				</g>
			</g>
			<g>
				<rect x="550.9" y="361.56" class="st2" width="26.43" height="4.72"/>
				<rect x="550.9" y="370.3" class="st2" width="18.28" height="4.72"/>
				<rect x="550.9" y="379.04" class="st2" width="23.14" height="4.72"/>
				<rect x="578.83" y="379.04" class="st0" width="5.4" height="4.72"/>
				<rect x="589.18" y="379.04" class="st0" width="19.87" height="4.72"/>
				<rect x="575.04" y="370.3" class="st0" width="34.01" height="4.72"/>
				<rect x="582.63" y="361.56" class="st0" width="26.43" height="4.72"/>
			</g>
		</g>
		<g>
			<rect x="682.28" y="313.92" class="st7" width="17.41" height="8.31"/>
			<rect x="682.28" y="328.44" class="st7" width="17.41" height="8.31"/>
			<rect x="682.28" y="342.96" class="st7" width="17.41" height="8.31"/>
			<rect x="682.28" y="357.48" class="st7" width="17.41" height="8.31"/>
			<rect x="682.28" y="372" class="st2" width="17.41" height="8.31"/>
			<rect x="682.28" y="386.52" class="st2" width="17.41" height="8.31"/>
			<rect x="682.28" y="401.04" class="st2" width="17.41" height="8.31"/>
		</g>
	</g>
</g>
</svg>
