<?xml version="1.0" encoding="utf-8"?>
<!-- Generator: Adobe Illustrator 27.0.0, SVG Export Plug-In . SVG Version: 6.00 Build 0)  -->
<svg version="1.1" xmlns="http://www.w3.org/2000/svg" xmlns:xlink="http://www.w3.org/1999/xlink" x="0px" y="0px"
	 viewBox="0 0 750 500" style="enable-background:new 0 0 750 500;" xml:space="preserve">
<style type="text/css">
	.st0{fill:#64648E;}
	.st1{fill:#EBA154;}
	.st2{fill:#B83D5D;}
	.st3{fill:none;stroke:#FD783D;stroke-miterlimit:10;}
	.st4{fill:none;stroke:#FD783D;stroke-miterlimit:10;stroke-dasharray:3.8274,3.8274;}
	.st5{fill:none;stroke:#FD783D;stroke-miterlimit:10;stroke-dasharray:4.1156,4.1156;}
	.st6{fill:none;stroke:#FD783D;stroke-miterlimit:10;stroke-dasharray:3.8948,3.8948;}
	.st7{fill:#49496B;}
	.st8{font-family:'Montserrat-Bold';}
	.st9{font-size:15.6111px;}
	.st10{fill:#FFFFFF;}
	.st11{font-size:13.8438px;}
	.st12{fill:#54B3CD;}
	.st13{fill:#323247;}
	.st14{font-family:'Montserrat-Black';}
	.st15{font-size:26.4103px;}
</style>
<g id="BACKGROUND">
</g>
<g id="OBJECTS">
	<g>
		<g>
			<g>
				<path class="st0" d="M72.92,276.75c-1.88-1.84-4.05-3.34-6.41-4.42c-0.04-0.02-0.09-0.04-0.13-0.06
					c-3.32-1.5-6.98-2.22-10.68-2.01c-2.53,0.13-5.08,0.7-7.54,1.74c-0.15,0.06-0.31,0.13-0.46,0.2c-4.41,1.97-7.89,5.18-10.21,9.03
					c-3.7,6.16-4.45,13.96-1.3,21.01c5.11,11.46,18.59,16.62,30.04,11.51c10.5-4.68,15.71-16.4,12.58-27.14
					c-0.28-0.98-0.64-1.95-1.07-2.9C76.55,281.02,74.9,278.68,72.92,276.75z M63.4,307.38c-7.95,3.54-17.3-0.04-20.84-7.99
					c-2.11-4.73-1.69-9.95,0.66-14.15c0.02-0.03,0.03-0.06,0.05-0.1c1.6-2.82,4.09-5.18,7.27-6.6c0.6-0.27,1.2-0.49,1.82-0.68
					c0.06-0.02,0.13-0.04,0.19-0.06c3.16-0.92,6.43-0.81,9.41,0.19c0.01,0,0.02,0.01,0.04,0.01c2.55,0.86,4.88,2.36,6.72,4.41
					c1.08,1.19,1.98,2.57,2.67,4.12c0.43,0.96,0.75,1.94,0.97,2.93C74,296.66,70.39,304.26,63.4,307.38z"/>
			</g>
			<path class="st1" d="M66.51,272.33c2.35,1.08,4.53,2.57,6.41,4.42c1.98,1.94,3.63,4.28,4.83,6.96c0.43,0.95,0.78,1.92,1.07,2.9
				l-6.45,2.86c-0.22-0.99-0.55-1.97-0.97-2.93c-0.69-1.54-1.6-2.92-2.67-4.12c-1.84-2.05-4.17-3.55-6.72-4.41L61.96,278l0,0
				l4.42-5.74"/>
			<line class="st1" x1="66.51" y1="272.33" x2="61.99" y2="278.01"/>
			<path class="st2" d="M61.99,278.01L61.96,278c-2.98-1-6.25-1.11-9.41-0.19c-0.06,0.02-0.13,0.04-0.19,0.06l-4.19-5.88
				c2.46-1.03,5.01-1.6,7.54-1.74c3.7-0.2,7.36,0.51,10.68,2.01"/>
		</g>
		<g>
			<g>
				<line class="st3" x1="58.78" y1="315.71" x2="58.78" y2="317.71"/>
				<line class="st4" x1="58.78" y1="321.54" x2="58.78" y2="350.25"/>
				<polyline class="st3" points="58.78,352.16 58.78,354.16 60.78,354.16 				"/>
				<line class="st5" x1="64.9" y1="354.16" x2="120.46" y2="354.16"/>
				<polyline class="st3" points="122.52,354.16 124.52,354.16 124.52,352.16 				"/>
				<line class="st6" x1="124.52" y1="348.27" x2="124.52" y2="319.06"/>
				<line class="st3" x1="124.52" y1="317.11" x2="124.52" y2="315.11"/>
			</g>
		</g>
		<g>
			<rect x="100.53" y="83.3" class="st7" width="192.85" height="229.92"/>
			<rect x="100.53" y="72.1" class="st0" width="192.85" height="29.18"/>
			<g>
				<g>
					<path class="st1" d="M271.06,297.4v1.89l-6.93,2.64v-1.82l4.85-1.76l-4.85-1.78v-1.81L271.06,297.4z"/>
				</g>
				<g>
					<path class="st1" d="M251.34,294.76v1.81l-4.85,1.78l4.85,1.76v1.82l-6.93-2.64v-1.89L251.34,294.76z"/>
				</g>
				<text transform="matrix(1 0 0 1 254.9062 302.7985)" class="st1 st8 st9">/</text>
			</g>
			<g>
				<g>
					<path class="st1" d="M146.22,119.88v2.36l-8.65,3.29v-2.27l6.05-2.2l-6.05-2.22v-2.25L146.22,119.88z"/>
				</g>
				<g>
					<path class="st1" d="M130.32,116.59v2.25l-6.05,2.22l6.05,2.2v2.27l-8.65-3.29v-2.36L130.32,116.59z"/>
				</g>
			</g>
			<text transform="matrix(1 0 0 1 112.2289 92.8727)" class="st10 st8 st11">WEB DEVELOPING</text>
			<g>
				<g>
					<rect x="133.87" y="139.55" class="st12" width="56.69" height="10.38"/>
					<rect x="198.54" y="139.55" class="st1" width="28.34" height="10.38"/>
					<rect x="233.41" y="139.55" class="st10" width="39.04" height="10.38"/>
					<rect x="133.87" y="158.09" class="st12" width="26.46" height="10.38"/>
					<rect x="167.52" y="158.09" class="st1" width="45.19" height="10.38"/>
					<rect x="220.08" y="158.09" class="st10" width="52.37" height="10.38"/>
					<rect x="133.87" y="176.62" class="st12" width="34.83" height="10.38"/>
					<rect x="174.36" y="176.62" class="st1" width="65.51" height="10.38"/>
					<rect x="246.89" y="176.62" class="st10" width="25.56" height="10.38"/>
					<rect x="133.87" y="195.16" class="st12" width="43.91" height="10.38"/>
					<rect x="184.26" y="195.16" class="st1" width="42.62" height="10.38"/>
					<rect x="233.41" y="195.16" class="st10" width="39.04" height="10.38"/>
					<rect x="133.87" y="213.69" class="st12" width="19.26" height="10.38"/>
					<rect x="159.6" y="213.69" class="st1" width="38.16" height="10.38"/>
					<rect x="203.7" y="213.69" class="st10" width="68.75" height="10.38"/>
					<rect x="133.87" y="232.22" class="st12" width="55.07" height="10.38"/>
					<rect x="195.78" y="232.22" class="st1" width="16.93" height="10.38"/>
					<rect x="220.08" y="232.22" class="st10" width="52.37" height="10.38"/>
					<rect x="133.87" y="250.76" class="st12" width="71.71" height="10.38"/>
					<rect x="211.62" y="250.76" class="st1" width="29.34" height="10.38"/>
					<rect x="246.89" y="250.76" class="st10" width="25.56" height="10.38"/>
					<rect x="133.87" y="269.29" class="st12" width="21.96" height="10.38"/>
					<rect x="162.21" y="269.29" class="st1" width="26.73" height="10.38"/>
					<rect x="195.78" y="269.29" class="st10" width="76.67" height="10.38"/>
				</g>
				<rect x="280.03" y="139.55" class="st10" width="2.11" height="140.12"/>
				<circle class="st10" cx="116.04" cy="144.74" r="5.19"/>
				<circle class="st10" cx="116.04" cy="163.28" r="5.19"/>
				<circle class="st10" cx="116.04" cy="181.81" r="5.19"/>
				<circle class="st10" cx="116.04" cy="200.35" r="5.19"/>
				<circle class="st10" cx="116.04" cy="218.88" r="5.19"/>
				<circle class="st10" cx="116.04" cy="237.41" r="5.19"/>
				<circle class="st10" cx="116.04" cy="255.95" r="5.19"/>
				<circle class="st10" cx="116.04" cy="274.48" r="5.19"/>
			</g>
			<path class="st2" d="M284.79,88.3c0,2.92-2.37,5.29-5.29,5.29c-2.92,0-5.29-2.37-5.29-5.29c0-2.92,2.37-5.29,5.29-5.29
				C282.42,83,284.79,85.37,284.79,88.3z"/>
		</g>
		<path class="st10" d="M271.7,88.19c0,2.95-2.39,5.33-5.33,5.33c-2.95,0-5.33-2.39-5.33-5.33c0-2.95,2.39-5.33,5.33-5.33
			C269.31,82.86,271.7,85.24,271.7,88.19z"/>
	</g>
	<g>
		<text transform="matrix(1 0 0 1 48.6607 94.3712)" class="st13 st14 st15">{ }</text>
		<g>
			<rect x="48.51" y="123.95" class="st10" width="20.54" height="9.8"/>
			<rect x="48.51" y="141.07" class="st10" width="20.54" height="9.8"/>
			<rect x="48.51" y="158.2" class="st1" width="20.54" height="9.8"/>
			<rect x="48.51" y="175.32" class="st1" width="20.54" height="9.8"/>
			<rect x="48.51" y="192.44" class="st1" width="20.54" height="9.8"/>
			<rect x="48.51" y="209.57" class="st1" width="20.54" height="9.8"/>
			<rect x="48.51" y="226.69" class="st1" width="20.54" height="9.8"/>
		</g>
	</g>
</g>
</svg>
