<?xml version="1.0" encoding="utf-8"?>
<!-- Generator: Adobe Illustrator 27.0.0, SVG Export Plug-In . SVG Version: 6.00 Build 0)  -->
<svg version="1.1" xmlns="http://www.w3.org/2000/svg" xmlns:xlink="http://www.w3.org/1999/xlink" x="0px" y="0px"
	 viewBox="0 0 750 500" style="enable-background:new 0 0 750 500;" xml:space="preserve">
<style type="text/css">
	.st0{fill:#323247;}
	.st1{font-family:'Montserrat-Black';}
	.st2{font-size:25.4399px;}
	.st3{fill:#47547C;}
	.st4{fill:#64648E;}
	.st5{fill:none;stroke:#FD783D;stroke-miterlimit:10;}
	.st6{fill:none;stroke:#FD783D;stroke-miterlimit:10;stroke-dasharray:3.3763,3.3763;}
	.st7{fill:none;stroke:#FD783D;stroke-miterlimit:10;stroke-dasharray:3.8091,3.8091;}
	.st8{fill:none;stroke:#FD783D;stroke-miterlimit:10;stroke-dasharray:4.057,4.057;}
	.st9{fill:#FFFFFF;}
	.st10{font-size:18.4267px;}
	.st11{fill:#B83D5D;}
</style>
<g id="BACKGROUND">
</g>
<g id="OBJECTS">
	<g>
		<text transform="matrix(1 0 0 1 312.2244 315.8676)" class="st0 st1 st2">&lt;/&gt;</text>
	</g>
	<g>
		<rect x="319.04" y="110.33" class="st3" width="18.68" height="5.23"/>
		<rect x="319.04" y="101.01" class="st4" width="57.15" height="5.23"/>
		<g>
			<g>
				<line class="st5" x1="352.06" y1="116.56" x2="352.06" y2="118.56"/>
				<line class="st6" x1="352.06" y1="121.94" x2="352.06" y2="133.76"/>
				<polyline class="st5" points="352.06,135.44 352.06,137.44 354.06,137.44 				"/>
				<line class="st7" x1="357.87" y1="137.44" x2="416.91" y2="137.44"/>
				<polyline class="st5" points="418.82,137.44 420.82,137.44 420.82,135.44 				"/>
				<line class="st8" x1="420.82" y1="131.39" x2="420.82" y2="125.3"/>
				<line class="st5" x1="420.82" y1="123.27" x2="420.82" y2="121.27"/>
			</g>
		</g>
		<text transform="matrix(1 0 0 1 319.0419 87.1904)" class="st9 st1 st10">CSS</text>
		<g>
			<g>
				<path class="st4" d="M435.97,99.96c-0.19-0.68-0.44-1.35-0.74-2.01c-0.83-1.86-1.98-3.48-3.35-4.83
					c-1.3-1.28-2.82-2.31-4.45-3.06c-0.03-0.02-0.06-0.03-0.09-0.04c-2.3-1.05-4.84-1.54-7.41-1.4c-1.76,0.1-3.52,0.49-5.23,1.21
					c-0.1,0.05-0.21,0.09-0.32,0.14c-3.06,1.37-5.47,3.59-7.08,6.26c-2,3.32-2.75,7.32-1.97,11.23c0.22,1.13,0.58,2.25,1.06,3.34
					c3.54,7.95,12.9,11.53,20.84,7.98c4.85-2.16,8.07-6.48,9.05-11.33C436.78,105.02,436.7,102.45,435.97,99.96z M425.28,114.37
					c-5.51,2.46-12-0.03-14.46-5.54c-0.2-0.45-0.37-0.91-0.51-1.37c-0.85-2.89-0.44-5.93,0.96-8.44c0.01-0.02,0.02-0.05,0.03-0.07
					c1.11-1.96,2.83-3.59,5.04-4.58c0.42-0.18,0.83-0.34,1.26-0.46c0.04-0.02,0.08-0.03,0.13-0.04c2.19-0.65,4.46-0.56,6.53,0.12
					c0.01,0,0.01,0.01,0.02,0.01c1.77,0.6,3.39,1.64,4.66,3.06c0.75,0.83,1.37,1.78,1.85,2.86c0.3,0.67,0.52,1.35,0.68,2.03
					c0.42,1.86,0.34,3.75-0.18,5.51C430.44,110.43,428.32,113.01,425.28,114.37z"/>
			</g>
			<path class="st11" d="M436.29,107.45h-4.97c0.52-1.76,0.6-3.66,0.18-5.51c-0.16-0.68-0.38-1.36-0.68-2.03
				c-0.48-1.08-1.1-2.03-1.85-2.86c-1.28-1.42-2.89-2.46-4.66-3.06c-0.01,0-0.01-0.01-0.02-0.01c-2.07-0.69-4.34-0.77-6.53-0.12
				c-0.05,0.01-0.09,0.02-0.13,0.04c-0.43,0.12-0.85,0.28-1.26,0.46c-2.21,0.99-3.93,2.62-5.04,4.58c-0.01,0.02-0.03,0.05-0.03,0.07
				c-1.41,2.5-1.82,5.55-0.96,8.44h-4.97c-0.78-3.91-0.03-7.92,1.97-11.23c1.6-2.68,4.02-4.9,7.08-6.26
				c0.1-0.05,0.22-0.09,0.32-0.14c1.71-0.71,3.48-1.11,5.23-1.21c2.57-0.14,5.11,0.35,7.41,1.4c0.03,0.01,0.06,0.02,0.09,0.04
				c1.63,0.75,3.14,1.78,4.45,3.06c1.37,1.35,2.52,2.97,3.35,4.83c0.29,0.66,0.54,1.33,0.74,2.01
				C436.7,102.45,436.78,105.02,436.29,107.45z"/>
		</g>
		<rect x="341.47" y="110.33" class="st4" width="34.73" height="5.23"/>
	</g>
</g>
</svg>
