<?xml version="1.0" encoding="utf-8"?>
<!-- Generator: Adobe Illustrator 27.0.0, SVG Export Plug-In . SVG Version: 6.00 Build 0)  -->
<svg version="1.1" xmlns="http://www.w3.org/2000/svg" xmlns:xlink="http://www.w3.org/1999/xlink" x="0px" y="0px"
	 viewBox="0 0 750 500" style="enable-background:new 0 0 750 500;" xml:space="preserve">
<style type="text/css">
	.st0{fill:#47547C;}
	.st1{opacity:0.5;fill:#2B2B3F;}
</style>
<g id="BACKGROUND">
</g>
<g id="OBJECTS">
	<g>
		<path class="st0" d="M717.85,486.14v2.31c0,7.06-5.73,12.78-12.79,12.78H51.02c-5.95,0-10.95-4.06-12.38-9.55
			c0-0.01,0-0.02-0.01-0.03c-0.26-1.03-0.4-2.1-0.4-3.2v-2.31c0-7.06,5.72-12.78,12.79-12.78h654.04
			C712.12,473.36,717.85,479.08,717.85,486.14z"/>
		<path class="st1" d="M717.85,486.14v2.31c0,7.06-5.73,12.78-12.79,12.78H51.02c-5.95,0-10.95-4.06-12.38-9.55
			c0-0.01,0-0.02-0.01-0.03c-0.27-2.05-0.4-3.2-0.4-3.2c366.75,12.78,666.83-15.09,666.83-15.09
			C712.12,473.36,717.85,479.08,717.85,486.14z"/>
	</g>
</g>
</svg>
