<?xml version="1.0" encoding="utf-8"?>
<!-- Generator: Adobe Illustrator 27.0.0, SVG Export Plug-In . SVG Version: 6.00 Build 0)  -->
<svg version="1.1" id="content_1_" xmlns="http://www.w3.org/2000/svg" xmlns:xlink="http://www.w3.org/1999/xlink" x="0px" y="0px"
	 viewBox="0 0 332.68 274.02" style="enable-background:new 0 0 332.68 274.02;" xml:space="preserve">
<style type="text/css">
	.st0{fill:#0D1857;}
</style>
<g id="illustration">
	<g id="XMLID_1003_">
		<g id="XMLID_1001_">
			<g id="XMLID_7_">
				<path id="XMLID_19_" class="st0" d="M304.59,90.64c0.31,0.18,0.31,0.48,0,0.66c-0.31,0.18-0.82,0.18-1.14,0
					c-0.31-0.18-0.31-0.48,0-0.66C303.77,90.46,304.28,90.46,304.59,90.64z"/>
				<path id="XMLID_18_" class="st0" d="M301.61,88.92c0.31,0.18,0.31,0.48,0,0.66c-0.31,0.18-0.82,0.18-1.14,0
					c-0.31-0.18-0.31-0.48,0-0.66C300.79,88.74,301.3,88.74,301.61,88.92z"/>
				<path id="XMLID_17_" class="st0" d="M298.64,87.2c0.31,0.18,0.31,0.48,0,0.66c-0.31,0.18-0.82,0.18-1.14,0
					c-0.31-0.18-0.31-0.48,0-0.66C297.81,87.02,298.32,87.02,298.64,87.2z"/>
				<path id="XMLID_16_" class="st0" d="M295.63,85.46c0.31,0.18,0.31,0.48,0,0.66c-0.31,0.18-0.82,0.18-1.14,0
					c-0.31-0.18-0.31-0.48,0-0.66C294.81,85.28,295.32,85.28,295.63,85.46z"/>
				<path id="XMLID_15_" class="st0" d="M292.66,83.74c0.31,0.18,0.31,0.48,0,0.66c-0.31,0.18-0.82,0.18-1.14,0
					c-0.31-0.18-0.31-0.48,0-0.66C291.83,83.56,292.34,83.56,292.66,83.74z"/>
				<path id="XMLID_14_" class="st0" d="M289.68,82.02c0.31,0.18,0.31,0.48,0,0.66c-0.31,0.18-0.82,0.18-1.14,0
					c-0.31-0.18-0.31-0.48,0-0.66C288.85,81.84,289.36,81.84,289.68,82.02z"/>
				<path id="XMLID_13_" class="st0" d="M286.7,80.31c0.31,0.18,0.31,0.48,0,0.66c-0.31,0.18-0.82,0.18-1.14,0
					c-0.31-0.18-0.31-0.48,0-0.66C285.87,80.12,286.38,80.12,286.7,80.31z"/>
				<path id="XMLID_12_" class="st0" d="M283.72,78.59c0.31,0.18,0.31,0.48,0,0.66c-0.31,0.18-0.82,0.18-1.14,0
					c-0.31-0.18-0.31-0.48,0-0.66C282.9,78.4,283.41,78.4,283.72,78.59z"/>
				<path id="XMLID_11_" class="st0" d="M280.74,76.87c0.31,0.18,0.31,0.48,0,0.66c-0.31,0.18-0.82,0.18-1.14,0
					c-0.31-0.18-0.31-0.48,0-0.66C279.92,76.69,280.43,76.69,280.74,76.87z"/>
				<path id="XMLID_10_" class="st0" d="M277.77,75.15c0.31,0.18,0.31,0.48,0,0.66c-0.31,0.18-0.82,0.18-1.14,0
					c-0.31-0.18-0.31-0.48,0-0.66C276.94,74.97,277.45,74.97,277.77,75.15z"/>
				<path id="XMLID_9_" class="st0" d="M274.79,73.43c0.31,0.18,0.31,0.48,0,0.66c-0.31,0.18-0.82,0.18-1.14,0
					c-0.31-0.18-0.31-0.48,0-0.66C273.96,73.25,274.47,73.25,274.79,73.43z"/>
				<path id="XMLID_8_" class="st0" d="M271.78,71.69c0.31,0.18,0.31,0.48,0,0.66c-0.31,0.18-0.82,0.18-1.14,0
					c-0.31-0.18-0.31-0.48,0-0.66C270.96,71.51,271.47,71.51,271.78,71.69z"/>
				<path id="XMLID_20_" class="st0" d="M268.81,69.97c0.31,0.18,0.31,0.48,0,0.66c-0.31,0.18-0.82,0.18-1.14,0
					c-0.31-0.18-0.31-0.48,0-0.66C267.98,69.79,268.49,69.79,268.81,69.97z"/>
				<path id="XMLID_21_" class="st0" d="M265.83,68.25c0.31,0.18,0.31,0.48,0,0.66c-0.31,0.18-0.82,0.18-1.14,0
					c-0.31-0.18-0.31-0.48,0-0.66C265,68.07,265.51,68.07,265.83,68.25z"/>
				<path id="XMLID_22_" class="st0" d="M262.85,66.53c0.31,0.18,0.31,0.48,0,0.66c-0.31,0.18-0.82,0.18-1.14,0
					c-0.31-0.18-0.31-0.48,0-0.66C262.03,66.35,262.54,66.35,262.85,66.53z"/>
			</g>
			<g id="XMLID_23_">
				<path id="XMLID_25_" class="st0" d="M195.16,27.95c0.31,0.18,0.31,0.48,0,0.66c-0.31,0.18-0.82,0.18-1.14,0
					c-0.31-0.18-0.31-0.48,0-0.66C194.33,27.77,194.84,27.77,195.16,27.95z"/>
				<path id="XMLID_24_" class="st0" d="M192.18,26.23c0.31,0.18,0.31,0.48,0,0.66c-0.31,0.18-0.82,0.18-1.14,0
					c-0.31-0.18-0.31-0.48,0-0.66C191.35,26.05,191.86,26.05,192.18,26.23z"/>
				<path id="XMLID_26_" class="st0" d="M189.2,24.51c0.31,0.18,0.31,0.48,0,0.66c-0.31,0.18-0.82,0.18-1.14,0
					c-0.31-0.18-0.31-0.48,0-0.66C188.37,24.33,188.88,24.33,189.2,24.51z"/>
				<path id="XMLID_27_" class="st0" d="M186.2,22.78c0.31,0.18,0.31,0.48,0,0.66c-0.31,0.18-0.82,0.18-1.14,0
					c-0.31-0.18-0.31-0.48,0-0.66C185.37,22.6,185.88,22.6,186.2,22.78z"/>
				<path id="XMLID_28_" class="st0" d="M183.22,21.06c0.31,0.18,0.31,0.48,0,0.66c-0.31,0.18-0.82,0.18-1.14,0
					c-0.31-0.18-0.31-0.48,0-0.66C182.39,20.88,182.9,20.88,183.22,21.06z"/>
			</g>
			<g id="XMLID_42_">
				<path id="XMLID_41_" class="st0" d="M232.27,191.97c0.31,0.18,0.31,0.48,0,0.66c-0.31,0.18-0.82,0.18-1.14,0
					c-0.31-0.18-0.31-0.48,0-0.66C231.45,191.79,231.96,191.79,232.27,191.97z"/>
				<path id="XMLID_40_" class="st0" d="M229.27,190.24c0.31,0.18,0.31,0.48,0,0.66c-0.31,0.18-0.82,0.18-1.14,0
					c-0.31-0.18-0.31-0.48,0-0.66C228.44,190.05,228.95,190.05,229.27,190.24z"/>
				<path id="XMLID_39_" class="st0" d="M232.25,188.52c0.31,0.18,0.31,0.48,0,0.66c-0.31,0.18-0.82,0.18-1.14,0
					c-0.31-0.18-0.31-0.48,0-0.66C231.42,188.33,231.93,188.33,232.25,188.52z"/>
				<path id="XMLID_38_" class="st0" d="M226.29,188.52c0.31,0.18,0.31,0.48,0,0.66c-0.31,0.18-0.82,0.18-1.14,0
					c-0.31-0.18-0.31-0.48,0-0.66C225.47,188.33,225.97,188.33,226.29,188.52z"/>
				<path id="XMLID_37_" class="st0" d="M229.27,186.8c0.31,0.18,0.31,0.48,0,0.66c-0.31,0.18-0.82,0.18-1.14,0
					c-0.31-0.18-0.31-0.48,0-0.66C228.44,186.62,228.95,186.62,229.27,186.8z"/>
				<path id="XMLID_36_" class="st0" d="M232.25,185.08c0.31,0.18,0.31,0.48,0,0.66c-0.31,0.18-0.82,0.18-1.14,0
					c-0.31-0.18-0.31-0.48,0-0.66C231.42,184.9,231.93,184.9,232.25,185.08z"/>
				<path id="XMLID_35_" class="st0" d="M223.31,186.8c0.31,0.18,0.31,0.48,0,0.66c-0.31,0.18-0.82,0.18-1.14,0
					c-0.31-0.18-0.31-0.48,0-0.66C222.49,186.62,223,186.62,223.31,186.8z"/>
				<path id="XMLID_34_" class="st0" d="M226.29,185.08c0.31,0.18,0.31,0.48,0,0.66c-0.31,0.18-0.82,0.18-1.14,0
					c-0.31-0.18-0.31-0.48,0-0.66C225.47,184.9,225.97,184.9,226.29,185.08z"/>
				<path id="XMLID_33_" class="st0" d="M229.27,183.36c0.31,0.18,0.31,0.48,0,0.66c-0.31,0.18-0.82,0.18-1.14,0
					c-0.31-0.18-0.31-0.48,0-0.66C228.44,183.18,228.95,183.18,229.27,183.36z"/>
				<path id="XMLID_32_" class="st0" d="M232.25,181.64c0.31,0.18,0.31,0.48,0,0.66c-0.31,0.18-0.82,0.18-1.14,0
					c-0.31-0.18-0.31-0.48,0-0.66C231.42,181.46,231.93,181.46,232.25,181.64z"/>
			</g>
			<g id="XMLID_1000_">
				<path id="XMLID_47_" class="st0" d="M207.89,177.61c0.31,0.18,0.31,0.48,0,0.66c-0.31,0.18-0.82,0.18-1.14,0
					c-0.31-0.18-0.31-0.48,0-0.66C207.07,177.43,207.58,177.43,207.89,177.61z"/>
				<path id="XMLID_46_" class="st0" d="M210.87,175.89c0.31,0.18,0.31,0.48,0,0.66c-0.31,0.18-0.82,0.18-1.14,0
					c-0.31-0.18-0.31-0.48,0-0.66C210.05,175.71,210.56,175.71,210.87,175.89z"/>
				<path id="XMLID_45_" class="st0" d="M213.85,174.17c0.31,0.18,0.31,0.48,0,0.66c-0.31,0.18-0.82,0.18-1.14,0
					c-0.31-0.18-0.31-0.48,0-0.66C213.02,173.99,213.53,173.99,213.85,174.17z"/>
				<path id="XMLID_44_" class="st0" d="M216.83,172.45c0.31,0.18,0.31,0.48,0,0.66c-0.31,0.18-0.82,0.18-1.14,0
					c-0.31-0.18-0.31-0.48,0-0.66C216,172.27,216.51,172.27,216.83,172.45z"/>
				<path id="XMLID_43_" class="st0" d="M219.8,170.73c0.31,0.18,0.31,0.48,0,0.66c-0.31,0.18-0.82,0.18-1.14,0
					c-0.31-0.18-0.31-0.48,0-0.66C218.98,170.55,219.49,170.55,219.8,170.73z"/>
			</g>
		</g>
	</g>
	<g id="XMLID_4_">
		<g id="XMLID_996_">
			<g id="XMLID_29_">
				<path id="XMLID_571_" class="st0" d="M125.43,216.6c0.31,0.18,0.31,0.48,0,0.66c-0.31,0.18-0.82,0.18-1.14,0
					c-0.31-0.18-0.31-0.48,0-0.66C124.61,216.42,125.12,216.42,125.43,216.6z"/>
				<path id="XMLID_131_" class="st0" d="M128.41,214.88c0.31,0.18,0.31,0.48,0,0.66s-0.82,0.18-1.14,0c-0.31-0.18-0.31-0.48,0-0.66
					C127.59,214.7,128.1,214.7,128.41,214.88z"/>
				<ellipse id="XMLID_130_" class="st0" cx="130.82" cy="213.49" rx="0.81" ry="0.47"/>
				<path id="XMLID_129_" class="st0" d="M134.37,211.44c0.31,0.18,0.31,0.48,0,0.66c-0.31,0.18-0.82,0.18-1.14,0
					c-0.31-0.18-0.31-0.48,0-0.66C133.54,211.26,134.05,211.26,134.37,211.44z"/>
				<path id="XMLID_128_" class="st0" d="M137.34,209.72c0.31,0.18,0.31,0.48,0,0.66c-0.31,0.18-0.82,0.18-1.14,0
					c-0.31-0.18-0.31-0.48,0-0.66C136.52,209.54,137.03,209.54,137.34,209.72z"/>
				<path id="XMLID_107_" class="st0" d="M140.32,208c0.31,0.18,0.31,0.48,0,0.66c-0.31,0.18-0.82,0.18-1.14,0
					c-0.31-0.18-0.31-0.48,0-0.66C139.5,207.82,140.01,207.82,140.32,208z"/>
				<path id="XMLID_68_" class="st0" d="M143.3,206.28c0.31,0.18,0.31,0.48,0,0.66c-0.31,0.18-0.82,0.18-1.14,0
					c-0.31-0.18-0.31-0.48,0-0.66C142.48,206.1,142.99,206.1,143.3,206.28z"/>
				<path id="XMLID_67_" class="st0" d="M146.28,204.56c0.31,0.18,0.31,0.48,0,0.66c-0.31,0.18-0.82,0.18-1.14,0
					c-0.31-0.18-0.31-0.48,0-0.66C145.45,204.38,145.96,204.38,146.28,204.56z"/>
				<path id="XMLID_66_" class="st0" d="M122.45,214.88c0.31,0.18,0.31,0.48,0,0.66s-0.82,0.18-1.14,0s-0.31-0.48,0-0.66
					C121.63,214.7,122.14,214.7,122.45,214.88z"/>
				<path id="XMLID_65_" class="st0" d="M125.43,213.16c0.31,0.18,0.31,0.48,0,0.66c-0.31,0.18-0.82,0.18-1.14,0
					c-0.31-0.18-0.31-0.48,0-0.66C124.61,212.98,125.12,212.98,125.43,213.16z"/>
				<path id="XMLID_64_" class="st0" d="M128.41,211.44c0.31,0.18,0.31,0.48,0,0.66c-0.31,0.18-0.82,0.18-1.14,0
					c-0.31-0.18-0.31-0.48,0-0.66C127.59,211.26,128.1,211.26,128.41,211.44z"/>
				<path id="XMLID_63_" class="st0" d="M131.39,209.72c0.31,0.18,0.31,0.48,0,0.66c-0.31,0.18-0.82,0.18-1.14,0
					c-0.31-0.18-0.31-0.48,0-0.66C130.56,209.54,131.07,209.54,131.39,209.72z"/>
				<path id="XMLID_62_" class="st0" d="M134.37,208c0.31,0.18,0.31,0.48,0,0.66c-0.31,0.18-0.82,0.18-1.14,0
					c-0.31-0.18-0.31-0.48,0-0.66C133.54,207.82,134.05,207.82,134.37,208z"/>
				<path id="XMLID_61_" class="st0" d="M137.34,206.28c0.31,0.18,0.31,0.48,0,0.66c-0.31,0.18-0.82,0.18-1.14,0
					c-0.31-0.18-0.31-0.48,0-0.66C136.52,206.1,137.03,206.1,137.34,206.28z"/>
				<path id="XMLID_60_" class="st0" d="M140.32,204.56c0.31,0.18,0.31,0.48,0,0.66c-0.31,0.18-0.82,0.18-1.14,0
					c-0.31-0.18-0.31-0.48,0-0.66C139.5,204.38,140.01,204.38,140.32,204.56z"/>
				<path id="XMLID_59_" class="st0" d="M143.3,202.84c0.31,0.18,0.31,0.48,0,0.66c-0.31,0.18-0.82,0.18-1.14,0
					c-0.31-0.18-0.31-0.48,0-0.66C142.48,202.66,142.99,202.66,143.3,202.84z"/>
				<path id="XMLID_58_" class="st0" d="M119.48,213.16c0.31,0.18,0.31,0.48,0,0.66c-0.31,0.18-0.82,0.18-1.14,0s-0.31-0.48,0-0.66
					C118.65,212.98,119.16,212.98,119.48,213.16z"/>
				<path id="XMLID_57_" class="st0" d="M122.45,211.44c0.31,0.18,0.31,0.48,0,0.66c-0.31,0.18-0.82,0.18-1.14,0
					c-0.31-0.18-0.31-0.48,0-0.66C121.63,211.26,122.14,211.26,122.45,211.44z"/>
				<path id="XMLID_56_" class="st0" d="M125.43,209.72c0.31,0.18,0.31,0.48,0,0.66c-0.31,0.18-0.82,0.18-1.14,0
					c-0.31-0.18-0.31-0.48,0-0.66C124.61,209.54,125.12,209.54,125.43,209.72z"/>
				<path id="XMLID_55_" class="st0" d="M128.41,208c0.31,0.18,0.31,0.48,0,0.66c-0.31,0.18-0.82,0.18-1.14,0
					c-0.31-0.18-0.31-0.48,0-0.66C127.59,207.82,128.1,207.82,128.41,208z"/>
				<path id="XMLID_54_" class="st0" d="M131.39,206.28c0.31,0.18,0.31,0.48,0,0.66c-0.31,0.18-0.82,0.18-1.14,0
					c-0.31-0.18-0.31-0.48,0-0.66C130.56,206.1,131.07,206.1,131.39,206.28z"/>
				<path id="XMLID_53_" class="st0" d="M134.37,204.56c0.31,0.18,0.31,0.48,0,0.66c-0.31,0.18-0.82,0.18-1.14,0
					c-0.31-0.18-0.31-0.48,0-0.66S134.05,204.38,134.37,204.56z"/>
				<path id="XMLID_52_" class="st0" d="M137.34,202.84c0.31,0.18,0.31,0.48,0,0.66c-0.31,0.18-0.82,0.18-1.14,0
					c-0.31-0.18-0.31-0.48,0-0.66C136.52,202.66,137.03,202.66,137.34,202.84z"/>
				<path id="XMLID_51_" class="st0" d="M140.32,201.12c0.31,0.18,0.31,0.48,0,0.66c-0.31,0.18-0.82,0.18-1.14,0
					c-0.31-0.18-0.31-0.48,0-0.66C139.5,200.94,140.01,200.94,140.32,201.12z"/>
				<path id="XMLID_50_" class="st0" d="M116.5,211.44c0.31,0.18,0.31,0.48,0,0.66c-0.31,0.18-0.82,0.18-1.14,0
					c-0.31-0.18-0.31-0.48,0-0.66C115.67,211.26,116.18,211.26,116.5,211.44z"/>
				<path id="XMLID_49_" class="st0" d="M119.48,209.72c0.31,0.18,0.31,0.48,0,0.66c-0.31,0.18-0.82,0.18-1.14,0
					c-0.31-0.18-0.31-0.48,0-0.66C118.65,209.54,119.16,209.54,119.48,209.72z"/>
				<path id="XMLID_48_" class="st0" d="M122.45,208c0.31,0.18,0.31,0.48,0,0.66c-0.31,0.18-0.82,0.18-1.14,0
					c-0.31-0.18-0.31-0.48,0-0.66C121.63,207.82,122.14,207.82,122.45,208z"/>
				<path id="XMLID_31_" class="st0" d="M125.43,206.28c0.31,0.18,0.31,0.48,0,0.66c-0.31,0.18-0.82,0.18-1.14,0
					c-0.31-0.18-0.31-0.48,0-0.66C124.61,206.1,125.12,206.1,125.43,206.28z"/>
				<path id="XMLID_30_" class="st0" d="M128.41,204.56c0.31,0.18,0.31,0.48,0,0.66c-0.31,0.18-0.82,0.18-1.14,0
					c-0.31-0.18-0.31-0.48,0-0.66C127.59,204.38,128.1,204.38,128.41,204.56z"/>
				<path id="XMLID_69_" class="st0" d="M131.39,202.84c0.31,0.18,0.31,0.48,0,0.66c-0.31,0.18-0.82,0.18-1.14,0
					c-0.31-0.18-0.31-0.48,0-0.66C130.56,202.66,131.07,202.66,131.39,202.84z"/>
				<path id="XMLID_118_" class="st0" d="M134.37,201.12c0.31,0.18,0.31,0.48,0,0.66c-0.31,0.18-0.82,0.18-1.14,0
					c-0.31-0.18-0.31-0.48,0-0.66C133.54,200.94,134.05,200.94,134.37,201.12z"/>
				<path id="XMLID_987_" class="st0" d="M137.34,199.4c0.31,0.18,0.31,0.48,0,0.66c-0.31,0.18-0.82,0.18-1.14,0
					c-0.31-0.18-0.31-0.48,0-0.66C136.52,199.22,137.03,199.22,137.34,199.4z"/>
			</g>
			<g id="XMLID_1177_">
				<path id="XMLID_1325_" class="st0" d="M46.55,170.89c0.31,0.18,0.31,0.48,0,0.66c-0.31,0.18-0.82,0.18-1.14,0
					c-0.31-0.18-0.31-0.48,0-0.66C45.73,170.71,46.24,170.71,46.55,170.89z"/>
				<path id="XMLID_1324_" class="st0" d="M49.53,169.17c0.31,0.18,0.31,0.48,0,0.66c-0.31,0.18-0.82,0.18-1.14,0
					c-0.31-0.18-0.31-0.48,0-0.66C48.7,168.99,49.21,168.99,49.53,169.17z"/>
				<path id="XMLID_1323_" class="st0" d="M52.51,167.45c0.31,0.18,0.31,0.48,0,0.66c-0.31,0.18-0.82,0.18-1.14,0
					c-0.31-0.18-0.31-0.48,0-0.66C51.68,167.27,52.19,167.27,52.51,167.45z"/>
				<path id="XMLID_1309_" class="st0" d="M55.48,165.73c0.31,0.18,0.31,0.48,0,0.66c-0.31,0.18-0.82,0.18-1.14,0
					c-0.31-0.18-0.31-0.48,0-0.66C54.66,165.55,55.17,165.55,55.48,165.73z"/>
				<path id="XMLID_1205_" class="st0" d="M58.46,164.01c0.31,0.18,0.31,0.48,0,0.66c-0.31,0.18-0.82,0.18-1.14,0
					c-0.31-0.18-0.31-0.48,0-0.66C57.64,163.83,58.15,163.83,58.46,164.01z"/>
				<path id="XMLID_1203_" class="st0" d="M61.44,162.29c0.31,0.18,0.31,0.48,0,0.66c-0.31,0.18-0.82,0.18-1.14,0
					c-0.31-0.18-0.31-0.48,0-0.66C60.62,162.11,61.13,162.11,61.44,162.29z"/>
				<path id="XMLID_1202_" class="st0" d="M64.42,160.57c0.31,0.18,0.31,0.48,0,0.66c-0.31,0.18-0.82,0.18-1.14,0
					c-0.31-0.18-0.31-0.48,0-0.66C63.59,160.39,64.1,160.39,64.42,160.57z"/>
				<path id="XMLID_1201_" class="st0" d="M67.4,158.86c0.31,0.18,0.31,0.48,0,0.66c-0.31,0.18-0.82,0.18-1.14,0
					c-0.31-0.18-0.31-0.48,0-0.66C66.57,158.67,67.08,158.67,67.4,158.86z"/>
				<ellipse id="XMLID_1200_" class="st0" cx="43" cy="169.5" rx="0.81" ry="0.47"/>
				<path id="XMLID_1199_" class="st0" d="M46.55,167.45c0.31,0.18,0.31,0.48,0,0.66c-0.31,0.18-0.82,0.18-1.14,0
					c-0.31-0.18-0.31-0.48,0-0.66C45.73,167.27,46.24,167.27,46.55,167.45z"/>
				<path id="XMLID_1198_" class="st0" d="M49.53,165.73c0.31,0.18,0.31,0.48,0,0.66c-0.31,0.18-0.82,0.18-1.14,0
					c-0.31-0.18-0.31-0.48,0-0.66C48.7,165.55,49.21,165.55,49.53,165.73z"/>
				<path id="XMLID_1182_" class="st0" d="M52.51,164.01c0.31,0.18,0.31,0.48,0,0.66c-0.31,0.18-0.82,0.18-1.14,0
					c-0.31-0.18-0.31-0.48,0-0.66C51.68,163.83,52.19,163.83,52.51,164.01z"/>
				<path id="XMLID_1181_" class="st0" d="M55.48,162.29c0.31,0.18,0.31,0.48,0,0.66c-0.31,0.18-0.82,0.18-1.14,0
					c-0.31-0.18-0.31-0.48,0-0.66C54.66,162.11,55.17,162.11,55.48,162.29z"/>
				<path id="XMLID_1180_" class="st0" d="M58.46,160.57c0.31,0.18,0.31,0.48,0,0.66c-0.31,0.18-0.82,0.18-1.14,0
					c-0.31-0.18-0.31-0.48,0-0.66C57.64,160.39,58.15,160.39,58.46,160.57z"/>
				<path id="XMLID_1179_" class="st0" d="M61.44,158.86c0.31,0.18,0.31,0.48,0,0.66c-0.31,0.18-0.82,0.18-1.14,0
					c-0.31-0.18-0.31-0.48,0-0.66C60.62,158.67,61.13,158.67,61.44,158.86z"/>
				<path id="XMLID_1178_" class="st0" d="M64.42,157.14c0.31,0.18,0.31,0.48,0,0.66c-0.31,0.18-0.82,0.18-1.14,0
					c-0.31-0.18-0.31-0.48,0-0.66C63.59,156.95,64.1,156.95,64.42,157.14z"/>
			</g>
		</g>
	</g>
	<g id="XMLID_5_">
		<g id="XMLID_1002_">
			<g id="XMLID_1174_">
				<path id="XMLID_1173_" class="st0" d="M70.8,234.86c-0.31,0.18-0.31,0.48,0,0.66c0.31,0.18,0.82,0.18,1.14,0
					c0.31-0.18,0.31-0.48,0-0.66C71.62,234.68,71.11,234.68,70.8,234.86z"/>
				<path id="XMLID_1172_" class="st0" d="M73.78,233.14c-0.31,0.18-0.31,0.48,0,0.66c0.31,0.18,0.82,0.18,1.14,0
					c0.31-0.18,0.31-0.48,0-0.66C74.6,232.96,74.09,232.96,73.78,233.14z"/>
				<path id="XMLID_1004_" class="st0" d="M76.76,231.42c-0.31,0.18-0.31,0.48,0,0.66c0.31,0.18,0.82,0.18,1.14,0
					c0.31-0.18,0.31-0.48,0-0.66C77.58,231.24,77.07,231.24,76.76,231.42z"/>
			</g>
			<g id="XMLID_1176_">
				<path id="XMLID_1332_" class="st0" d="M96.35,220.18c-0.31,0.18-0.31,0.48,0,0.66c0.31,0.18,0.82,0.18,1.14,0
					c0.31-0.18,0.31-0.48,0-0.66C97.18,220,96.67,220,96.35,220.18z"/>
			</g>
			<g id="XMLID_1333_">
				<path id="XMLID_1339_" class="st0" d="M13.22,201.75c-0.31,0.18-0.31,0.48,0,0.66c0.31,0.18,0.82,0.18,1.14,0
					c0.31-0.18,0.31-0.48,0-0.66C14.05,201.57,13.54,201.57,13.22,201.75z"/>
			</g>
		</g>
	</g>
	<g id="XMLID_3663_">
		<g id="XMLID_3641_">
			<path id="XMLID_3640_" class="st0" d="M117.62,87.34c0.44,0.25,0.44,0.67,0,0.92c-0.44,0.25-1.15,0.25-1.59,0
				c-0.44-0.25-0.44-0.67,0-0.92C116.47,87.08,117.18,87.08,117.62,87.34z"/>
			<path id="XMLID_3621_" class="st0" d="M113.45,84.93c0.44,0.25,0.44,0.67,0,0.92c-0.44,0.25-1.15,0.25-1.59,0
				c-0.44-0.25-0.44-0.67,0-0.92C112.3,84.68,113.01,84.68,113.45,84.93z"/>
			<path id="XMLID_3620_" class="st0" d="M109.29,82.52c0.44,0.25,0.44,0.67,0,0.92c-0.44,0.25-1.15,0.25-1.59,0
				c-0.44-0.25-0.44-0.67,0-0.92C108.13,82.27,108.85,82.27,109.29,82.52z"/>
		</g>
	</g>
</g>
</svg>
