<?xml version="1.0" encoding="utf-8"?>
<!-- Generator: Adobe Illustrator 27.0.0, SVG Export Plug-In . SVG Version: 6.00 Build 0)  -->
<svg version="1.1" id="content_1_" xmlns="http://www.w3.org/2000/svg" xmlns:xlink="http://www.w3.org/1999/xlink" x="0px" y="0px"
	 viewBox="0 0 332.68 274.02" style="enable-background:new 0 0 332.68 274.02;" xml:space="preserve">
<style type="text/css">
	.st0{fill:#FFFFFF;}
	.st1{fill:#FFB0A4;}
	.st2{fill:#0D1858;}
	.st3{fill:#459CCF;}
	.st4{fill:#FFAFA3;}
	.st5{fill:#ED4B4D;}
	.st6{fill:#0C1859;}
	.st7{fill:#0D1857;}
</style>
<g id="illustration">
	<g id="XMLID_566_">
		<g id="XMLID_231_">
			<g id="XMLID_5256_">
				<g id="XMLID_659_">
					<polygon id="XMLID_660_" class="st0" points="31.06,104.62 34.16,102.72 34.37,98.68 31.06,98.47 					"/>
				</g>
				<g id="XMLID_657_">
					<polygon id="XMLID_658_" class="st0" points="27.15,96.51 31.54,93.74 31.86,99.6 27.53,99.15 					"/>
				</g>
				<g id="XMLID_5436_">
					<polygon id="XMLID_656_" class="st1" points="27.28,97.26 31.67,94.48 32,100.35 27.67,99.9 					"/>
				</g>
				<g id="XMLID_4415_">
					<path id="XMLID_653_" class="st2" d="M26.54,97.1l0.02,3.46l0.83,2.14l3.68,2.19l3.32-2.03l0.23-4.39l-2.59-0.17l-0.28-4.97
						l-4.72,2.98c-0.01,0.01-0.03,0.01-0.04,0.02c-0.03,0.02-0.05,0.04-0.07,0.05L26.9,96.4l0,0C26.68,96.57,26.54,96.82,26.54,97.1
						z M31.29,99.77l0.81,0.09l-0.06-1.1l2.09,0.14l-0.2,3.69l-2.64,1.62V99.77z M31.29,98.71l0.29,0.02l0.03,0.62l-0.33-0.03V98.71
						z M27.88,96.34c0,0-0.01,0-0.01-0.01l3.47-2.19l0.23,4.13l-0.43-0.03L27.88,96.34z"/>
				</g>
				<g id="XMLID_5433_">
					<g id="XMLID_4414_">
						<polygon id="XMLID_652_" class="st3" points="65.11,118.81 60.26,115.61 61.9,115.07 65.11,113.23 						"/>
					</g>
					<g id="XMLID_1157_">
						<path id="XMLID_650_" class="st2" d="M59.73,115.54l2.05-0.66l3.55-2.04v6.4L59.73,115.54z M61.97,115.29l-1.19,0.39l4.1,2.7
							v-4.75L61.97,115.29z"/>
					</g>
				</g>
				<g id="XMLID_5432_">
					<g id="XMLID_4410_">
						<path id="XMLID_649_" class="st3" d="M56.4,110.53l5.5,4.54l-2.73,1.62l-0.5-0.29c-0.95-0.55-1.82-0.41-2.22,0.36l-0.86,1.5
							c-0.27,0.53-0.24-0.32-0.89-0.7l-1.76,0.29l-1.63-0.02l-0.66-1.29L49,115.59l-9.41-5.44c-0.73-0.42-1.39-1.31-1.66-2.25
							c-0.22-0.75-1.48-1.62-2.07-1.95l-0.32-0.19c-0.78-0.45-1.41-1.54-1.41-2.44v-2.81L56.4,110.53z"/>
					</g>
					<g id="XMLID_1155_">
						<path id="XMLID_648_" class="st2" d="M55.07,118.33c-0.09-0.16-0.21-0.38-0.42-0.52l-1.71,0.28l-1.76-0.03l-0.69-1.36
							l-11.01-6.36c-0.78-0.45-1.48-1.39-1.77-2.38c-0.18-0.61-1.27-1.42-1.96-1.82l-0.32-0.18c-0.85-0.49-1.52-1.65-1.52-2.64
							v-3.16l22.59,10.15l5.81,4.79l-3.12,1.86l-0.62-0.36c-0.47-0.27-0.93-0.37-1.29-0.26c-0.26,0.08-0.47,0.26-0.61,0.54
							l-0.85,1.49c-0.05,0.09-0.15,0.29-0.35,0.29c0,0,0,0-0.01,0C55.25,118.66,55.16,118.5,55.07,118.33z M58.78,116.2l0.39,0.22
							l2.33-1.38l-5.23-4.32l-21.91-9.85v2.45c0,0.81,0.59,1.83,1.29,2.24l0.32,0.18c0.19,0.11,1.88,1.11,2.17,2.09
							c0.26,0.88,0.88,1.73,1.56,2.12l9.41,5.44l1.71,0.99l0.62,1.23l1.45,0.02l1.84-0.3l0.07,0.04c0.34,0.19,0.51,0.48,0.63,0.69
							l0.8-1.4c0.2-0.38,0.5-0.65,0.89-0.76c0.14-0.04,0.29-0.06,0.45-0.06C57.96,115.84,58.37,115.96,58.78,116.2z"/>
					</g>
				</g>
				<g id="XMLID_5411_">
					<g id="XMLID_5430_">
						<g id="XMLID_1123_">
							<path id="XMLID_647_" class="st0" d="M57.33,113.06L57.33,113.06c0.71-0.45,1.7-0.41,2.8,0.23c2.13,1.23,3.86,4.22,3.86,6.68
								c0,1.11-0.36,1.92-0.94,2.37l0,0L63,122.35c-0.1,0.07-0.2,0.13-0.31,0.18l-2.85,1.65l-2.29-2.63l-3.02-4.95v-1.94
								L57.33,113.06z"/>
						</g>
						<g id="XMLID_1116_">
							<path id="XMLID_646_" class="st4" d="M60.61,119.54l2.39-1.37c0.07,0.15,0.12,0.3,0.18,0.45l-2.19,1.26l-3.53,2.88l0.22,0.36
								l0.36,0.41l-0.02,0.02l0.13,0.21l-0.85-0.98l-0.22-0.36L60.61,119.54z"/>
						</g>
						<g id="XMLID_5431_">
							<path id="XMLID_645_" class="st4" d="M56.28,121.1l-2-3.27v-1.94l2.8-1.61l0,0c0.7-0.45,1.69-0.41,2.79,0.22
								c1.08,0.62,2.05,1.7,2.75,2.93L56.28,121.1z"/>
						</g>
						<g id="XMLID_643_">
							<path id="XMLID_644_" class="st2" d="M57.36,121.68l-3.06-5v-2.14l2.91-1.68l0.06-0.03c0.81-0.48,1.86-0.39,2.97,0.26
								c2.19,1.26,3.97,4.35,3.97,6.88c0,1.09-0.34,1.97-0.95,2.49l-0.08,0.06c0,0,0,0-0.01,0l-0.04,0.03
								c-0.11,0.08-0.22,0.15-0.33,0.19l-2.85,1.65L57.36,121.68z M62.9,122.15c0.55-0.41,0.85-1.19,0.85-2.18
								c0-2.38-1.68-5.29-3.74-6.48c-0.99-0.57-1.89-0.65-2.56-0.23l-0.16,0.1l-0.01-0.01l-2.53,1.46v1.74l2.97,4.86l2.17,2.48
								l2.7-1.56c0.1-0.04,0.19-0.1,0.28-0.16l0.01-0.01L62.9,122.15z"/>
						</g>
					</g>
					<g id="XMLID_5412_">
						<g id="XMLID_5429_">
							<g id="XMLID_1109_">
								<path id="XMLID_642_" class="st2" d="M53.41,117.16c0,2.46,1.73,5.45,3.86,6.68c2.13,1.23,3.86,0.23,3.86-2.23
									c0-2.46-1.73-5.45-3.86-6.68C55.13,113.7,53.41,114.7,53.41,117.16z"/>
							</g>
							<g id="XMLID_1096_">
								<path id="XMLID_641_" class="st2" d="M57.15,124.04c-2.19-1.26-3.97-4.35-3.97-6.88c0-1.27,0.44-2.23,1.24-2.69
									c0.8-0.46,1.85-0.37,2.96,0.27c2.19,1.26,3.97,4.35,3.97,6.88c0,1.28-0.44,2.23-1.24,2.7c-0.33,0.19-0.71,0.29-1.12,0.29
									C58.42,124.6,57.79,124.41,57.15,124.04z M54.65,114.86c-0.65,0.38-1.01,1.19-1.01,2.3c0,2.38,1.68,5.29,3.74,6.48
									c0.95,0.55,1.84,0.65,2.5,0.27c0.65-0.38,1.01-1.19,1.01-2.3c0-2.38-1.68-5.29-3.74-6.48c-0.57-0.33-1.12-0.5-1.61-0.5
									C55.21,114.64,54.91,114.71,54.65,114.86z"/>
							</g>
						</g>
						<g id="XMLID_5426_">
							<g id="XMLID_5427_">
								<path id="XMLID_640_" class="st3" d="M57.17,122.53c-1.48-0.85-2.68-2.93-2.68-4.63c0-0.87,0.3-1.52,0.85-1.84
									c0.55-0.32,1.26-0.25,2.02,0.18c1.48,0.85,2.68,2.93,2.68,4.63c0,0.87-0.3,1.52-0.85,1.84c-0.23,0.13-0.49,0.2-0.77,0.2
									C58.03,122.91,57.6,122.78,57.17,122.53z M55.53,116.39c-0.43,0.25-0.66,0.78-0.66,1.51c0,1.58,1.12,3.51,2.49,4.3
									c0.63,0.36,1.21,0.43,1.63,0.18c0.43-0.25,0.66-0.78,0.66-1.51c0-1.58-1.11-3.51-2.48-4.3c-0.38-0.22-0.74-0.33-1.06-0.33
									C55.9,116.24,55.7,116.29,55.53,116.39z"/>
							</g>
						</g>
						<g id="XMLID_5422_">
							<g id="XMLID_5423_">
								<path id="XMLID_639_" class="st3" d="M57.17,122.53c-1.48-0.85-2.68-2.93-2.68-4.63c0-1.19,0.57-1.96,1.5-2.03l0.17,0.3l0,0
									c-0.21,0.29-0.32,0.7-0.32,1.19c0,1.58,1.11,3.51,2.48,4.3c0.41,0.24,0.8,0.34,1.15,0.32l0.18-0.01l-0.02,0.32
									c-0.3,0.41-0.73,0.61-1.22,0.61C58.03,122.9,57.6,122.78,57.17,122.53z M58.13,122c-1.48-0.85-2.68-2.93-2.68-4.63
									c0-0.38,0.06-0.73,0.18-1.02c-0.48,0.21-0.76,0.76-0.76,1.55c0,1.58,1.11,3.51,2.49,4.3c0.66,0.38,1.26,0.43,1.68,0.15
									C58.74,122.29,58.44,122.18,58.13,122z"/>
							</g>
						</g>
						<g id="XMLID_5418_">
							<g id="XMLID_5419_">
								<path id="XMLID_638_" class="st3" d="M55.97,117.69c-0.04-0.07-0.05-0.15-0.03-0.22c0.02-0.08,0.07-0.14,0.14-0.18l1.53-0.9
									l0.1,0.07c1.31,0.95,2.3,2.76,2.34,4.32l0,0.11l-1.59,0.93L55.97,117.69z M57.57,116.84l-1.23,0.73l2.24,3.73l1.07-0.62
									C59.57,119.31,58.7,117.71,57.57,116.84z"/>
							</g>
						</g>
						<g id="XMLID_5413_">
							<g id="XMLID_5417_">
								<path id="XMLID_637_" class="st2" d="M55.65,118.54c0,1.07,0.75,2.37,1.68,2.9c0.93,0.53,1.68,0.1,1.68-0.97
									c0-1.07-0.75-2.37-1.68-2.9C56.4,117.04,55.65,117.47,55.65,118.54z"/>
							</g>
							<g id="XMLID_5414_">
								<path id="XMLID_636_" class="st3" d="M57.23,121.61c-0.98-0.56-1.77-1.94-1.77-3.07c0-0.59,0.21-1.03,0.59-1.25
									c0.38-0.22,0.87-0.18,1.38,0.12c0.98,0.56,1.77,1.94,1.77,3.07c0,0.59-0.21,1.03-0.59,1.25c-0.16,0.09-0.34,0.14-0.53,0.14
									C57.81,121.87,57.53,121.78,57.23,121.61z M56.24,117.62c-0.25,0.15-0.4,0.47-0.4,0.92c0,1.01,0.71,2.23,1.58,2.74
									c0.38,0.22,0.74,0.27,0.99,0.12c0.25-0.15,0.4-0.47,0.4-0.92c0-1.01-0.71-2.23-1.58-2.74c-0.23-0.14-0.46-0.2-0.65-0.2
									C56.45,117.54,56.34,117.57,56.24,117.62z"/>
							</g>
						</g>
					</g>
				</g>
				<g id="XMLID_5395_">
					<g id="XMLID_1088_">
						<g id="XMLID_1094_">
							<path id="XMLID_635_" class="st3" d="M71.52,104.93L71.52,104.93c0.71-0.45,1.7-0.41,2.8,0.23c2.13,1.23,3.86,4.22,3.86,6.68
								c0,1.11-0.36,1.92-0.94,2.37l0,0l-0.03,0.02c-0.1,0.07-0.2,0.13-0.31,0.18l-2.85,1.65l-2.29-2.63l-3.02-4.95v-1.94
								L71.52,104.93z"/>
						</g>
						<g id="XMLID_1093_">
							<path id="XMLID_634_" class="st0" d="M74.81,111.41l2.39-1.37c0.07,0.15,0.12,0.3,0.18,0.45l-2.19,1.26l-3.53,2.88l0.22,0.36
								l0.36,0.41l-0.02,0.02l0.13,0.21l-0.85-0.98l-0.22-0.36L74.81,111.41z"/>
						</g>
						<g id="XMLID_1092_">
							<path id="XMLID_633_" class="st0" d="M70.47,112.97l-2-3.27v-1.94l2.8-1.61l0,0c0.7-0.45,1.69-0.41,2.79,0.22
								c1.08,0.62,2.05,1.7,2.75,2.93L70.47,112.97z"/>
						</g>
						<g id="XMLID_1089_">
							<path id="XMLID_632_" class="st2" d="M71.55,113.55l-3.06-5v-2.14l2.91-1.68l0.06-0.03c0.81-0.48,1.86-0.39,2.97,0.26
								c2.19,1.26,3.97,4.35,3.97,6.88c0,1.09-0.34,1.97-0.95,2.49l-0.08,0.06c0,0,0,0-0.01,0l-0.04,0.03
								c-0.11,0.08-0.22,0.15-0.33,0.19l-2.82,1.63L71.55,113.55z M77.09,114.02c0.55-0.41,0.85-1.19,0.85-2.18
								c0-2.38-1.68-5.29-3.74-6.48c-0.99-0.57-1.89-0.65-2.56-0.23l-0.16,0.1l-0.01-0.01l-2.53,1.46v1.74l2.97,4.86l2.17,2.48
								l2.7-1.56c0.1-0.04,0.19-0.1,0.28-0.16l0.01-0.01L77.09,114.02z"/>
						</g>
					</g>
					<g id="XMLID_5396_">
						<g id="XMLID_628_">
							<g id="XMLID_1087_">
								<path id="XMLID_631_" class="st2" d="M67.6,109.03c0,2.46,1.73,5.45,3.86,6.68c2.13,1.23,3.86,0.23,3.86-2.23
									c0-2.46-1.73-5.45-3.86-6.68C69.33,105.57,67.6,106.57,67.6,109.03z"/>
							</g>
							<g id="XMLID_629_">
								<path id="XMLID_630_" class="st2" d="M71.34,115.91c-2.19-1.26-3.97-4.35-3.97-6.88c0-1.27,0.44-2.23,1.24-2.69
									c0.8-0.46,1.85-0.37,2.96,0.27c2.19,1.26,3.97,4.35,3.97,6.88c0,1.28-0.44,2.23-1.24,2.7c-0.33,0.19-0.71,0.29-1.12,0.29
									C72.61,116.47,71.99,116.28,71.34,115.91z M68.85,106.73c-0.65,0.38-1.01,1.19-1.01,2.3c0,2.38,1.68,5.29,3.74,6.48
									c0.95,0.55,1.84,0.65,2.5,0.27c0.65-0.38,1.01-1.19,1.01-2.3c0-2.38-1.68-5.29-3.74-6.48c-0.57-0.33-1.12-0.5-1.61-0.5
									C69.41,106.51,69.11,106.58,68.85,106.73z"/>
							</g>
						</g>
						<g id="XMLID_5410_">
							<g id="XMLID_624_">
								<path id="XMLID_625_" class="st3" d="M71.36,114.4c-1.48-0.85-2.68-2.93-2.68-4.63c0-0.87,0.3-1.52,0.85-1.84
									c0.55-0.32,1.26-0.25,2.02,0.18c1.48,0.85,2.68,2.93,2.68,4.63c0,0.87-0.3,1.52-0.85,1.84c-0.23,0.13-0.49,0.2-0.77,0.2
									C72.22,114.78,71.8,114.65,71.36,114.4z M69.73,108.26c-0.43,0.25-0.66,0.78-0.66,1.51c0,1.58,1.12,3.51,2.49,4.3
									c0.63,0.36,1.21,0.43,1.63,0.18c0.43-0.25,0.66-0.78,0.66-1.51c0-1.58-1.11-3.51-2.48-4.3c-0.38-0.22-0.74-0.33-1.06-0.33
									C70.09,108.11,69.9,108.16,69.73,108.26z"/>
							</g>
						</g>
						<g id="XMLID_5406_">
							<g id="XMLID_5407_">
								<path id="XMLID_623_" class="st3" d="M71.36,114.4c-1.48-0.85-2.68-2.93-2.68-4.63c0-1.19,0.58-1.96,1.5-2.03l0.17,0.3l0,0
									c-0.21,0.29-0.32,0.7-0.32,1.19c0,1.58,1.11,3.51,2.48,4.3c0.41,0.24,0.8,0.34,1.15,0.32l0.18-0.01l-0.02,0.32
									c-0.3,0.41-0.73,0.61-1.22,0.61C72.22,114.77,71.8,114.65,71.36,114.4z M72.32,113.87c-1.48-0.85-2.68-2.93-2.68-4.63
									c0-0.38,0.06-0.73,0.18-1.02c-0.48,0.21-0.76,0.76-0.76,1.55c0,1.58,1.11,3.51,2.49,4.3c0.66,0.38,1.26,0.43,1.68,0.15
									C72.94,114.16,72.63,114.05,72.32,113.87z"/>
							</g>
						</g>
						<g id="XMLID_5402_">
							<g id="XMLID_5403_">
								<path id="XMLID_622_" class="st3" d="M70.16,109.56c-0.04-0.07-0.05-0.15-0.03-0.22c0.02-0.08,0.07-0.14,0.14-0.18l1.53-0.9
									l0.1,0.07c1.31,0.95,2.3,2.76,2.34,4.32l0,0.11l-1.59,0.93L70.16,109.56z M71.77,108.71l-1.23,0.73l2.24,3.73l1.07-0.62
									C73.77,111.18,72.9,109.58,71.77,108.71z"/>
							</g>
						</g>
						<g id="XMLID_5397_">
							<g id="XMLID_5401_">
								<path id="XMLID_621_" class="st2" d="M69.85,110.41c0,1.07,0.75,2.37,1.68,2.9c0.93,0.53,1.68,0.1,1.68-0.97
									c0-1.07-0.75-2.37-1.68-2.9C70.6,108.91,69.85,109.34,69.85,110.41z"/>
							</g>
							<g id="XMLID_5398_">
								<path id="XMLID_8911_" class="st3" d="M71.43,113.48c-0.98-0.56-1.77-1.94-1.77-3.07c0-0.59,0.21-1.03,0.59-1.25
									c0.38-0.22,0.87-0.18,1.38,0.12c0.98,0.56,1.77,1.94,1.77,3.07c0,0.59-0.21,1.03-0.59,1.25c-0.16,0.09-0.34,0.14-0.53,0.14
									C72.01,113.74,71.72,113.65,71.43,113.48z M70.43,109.49c-0.25,0.15-0.4,0.47-0.4,0.92c0,1.01,0.71,2.23,1.58,2.74
									c0.38,0.22,0.74,0.27,0.99,0.12c0.25-0.15,0.39-0.47,0.39-0.92c0-1.01-0.71-2.23-1.58-2.74c-0.23-0.14-0.46-0.2-0.65-0.2
									C70.65,109.41,70.53,109.44,70.43,109.49z"/>
							</g>
						</g>
					</g>
				</g>
				<g id="XMLID_5389_">
					<g id="XMLID_5394_">
						<path id="XMLID_8906_" class="st0" d="M37.03,70.42l15.72-9.01c0.03-0.02,0.13-0.07,0.13-0.07l0.05-0.02
							c0.26-0.1,0.6-0.07,0.97,0.12l9.02,4.8c1.03,0.55,2.01,1.66,2.62,2.97l3.32,7.15c3.63,7.83,6.24,15.84,7.69,23.57l1.14,6.09
							l-15.77,9.05L51.24,94.09l-0.21-0.12c-0.62-0.36-1.12-1.23-1.12-1.94v-0.56L44.7,81.21L37.03,70.42z"/>
					</g>
					<g id="XMLID_5393_">
						<path id="XMLID_8904_" class="st1" d="M37.07,71.63l15.72-9.01c0.03-0.02,0.13-0.07,0.13-0.07l0.05-0.02
							c0.26-0.1,0.6-0.07,0.97,0.12l8.48,4.56c1.03,0.55,2.01,1.66,2.62,2.97l3.32,7.15c3.63,7.83,6.24,15.84,7.69,23.57l1.68,6.32
							l-14.65,7.18l-1.16,0.67L51.28,95.29l-0.21-0.12c-0.62-0.36-1.12-1.23-1.12-1.94v-0.56l-5.21-10.26L37.07,71.63z"/>
					</g>
					<g id="XMLID_5390_">
						<path id="XMLID_8900_" class="st2" d="M51.06,94.25l-0.15-0.09c-0.69-0.4-1.23-1.34-1.23-2.14v-0.5l-5.17-10.18L36.7,70.35
							l15.92-9.12c0.04-0.03,0.15-0.09,0.15-0.09l0.08-0.03c0.24-0.09,0.63-0.14,1.16,0.13l9.02,4.8c1.07,0.57,2.09,1.72,2.72,3.08
							l3.32,7.15c3.66,7.88,6.25,15.83,7.71,23.63l1.17,6.25l-16.05,9.18L51.06,94.25z M76.31,99.98
							c-1.45-7.76-4.03-15.67-7.67-23.52l-3.32-7.15c-0.59-1.27-1.53-2.34-2.52-2.87l-9.02-4.8c-0.29-0.15-0.56-0.19-0.8-0.11
							c0,0-0.07,0.04-0.12,0.07l-15.5,8.88l7.54,10.61l5.21,10.26l0.02,0.66c0,0.63,0.46,1.43,1.01,1.74l0.27,0.16L62,114.75
							l15.42-8.85L76.31,99.98z"/>
					</g>
				</g>
				<g id="XMLID_5383_">
					<g id="XMLID_5388_">
						<path id="XMLID_8897_" class="st0" d="M30.3,85l11.18-6.45c0.04-0.03,0.08-0.05,0.12-0.07l0,0l0,0
							c0.38-0.19,0.89-0.14,1.45,0.18l0.29,0.17c0.51,0.3,0.94,1.03,0.94,1.62v13.57c0,0.31-0.11,0.52-0.29,0.61l0,0l-11.18,6.43
							c-0.09,0.05-0.19,0-0.21-0.1c-0.28-1.53-2.07-11.37-2.07-11.64c0-0.3,0.81-2.8,0.81-2.8L30.3,85z"/>
					</g>
					<g id="XMLID_5387_">
						<path id="XMLID_8895_" class="st1" d="M30.25,86.14l11.18-6.45c0.04-0.03,0.08-0.05,0.12-0.07l0,0l0,0
							c0.38-0.19,0.89-0.14,1.45,0.18l0.29,0.17c0.51,0.3,0.07,0.39,0.07,0.39s-12.46,7.49-12.46,7.22
							C30.89,87.28,30.25,86.14,30.25,86.14z"/>
					</g>
					<g id="XMLID_5384_">
						<path id="XMLID_620_" class="st2" d="M32.57,101.28c-0.11-0.05-0.19-0.15-0.21-0.27c-0.62-3.42-2.08-11.4-2.08-11.68
							c0-0.29,0.56-2.07,0.79-2.77l-1.1-1.64l11.37-6.56c0.05-0.03,0.1-0.06,0.15-0.09c0.47-0.23,1.06-0.16,1.66,0.19l0.29,0.17
							c0.59,0.34,1.05,1.14,1.05,1.82v13.58c0,0.38-0.15,0.67-0.4,0.81l-11.18,6.43c-0.06,0.03-0.12,0.05-0.19,0.05
							C32.67,101.32,32.62,101.3,32.57,101.28z M41.7,78.69c-0.03,0.02-0.06,0.03-0.11,0.06l-10.96,6.32l0.95,1.42l-0.03,0.11
							c-0.39,1.2-0.79,2.55-0.8,2.73c0.02,0.29,1.04,5.95,2.05,11.48l11.08-6.38c0.11-0.06,0.17-0.21,0.17-0.41V80.45
							c0-0.51-0.38-1.17-0.82-1.42l-0.29-0.17c-0.3-0.17-0.58-0.26-0.83-0.26C41.95,78.6,41.82,78.63,41.7,78.69z"/>
					</g>
				</g>
				<g id="XMLID_5378_">
					<g id="XMLID_5382_">
						<path id="XMLID_619_" class="st2" d="M33,86.95v13.57c0,0.6-0.42,0.84-0.94,0.54l-1.49-0.86c-0.52-0.3-0.94-1.02-0.94-1.62
							V86.39c0-1.36,0.96-1.91,2.14-1.23l0.29,0.17C32.58,85.63,33,86.35,33,86.95z"/>
					</g>
					<g id="XMLID_5379_">
						<path id="XMLID_618_" class="st2" d="M31.95,101.26l-1.49-0.86c-0.59-0.34-1.05-1.14-1.05-1.82V86.39
							c0-0.74,0.26-1.31,0.74-1.58c0.48-0.27,1.1-0.22,1.74,0.15l0.29,0.17c0.59,0.34,1.05,1.14,1.05,1.82v13.57
							c0,0.37-0.14,0.66-0.39,0.8c-0.11,0.06-0.23,0.09-0.36,0.09C32.31,101.42,32.13,101.37,31.95,101.26z M30.38,85.21
							c-0.33,0.19-0.51,0.61-0.51,1.18v12.19c0,0.51,0.38,1.17,0.82,1.42l1.49,0.86c0.17,0.1,0.33,0.12,0.43,0.06
							c0.1-0.06,0.16-0.21,0.16-0.41V86.95c0-0.51-0.38-1.17-0.82-1.42l-0.29-0.17c-0.3-0.17-0.59-0.26-0.84-0.26
							C30.66,85.1,30.51,85.14,30.38,85.21z"/>
					</g>
				</g>
				<g id="XMLID_5348_">
					<g id="XMLID_5372_">
						<g id="XMLID_5377_">
							<path id="XMLID_617_" class="st0" d="M36.48,104.89L36.48,104.89c0.56-0.35,1.34-0.32,2.21,0.18
								c1.68,0.97,3.05,3.34,3.05,5.28c0,0.88-0.28,1.52-0.75,1.87l0,0l-0.03,0.02c-0.08,0.06-0.16,0.1-0.25,0.14l-2.25,1.3
								l-1.81-2.08l-2.39-3.91v-1.53L36.48,104.89z"/>
						</g>
						<g id="XMLID_5376_">
							<path id="XMLID_616_" class="st4" d="M40.89,108.56L40.89,108.56l-4.72,2.75l-1.62-2.65v-1.53l2.21-1.27l0,0
								c0.56-0.36,1.34-0.33,2.21,0.18c0.88,0.51,1.66,1.39,2.21,2.39C41.08,108.46,40.98,108.5,40.89,108.56z"/>
						</g>
						<g id="XMLID_5373_">
							<path id="XMLID_615_" class="st2" d="M36.46,111.73l-2.42-3.97v-1.73l2.33-1.34l0.08-0.04c0.01,0,0.01-0.01,0.02-0.01
								l0.06-0.03l0,0c0.63-0.31,1.45-0.22,2.28,0.26c1.74,1.01,3.16,3.46,3.16,5.48c0,0.86-0.26,1.56-0.74,1.98l0,0.01l-0.09,0.07
								c0,0,0,0,0,0l-0.03,0.02c-0.09,0.07-0.19,0.12-0.27,0.16l-2.41,1.4L36.46,111.73z M40.86,112.04
								c0.42-0.32,0.66-0.92,0.66-1.69c0-1.87-1.32-4.15-2.93-5.08c-0.76-0.44-1.46-0.51-1.97-0.18l-0.16,0.1l-0.01-0.01l-1.95,1.12
								v1.34l2.33,3.82l1.69,1.93l2.11-1.22c0.06-0.03,0.12-0.06,0.19-0.11L40.86,112.04z"/>
						</g>
					</g>
					<g id="XMLID_5349_">
						<g id="XMLID_5367_">
							<g id="XMLID_5371_">
								<path id="XMLID_614_" class="st2" d="M33.38,108.13c0,1.94,1.36,4.31,3.05,5.28c1.68,0.97,3.05,0.18,3.05-1.76
									c0-1.94-1.36-4.31-3.05-5.28C34.75,105.4,33.38,106.19,33.38,108.13z"/>
							</g>
							<g id="XMLID_5368_">
								<path id="XMLID_613_" class="st2" d="M36.32,113.61c-1.74-1.01-3.16-3.46-3.16-5.48c0-1.03,0.36-1.8,1.01-2.17
									c0.65-0.38,1.5-0.3,2.38,0.21c1.74,1.01,3.16,3.46,3.16,5.48c0,1.03-0.36,1.8-1.01,2.17c-0.27,0.16-0.58,0.23-0.91,0.23
									C37.34,114.06,36.83,113.91,36.32,113.61z M34.39,106.36c-0.5,0.29-0.78,0.92-0.78,1.77c0,1.87,1.32,4.15,2.93,5.08
									c0.74,0.43,1.42,0.5,1.92,0.21c0.5-0.29,0.78-0.92,0.78-1.77c0-1.87-1.32-4.15-2.93-5.08c-0.44-0.26-0.87-0.39-1.25-0.39
									C34.82,106.19,34.59,106.24,34.39,106.36z"/>
							</g>
						</g>
						<g id="XMLID_5363_">
							<g id="XMLID_5364_">
								<path id="XMLID_612_" class="st3" d="M36.34,112.42c-1.18-0.68-2.14-2.34-2.14-3.7c0-0.7,0.25-1.23,0.69-1.49
									c0.45-0.26,1.03-0.21,1.63,0.14c1.18,0.68,2.14,2.34,2.14,3.7c0,0.7-0.25,1.23-0.69,1.49c-0.19,0.11-0.4,0.16-0.63,0.16
									C37.03,112.72,36.69,112.62,36.34,112.42z M35.08,107.56c-0.32,0.19-0.5,0.6-0.5,1.16c0,1.24,0.87,2.75,1.94,3.37
									c0.48,0.28,0.93,0.33,1.25,0.14c0.32-0.19,0.5-0.6,0.5-1.15c0-1.24-0.87-2.75-1.94-3.37c-0.29-0.17-0.57-0.25-0.81-0.25
									C35.36,107.45,35.21,107.49,35.08,107.56z"/>
							</g>
						</g>
						<g id="XMLID_5359_">
							<g id="XMLID_5360_">
								<path id="XMLID_611_" class="st3" d="M36.34,112.41c-1.18-0.68-2.14-2.34-2.14-3.7c0-0.96,0.47-1.59,1.22-1.64l0.33,0.08
									l-0.17,0.23c-0.16,0.22-0.25,0.54-0.25,0.92c0,1.24,0.87,2.75,1.94,3.37c0.31,0.18,0.62,0.27,0.89,0.25l0.25-0.02
									l-0.08,0.32c-0.24,0.33-0.59,0.5-1,0.5C37.03,112.72,36.69,112.62,36.34,112.41z M37.1,111.99
									c-1.18-0.68-2.14-2.34-2.14-3.7c0-0.27,0.04-0.51,0.11-0.73c-0.31,0.19-0.49,0.59-0.49,1.14c0,1.24,0.87,2.75,1.94,3.37
									c0.46,0.27,0.88,0.32,1.2,0.17C37.52,112.2,37.31,112.12,37.1,111.99z"/>
							</g>
						</g>
						<g id="XMLID_5355_">
							<g id="XMLID_5356_">
								<path id="XMLID_610_" class="st3" d="M35.37,108.58c-0.04-0.06-0.05-0.14-0.03-0.21c0.02-0.07,0.06-0.13,0.13-0.17
									l1.23-0.73l0.1,0.07c1.05,0.76,1.83,2.21,1.86,3.45l0,0.11l-1.31,0.77L35.37,108.58z M36.67,107.93l-0.92,0.54l1.73,2.88
									l0.79-0.46C38.21,109.84,37.54,108.61,36.67,107.93z"/>
							</g>
						</g>
						<g id="XMLID_5350_">
							<g id="XMLID_5354_">
								<path id="XMLID_609_" class="st2" d="M35.16,109.23c0,0.84,0.59,1.87,1.32,2.29c0.73,0.42,1.32,0.08,1.32-0.76
									c0-0.84-0.59-1.87-1.32-2.29C35.75,108.04,35.16,108.38,35.16,109.23z"/>
							</g>
							<g id="XMLID_5351_">
								<path id="XMLID_608_" class="st3" d="M36.39,111.69c-0.8-0.46-1.42-1.54-1.42-2.46c0-0.48,0.17-0.84,0.48-1.02
									c0.31-0.18,0.71-0.15,1.13,0.09c0.8,0.46,1.42,1.54,1.42,2.46c0,0.48-0.17,0.84-0.48,1.02c-0.13,0.08-0.28,0.12-0.44,0.12
									C36.86,111.9,36.63,111.83,36.39,111.69z M35.64,108.54c-0.19,0.11-0.29,0.35-0.29,0.69c0,0.78,0.55,1.74,1.23,2.13
									c0.29,0.17,0.56,0.2,0.74,0.09c0.19-0.11,0.29-0.35,0.29-0.69c0-0.78-0.55-1.74-1.23-2.13c-0.18-0.1-0.35-0.16-0.5-0.16
									C35.8,108.47,35.71,108.49,35.64,108.54z"/>
							</g>
						</g>
					</g>
				</g>
				<g id="XMLID_5343_">
					<g id="XMLID_5347_">
						<path id="XMLID_607_" class="st2" d="M61.9,115.07l-1.14-6.09c-1.45-7.74-4.06-15.75-7.69-23.57l-3.32-7.15
							c-0.61-1.31-1.59-2.43-2.62-2.97l-9.02-4.8c-0.87-0.46-1.56-0.03-1.56,0.97V86.4c0,0.47-0.19,0.81-0.51,0.92l-1.36,0.46
							c-0.35,0.12-0.56,0.49-0.56,1.01v12.29c0,0.71,0.5,1.58,1.12,1.94l2.52,1.45c0.77,0.45,1.46,1.41,1.71,2.39l1.01,4.01
							c0.18,0.7,0.67,1.39,1.22,1.71l8.85,5.11c0.58,0.33,1.08,0.18,1.24-0.37l0.66-2.35c0.24-0.84,0.64-1.51,1.17-1.97
							c1.22-1.06,3.13-0.91,5.09,0.23L61.9,115.07z"/>
					</g>
					<g id="XMLID_5344_">
						<path id="XMLID_606_" class="st2" d="M50.45,117.88l-8.85-5.11c-0.6-0.35-1.13-1.09-1.33-1.85l-1.01-4.01
							c-0.24-0.93-0.88-1.84-1.6-2.25l-2.52-1.45c-0.69-0.4-1.23-1.34-1.23-2.14V88.78c0-0.62,0.27-1.08,0.72-1.23l1.36-0.46
							c0.22-0.08,0.35-0.33,0.35-0.7V71.46c0-0.58,0.2-1.02,0.57-1.24c0.36-0.22,0.83-0.19,1.32,0.07l9.02,4.8
							c1.07,0.57,2.09,1.72,2.72,3.08l3.32,7.15c3.66,7.88,6.25,15.83,7.71,23.63l1.17,6.25l-0.28,0.13l-3.26-1.9
							c-1.92-1.11-3.72-1.21-4.82-0.25c-0.51,0.44-0.88,1.07-1.1,1.86l-0.66,2.35c-0.09,0.31-0.28,0.54-0.54,0.65
							c-0.11,0.04-0.22,0.06-0.35,0.06C50.92,118.09,50.68,118.02,50.45,117.88z M58.84,113.03l2.74,1.6l-1.05-5.59
							c-1.45-7.76-4.03-15.67-7.67-23.52l-3.32-7.15c-0.59-1.27-1.53-2.34-2.52-2.87l-9.02-4.8c-0.34-0.18-0.65-0.21-0.87-0.08
							c-0.23,0.14-0.35,0.44-0.35,0.84V86.4c0,0.57-0.25,1-0.67,1.14l-1.36,0.46c-0.26,0.09-0.4,0.37-0.4,0.79v12.29
							c0,0.63,0.46,1.43,1,1.74l2.52,1.45c0.82,0.47,1.55,1.49,1.81,2.54l1.01,4.01c0.16,0.65,0.61,1.28,1.11,1.57l8.85,5.11
							c0.24,0.14,0.47,0.18,0.63,0.11c0.16-0.07,0.24-0.22,0.27-0.35l0.66-2.35c0.25-0.88,0.67-1.58,1.25-2.08
							c0.59-0.51,1.35-0.77,2.2-0.77C56.65,112.06,57.73,112.38,58.84,113.03z"/>
					</g>
				</g>
				<g id="XMLID_5338_">
					<g id="XMLID_5342_">
						<path id="XMLID_605_" class="st3" d="M38.79,74.11c0-0.65,0.45-0.93,1.01-0.63l6.38,3.39c1,0.53,2.21,2.16,2.8,3.43l2.27,4.87
							c3.52,7.58,6.05,15.34,7.45,22.83l0.47,2.43l-1.66-0.97c-1.67-0.91-3.1-0.99-4.34-0.66c-1.06,0.29-1.76,1.03-1.86,1.21
							c-0.15,0.26-0.47,0.3-0.81,0.1l-4.51-2.6c-0.47-0.27-0.88-0.89-0.97-1.47l-1.44-8.89c-0.08-0.52-0.37-1.07-0.76-1.47
							l-3.21-3.25c-0.49-0.5-0.82-1.23-0.82-1.83V74.11z"/>
					</g>
					<g id="XMLID_5339_">
						<path id="XMLID_604_" class="st2" d="M57.39,109.67c-1.46-0.79-2.82-1-4.17-0.64c-0.96,0.26-1.63,0.95-1.73,1.11
							c-0.22,0.37-0.67,0.45-1.12,0.19l-4.51-2.6c-0.53-0.31-0.98-0.98-1.08-1.63l-1.44-8.89c-0.08-0.47-0.34-0.98-0.7-1.34
							l-3.21-3.25c-0.54-0.54-0.88-1.33-0.88-2v-16.5c0-0.4,0.15-0.71,0.41-0.87c0.26-0.16,0.59-0.14,0.94,0.04l6.38,3.39
							c1.04,0.56,2.29,2.23,2.9,3.54l2.27,4.87c3.54,7.63,6.05,15.33,7.46,22.88l0.56,2.93L57.39,109.67z M57.62,109.27l1.22,0.71
							l-0.37-1.94c-1.4-7.51-3.9-15.17-7.43-22.77l-2.27-4.87c-0.56-1.21-1.75-2.82-2.69-3.33l-6.38-3.39
							c-0.2-0.1-0.37-0.12-0.48-0.05c-0.12,0.07-0.19,0.25-0.19,0.48v16.5c0,0.55,0.3,1.22,0.75,1.67l3.21,3.25
							c0.42,0.43,0.73,1.02,0.82,1.59l1.44,8.89c0.08,0.52,0.44,1.07,0.86,1.31l4.51,2.6c0.11,0.06,0.38,0.19,0.5-0.02
							c0.14-0.24,0.9-1.02,2-1.32c0.47-0.13,0.94-0.19,1.41-0.19C55.52,108.4,56.55,108.68,57.62,109.27z"/>
					</g>
				</g>
				<g id="XMLID_5331_">
					<g id="XMLID_5332_">
						<g id="XMLID_5337_">
							<path id="XMLID_603_" class="st0" d="M39.8,73.48l0.59,0.32v16.24c0,0.61,0.33,1.34,0.82,1.83l3.21,3.25
								c0.39,0.39,0.68,0.95,0.76,1.47l1.44,8.89c0.09,0.59,0.5,1.2,0.97,1.47l4.31,2.49c-0.33,0.25-0.54,0.49-0.6,0.58
								c-0.15,0.26-0.47,0.3-0.81,0.1l-4.51-2.6c-0.47-0.27-0.88-0.89-0.97-1.47l-1.44-8.89c-0.08-0.52-0.37-1.07-0.76-1.47
								l-3.21-3.25c-0.49-0.5-0.82-1.23-0.82-1.83v-16.5C38.79,73.45,39.24,73.17,39.8,73.48z"/>
						</g>
						<g id="XMLID_5336_">
							<path id="XMLID_602_" class="st4" d="M39.72,74.9l0.59,0.32v15.54c0,0.61,0.33,1.34,0.82,1.83l3.21,3.25
								c0.39,0.39,0.68,0.95,0.76,1.47l1.44,8.89c0.09,0.59,0.5,1.2,0.97,1.47l3.85,2.23c-0.33,0.25-0.45,0.37-0.5,0.46
								c-0.15,0.26-0.32-0.2-0.66-0.4l-4.02-2.14c-0.47-0.27-1.06-1.17-1.16-1.76l-1.33-7.16c-0.08-0.52-0.37-1.07-0.76-1.47
								l-3.4-3.49c-0.49-0.5-0.82-1.23-0.82-1.83V75.54C38.71,74.88,39.15,74.6,39.72,74.9z"/>
						</g>
						<g id="XMLID_5333_">
							<path id="XMLID_600_" class="st2" d="M50.38,110.32l-4.51-2.6c-0.53-0.31-0.98-0.98-1.08-1.63l-1.44-8.89
								c-0.08-0.47-0.34-0.98-0.7-1.34l-3.21-3.25c-0.54-0.54-0.88-1.33-0.88-2v-16.5c0-0.4,0.15-0.71,0.41-0.87
								c0.26-0.16,0.59-0.14,0.94,0.04l0.72,0.38v16.38c0,0.55,0.3,1.22,0.75,1.67l3.2,3.25c0.42,0.43,0.73,1.02,0.82,1.59
								l1.44,8.89c0.08,0.52,0.45,1.07,0.86,1.31l4.61,2.66l-0.28,0.21c-0.32,0.24-0.5,0.45-0.54,0.52
								c-0.13,0.22-0.35,0.34-0.6,0.34C50.74,110.48,50.56,110.43,50.38,110.32z M47.47,107.15c-0.53-0.31-0.97-0.98-1.08-1.63
								l-1.44-8.89c-0.08-0.47-0.34-0.98-0.7-1.34l-3.21-3.25c-0.54-0.54-0.88-1.33-0.88-2V73.93l-0.47-0.25
								c-0.2-0.1-0.37-0.12-0.48-0.05c-0.12,0.07-0.19,0.25-0.19,0.48v16.5c0,0.55,0.3,1.22,0.75,1.67l3.21,3.25
								c0.42,0.43,0.73,1.02,0.82,1.59l1.44,8.89c0.08,0.52,0.44,1.07,0.86,1.31l4.51,2.6c0.11,0.06,0.38,0.18,0.5-0.02
								c0.06-0.1,0.2-0.26,0.4-0.43L47.47,107.15z"/>
						</g>
					</g>
				</g>
				<g id="XMLID_5325_">
					<g id="XMLID_5330_">
						<path id="XMLID_599_" class="st3" d="M56.72,109.1c-0.1-0.04-0.21-0.08-0.31-0.12c-0.09-0.03-0.19-0.06-0.28-0.09
							c-0.07-0.02-0.15-0.04-0.22-0.06c-0.11-0.03-0.21-0.06-0.32-0.08c-0.01,0-0.03-0.01-0.03-0.01c-0.87-0.18-1.67-0.13-2.4,0.07
							l1.61-0.57c1.17-0.32,2.51-0.25,4.07,0.52l0.32,1.67l-1.66-0.97c-0.19-0.1-0.38-0.19-0.56-0.28
							C56.87,109.16,56.8,109.13,56.72,109.1z"/>
					</g>
					<g id="XMLID_5329_">
						<path id="XMLID_598_" class="st0" d="M55.66,108.76c-0.87-0.18-0.45-0.19-1.18,0.01l0.29-0.11c1.17-0.32,2.51-0.25,4.07,0.52
							l0.23,1.19l-1.43-0.77C57.45,109.5,55.66,108.76,55.66,108.76z"/>
					</g>
					<g id="XMLID_5326_">
						<path id="XMLID_597_" class="st2" d="M57.39,109.67c-0.19-0.1-0.37-0.19-0.55-0.27c-0.05-0.02-0.09-0.04-0.14-0.06l-0.08-0.03
							l-0.01-0.01c-0.09-0.04-0.19-0.08-0.28-0.11c-0.09-0.03-0.18-0.06-0.27-0.09c-0.07-0.02-0.14-0.04-0.21-0.06
							c-0.1-0.03-0.21-0.05-0.33-0.08c-0.78-0.16-1.56-0.14-2.3,0.06l-0.14-0.44l1.62-0.58c1.37-0.37,2.75-0.19,4.23,0.54l0.1,0.05
							l0.44,2.28L57.39,109.67z M54.96,108.42c0.23,0.02,0.46,0.05,0.69,0.1c0.11,0.02,0.22,0.05,0.33,0.08
							c0.07,0.02,0.15,0.04,0.23,0.06c0.09,0.03,0.19,0.06,0.29,0.09c0.1,0.04,0.2,0.08,0.3,0.12l0.02,0.01l0.07,0.03
							c0.05,0.02,0.1,0.04,0.16,0.07c0.19,0.08,0.38,0.18,0.58,0.29l1.22,0.71l-0.2-1.06C57.34,108.29,56.13,108.13,54.96,108.42z"
							/>
					</g>
				</g>
				<g id="XMLID_5316_">
					<g id="XMLID_5320_">
						<path id="XMLID_596_" class="st0" d="M42.73,70.26l-0.07-0.04L54,63.59l7.04,3.74c1.03,0.55,2.01,1.66,2.62,2.97l3.32,7.15
							c3.58,7.71,6.68,18.01,8.14,25.65l-12.32,7.33c-1.45-7.69-4.57-18.06-8.18-25.84l-3.32-7.15c-0.61-1.31-1.59-2.43-2.62-2.97
							l-6.89-3.66L42.73,70.26z"/>
					</g>
					<g id="XMLID_5317_">
						<path id="XMLID_595_" class="st2" d="M62.91,107.49c-1.46-7.72-4.03-15.58-7.64-23.38l-3.32-7.15
							c-0.59-1.27-1.53-2.34-2.52-2.87l-7.25-3.86l11.7-6.84L54,63.33l7.15,3.8c1.07,0.57,2.09,1.72,2.72,3.08l3.32,7.15
							c3.6,7.76,6.17,15.59,7.64,23.29l0.03,0.16l-11.88,7L62.91,107.49z M66.77,77.55l-3.32-7.15c-0.59-1.27-1.53-2.34-2.52-2.87
							l-6.93-3.68l-10.88,6.36l6.52,3.47c1.07,0.57,2.09,1.72,2.72,3.08l3.32,7.15c3.58,7.72,6.14,15.52,7.62,23.17l11.04-6.5
							C72.87,92.97,70.33,85.22,66.77,77.55z"/>
					</g>
				</g>
				<g id="XMLID_5309_">
					<g id="XMLID_5315_">
						<path id="XMLID_594_" class="st3" d="M72.57,99.61c-1.46-7.63-3.62-13.51-7.2-21.23l-3.32-7.15
							c-0.61-1.31-1.59-2.43-2.62-2.97l-5.15-2.81l-9.82,5.74l-1.81-0.96L54,63.59l7.04,3.74c1.03,0.55,2.01,1.66,2.62,2.97
							l3.32,7.15c3.58,7.71,6.16,15.61,7.62,23.24l-11.46,6.75c-0.13-0.67-0.27-1.35-0.42-2.03L72.57,99.61z"/>
					</g>
					<g id="XMLID_5314_">
						<path id="XMLID_593_" class="st0" d="M72.79,100.41l2.02,1.09l-11.46,6.75c-0.13-0.67-0.27-1.35-0.42-2.03L72.79,100.41z"/>
					</g>
					<g id="XMLID_5311_">
						<path id="XMLID_592_" class="st2" d="M62.91,107.49c-0.11-0.59-0.24-1.18-0.36-1.76l-0.09-0.43l9.86-5.81
							c-1.54-7.98-3.88-13.96-7.15-21.02l-3.32-7.15c-0.59-1.27-1.53-2.34-2.52-2.87l-5.04-2.75l-9.82,5.74l-2.29-1.22l11.7-6.84
							L54,63.33l7.15,3.8c1.07,0.57,2.09,1.72,2.72,3.08l3.32,7.15c3.6,7.76,6.17,15.59,7.64,23.29l0.03,0.16l-11.88,7L62.91,107.49
							z M66.77,77.55l-3.32-7.15c-0.59-1.27-1.53-2.34-2.52-2.87l-6.93-3.68l-10.88,6.36l1.34,0.71l9.82-5.74l5.26,2.87
							c1.07,0.57,2.09,1.72,2.72,3.08l3.32,7.15c3.31,7.13,5.67,13.18,7.22,21.28l0.03,0.16l-9.85,5.8l0.02,0.1
							c0.1,0.49,0.21,0.97,0.3,1.46l11.04-6.5C72.87,92.97,70.33,85.22,66.77,77.55z"/>
					</g>
					<g id="XMLID_5310_">
						<polygon id="XMLID_591_" class="st2" points="74.34,100.58 72.83,99.72 72.07,97.17 69.45,88.13 64.11,75.64 61.69,70.54 
							60.84,69.38 59.16,68.11 54.29,65.45 54,63.59 61.58,67.69 62.65,68.7 65.43,73.58 69.34,83.04 71.78,89.73 74.6,100.29 
													"/>
					</g>
				</g>
				<g id="XMLID_5307_">
					<g id="XMLID_5308_">
						
							<rect id="XMLID_590_" x="46.63" y="83.52" transform="matrix(0.7865 -0.6175 0.6175 0.7865 -45.1907 48.0144)" class="st2" width="0.46" height="11.72"/>
					</g>
				</g>
				<g id="XMLID_5305_">
					<g id="XMLID_5306_">
						
							<rect id="XMLID_589_" x="48.75" y="93.38" transform="matrix(0.7909 -0.6119 0.6119 0.7909 -48.961 50.1994)" class="st2" width="0.46" height="6.72"/>
					</g>
				</g>
				<g id="XMLID_5303_">
					<g id="XMLID_5304_">
						<polygon id="XMLID_588_" class="st2" points="54.42,99.33 54.78,99.05 51.6,95.01 51.24,95.29 						"/>
					</g>
				</g>
				<g id="XMLID_5301_">
					<g id="XMLID_5302_">
						
							<rect id="XMLID_587_" x="44.58" y="81.04" transform="matrix(0.7909 -0.612 0.612 0.7909 -40.9584 44.6223)" class="st2" width="0.46" height="2.4"/>
					</g>
				</g>
				<g id="XMLID_5295_">
					<g id="XMLID_5300_">
						<polygon id="XMLID_586_" class="st3" points="74.97,107.58 74.97,112.99 65.11,118.81 65.11,113.23 						"/>
					</g>
					<g id="XMLID_5299_">
						<polygon id="XMLID_585_" class="st0" points="75.05,108.79 75.05,112.85 65.19,118.67 65.19,114.45 						"/>
					</g>
					<g id="XMLID_5296_">
						<path id="XMLID_584_" class="st2" d="M64.88,113.1l10.32-5.92v5.94l-10.32,6.09V113.1z M74.74,107.97l-9.4,5.39v5.04l9.4-5.55
							V107.97z"/>
					</g>
				</g>
				<g id="XMLID_5284_">
					<g id="XMLID_5294_">
						<polygon id="XMLID_583_" class="st2" points="64.11,121.86 67.02,123.54 67.03,65.19 64.12,63.51 						"/>
					</g>
					<g id="XMLID_5293_">
						<polygon id="XMLID_582_" class="st0" points="68.34,64.38 67.03,65.19 64.12,63.51 65.43,62.7 						"/>
					</g>
					<g id="XMLID_5292_">
						<polygon id="XMLID_581_" class="st5" points="68.34,65 67.03,65.8 67.03,65.19 64.64,63.8 65.43,63.32 						"/>
					</g>
					<g id="XMLID_5285_">
						<g id="XMLID_5291_">
							<polygon id="XMLID_580_" class="st0" points="68.32,122.74 67.02,123.54 67.03,65.19 68.34,64.38 							"/>
						</g>
						<g id="XMLID_5286_">
							<path id="XMLID_8757_" class="st2" d="M63.88,121.99l3.14,1.81l1.53-0.94l0.02-58.61l-3.14-1.82l-1.53,0.94L63.88,121.99z
								 M67.89,64.39l-0.86,0.53l-1.8-1.04l-0.66-0.38l0.86-0.53L67.89,64.39z M67.25,123.13l0.01-46.02l0-11.8l0.85-0.52
								l-0.02,57.81L67.25,123.13z M66.79,123.14l-2.45-1.41l0.02-57.82l0.6,0.35l1.85,1.07l0,11.8L66.79,123.14z"/>
						</g>
					</g>
				</g>
				<g id="XMLID_5282_">
					<g id="XMLID_5283_">
						<polygon id="XMLID_579_" class="st2" points="52.83,74.39 59.26,70.47 59.06,70.15 52.64,74.06 						"/>
					</g>
				</g>
				<g id="XMLID_5280_">
					<g id="XMLID_5281_">
						<polygon id="XMLID_8750_" class="st2" points="56.33,70.73 58.01,69.71 57.81,69.38 56.13,70.41 						"/>
					</g>
				</g>
				<g id="XMLID_5278_">
					<g id="XMLID_5279_">
						
							<rect id="XMLID_8747_" x="54.61" y="71.03" transform="matrix(0.8488 -0.5287 0.5287 0.8488 -29.3225 39.8975)" class="st2" width="0.97" height="0.38"/>
					</g>
				</g>
				<g id="XMLID_5276_">
					<g id="XMLID_5277_">
						<polygon id="XMLID_578_" class="st2" points="58.04,86.87 62,84.37 61.8,84.04 57.84,86.54 						"/>
					</g>
				</g>
				<g id="XMLID_5274_">
					<g id="XMLID_5275_">
						
							<rect id="XMLID_577_" x="58.58" y="87.58" transform="matrix(0.8488 -0.5288 0.5288 0.8488 -37.4774 44.507)" class="st2" width="0.97" height="0.38"/>
					</g>
				</g>
				<g id="XMLID_576_">
					<path id="XMLID_8733_" class="st0" d="M29.87,97.94v0.55c0,0.51,0.38,1.17,0.82,1.42l0.2,0.11v0.53l-0.43-0.25
						c-0.59-0.34-1.05-1.14-1.05-1.82v-0.81L29.87,97.94z"/>
				</g>
				<g id="XMLID_5263_">
					<g id="XMLID_5273_">
						<polygon id="XMLID_8731_" class="st2" points="74.57,115.53 77.48,117.21 77.5,58.86 74.59,57.18 						"/>
					</g>
					<g id="XMLID_5272_">
						<polygon id="XMLID_8729_" class="st0" points="78.81,58.05 77.5,58.86 74.59,57.18 75.9,56.37 						"/>
					</g>
					<g id="XMLID_5271_">
						<polygon id="XMLID_8727_" class="st5" points="78.81,58.67 77.5,59.47 77.5,58.86 75.11,57.47 75.9,56.99 						"/>
					</g>
					<g id="XMLID_5264_">
						<g id="XMLID_5270_">
							<polygon id="XMLID_8725_" class="st0" points="78.79,116.41 77.48,117.21 77.5,58.86 78.81,58.05 							"/>
						</g>
						<g id="XMLID_5265_">
							<path id="XMLID_8719_" class="st2" d="M74.34,115.66l3.14,1.81l1.53-0.94l0.02-58.61L75.9,56.1l-1.53,0.94L74.34,115.66z
								 M78.36,58.06l-0.86,0.53l-1.8-1.04l-0.66-0.38l0.86-0.53L78.36,58.06z M77.71,116.8l0.01-46.02l0-11.8l0.85-0.52
								l-0.02,57.81L77.71,116.8z M77.25,116.81l-2.45-1.41l0.02-57.82l0.6,0.35l1.85,1.07l0,11.8L77.25,116.81z"/>
						</g>
					</g>
				</g>
				<g id="XMLID_5261_">
					<polygon id="XMLID_8715_" class="st3" points="74.7,115.47 74.36,115.72 74.34,115.71 74.34,114.11 74.71,113.89 					"/>
				</g>
				<g id="XMLID_5260_">
					<polygon id="XMLID_8713_" class="st3" points="74.7,100.04 74.35,100.29 74.34,98.81 74.71,98.59 					"/>
				</g>
				<g id="XMLID_5259_">
					<polygon id="XMLID_8711_" class="st0" points="64.23,74.78 63.88,75.02 63.9,71.02 64.24,70.8 					"/>
				</g>
				<g id="XMLID_574_">
					<polygon id="XMLID_575_" class="st0" points="66.97,90.06 66.63,90.3 66.65,86.3 66.98,86.08 					"/>
				</g>
			</g>
			<g id="XMLID_567_">
				<g id="XMLID_570_">
					<g id="XMLID_573_">
						<path id="XMLID_5775_" class="st0" d="M66.57,123.34l0.05-39l22.21-0.44l-0.05,38.82c0.08,0.24-0.02,0.49-0.32,0.67
							l-10.08,5.96c-0.52,0.31-1.44,0.28-2.05-0.06l-9.26-5.22C66.71,123.86,66.54,123.59,66.57,123.34z"/>
						<path id="XMLID_5776_" class="st6" d="M76.17,129.58l-9.26-5.22c-0.46-0.26-0.71-0.65-0.68-1.04L66.28,84l22.89-0.45
							l-0.05,39.12c0.1,0.39-0.09,0.77-0.49,1.01l-10.08,5.96c-0.3,0.17-0.68,0.26-1.09,0.26C77.01,129.9,76.54,129.79,76.17,129.58
							z M77.5,87.01l-0.11,42.21c0.31,0.01,0.61-0.04,0.82-0.17l10.08-5.96c0.22-0.13,0.18-0.23,0.17-0.27l-0.02-0.05l0.05-38.52
							L77.5,87.01z"/>
					</g>
					<g id="XMLID_572_">
						<path id="XMLID_5771_" class="st4" d="M78.43,90.22l10.08-5.96c0.52-0.31,0.45-0.84-0.16-1.18l-9.26-5.22
							c-0.61-0.34-1.53-0.37-2.05-0.06l-10.08,5.96c-0.52,0.31-0.45,0.84,0.16,1.18l9.26,5.22C77,90.5,77.91,90.53,78.43,90.22z"/>
						<path id="XMLID_5772_" class="st6" d="M76.22,90.45l-9.26-5.22c-0.43-0.24-0.68-0.59-0.68-0.96c0-0.33,0.18-0.62,0.52-0.82
							l10.08-5.96c0.63-0.37,1.68-0.34,2.39,0.06l9.26,5.22c0.43,0.24,0.68,0.59,0.68,0.96c0,0.33-0.18,0.62-0.52,0.82l-10.08,5.96
							c-0.3,0.17-0.69,0.26-1.09,0.26C77.07,90.77,76.6,90.67,76.22,90.45z M77.22,78.09l-10.08,5.96
							c-0.05,0.03-0.18,0.12-0.18,0.22c0,0.08,0.09,0.23,0.33,0.37l9.26,5.22c0.51,0.28,1.29,0.31,1.71,0.07l10.08-5.96
							c0.05-0.03,0.18-0.12,0.18-0.22c0-0.08-0.09-0.23-0.33-0.37l-9.26-5.22c-0.28-0.16-0.63-0.23-0.97-0.23
							C77.67,77.93,77.41,77.98,77.22,78.09z"/>
					</g>
				</g>
				<g id="XMLID_569_">
					<path id="XMLID_5767_" class="st0" d="M78.11,87.7l6.17-3.65c0.32-0.19,0.28-0.51-0.1-0.72l-5.67-3.2
						c-0.37-0.21-0.94-0.23-1.26-0.04l-6.17,3.65c-0.32,0.19-0.28,0.51,0.1,0.72l5.67,3.2C77.23,87.88,77.79,87.89,78.11,87.7z"/>
					<path id="XMLID_5768_" class="st6" d="M76.69,87.96l-5.67-3.2c-0.31-0.17-0.48-0.43-0.49-0.7c0-0.25,0.14-0.47,0.38-0.62
						l6.17-3.65c0.43-0.25,1.11-0.24,1.6,0.04l5.67,3.2c0.31,0.17,0.48,0.43,0.49,0.7c0,0.25-0.14,0.47-0.38,0.62L78.29,88
						c-0.2,0.12-0.47,0.18-0.74,0.18C77.25,88.18,76.94,88.11,76.69,87.96z M84.16,83.75c0-0.01-0.04-0.06-0.14-0.12l-5.67-3.2
						c-0.29-0.16-0.72-0.16-0.91-0.04l-6.22,3.66c0,0.01,0.04,0.07,0.14,0.12l5.67,3.2c0.29,0.16,0.72,0.16,0.91,0.04L84.16,83.75z"
						/>
				</g>
				<g id="XMLID_568_">
					<path id="XMLID_5751_" class="st7" d="M84.29,84.07l-1.03,0.61L78.52,82c-0.37-0.21-0.94-0.23-1.26-0.04l-5.14,3.04l-0.93-0.52
						c-0.37-0.21-0.42-0.53-0.1-0.72l6.17-3.65c0.32-0.19,0.88-0.17,1.26,0.04l5.67,3.2C84.56,83.55,84.61,83.88,84.29,84.07z"/>
					<path id="XMLID_5764_" class="st6" d="M71.02,84.78c-0.31-0.17-0.48-0.43-0.49-0.7c0-0.25,0.14-0.47,0.38-0.62l6.17-3.65
						c0.43-0.25,1.11-0.24,1.6,0.04l5.67,3.2c0.31,0.17,0.48,0.43,0.49,0.7c0,0.25-0.14,0.47-0.38,0.61l-1.2,0.71l-4.91-2.77
						c-0.29-0.16-0.72-0.16-0.91-0.04l-5.31,3.14L71.02,84.78z M78.68,81.7l4.57,2.57l0.86-0.51l0.05-0.01
						c0-0.01-0.04-0.06-0.14-0.12l-5.67-3.2c-0.29-0.16-0.72-0.16-0.91-0.04l-6.22,3.66c0,0.01,0.04,0.07,0.14,0.12l0.76,0.43
						l4.97-2.94c0.2-0.12,0.46-0.18,0.74-0.18C78.12,81.49,78.43,81.56,78.68,81.7z"/>
				</g>
			</g>
			<g id="XMLID_562_">
				<polygon id="XMLID_563_" class="st0" points="66.4,122.54 66.05,122.36 66.07,85.47 66.4,85.68 				"/>
			</g>
		</g>
		<g id="XMLID_565_">
			<path id="XMLID_1170_" class="st7" d="M86.36,99.45l-0.01,1.18l-6.92,3.95l0-0.84l2.78-1.58l2.59-1.4l-5.35,1.96l0-0.85
				l5.36-4.19l-2.59,1.55l-2.78,1.58l0-0.83l6.92-3.95l-0.01,1.18l-5.7,4.39L86.36,99.45z"/>
			<path id="XMLID_1175_" class="st7" d="M86.35,101.95l-0.01,2.4l-0.68,0.39l0.01-1.45l-2.37,1.35L83.29,106l-0.68,0.39l0.01-1.38
				l-2.53,1.44l-0.01,1.47l-0.68,0.39l0.01-2.42L86.35,101.95z"/>
			<path id="XMLID_1341_" class="st7" d="M86.33,105.45l-0.01,1.51c0,0.61-0.17,1.13-0.5,1.55c-0.33,0.42-0.79,0.8-1.39,1.14
				l-3.04,1.74c-0.71,0.41-1.22,0.57-1.53,0.5c-0.31-0.07-0.46-0.41-0.46-1l0.01-1.48L86.33,105.45z M84.46,108.7
				c0.43-0.25,0.74-0.48,0.93-0.71c0.19-0.23,0.29-0.47,0.29-0.74l0-0.48l-5.62,3.2l0,0.48c0,0.18,0.03,0.31,0.09,0.38
				c0.14,0.14,0.51,0.04,1.12-0.31L84.46,108.7z"/>
			<path id="XMLID_1349_" class="st7" d="M86.3,109.86l-0.01,0.94l-6.92,3.95l0.01-0.94L86.3,109.86z"/>
			<path id="XMLID_1356_" class="st7" d="M86.29,113.05l-0.01,1.13l-6.93,5.27l0-0.89l1.32-0.98l0.01-1.45l-1.32,0.54l0.01-0.9
				L86.29,113.05z M81.35,115.86l-0.01,1.23l3.66-2.72v-0.01L81.35,115.86z"/>
		</g>
	</g>
</g>
</svg>
