<?xml version="1.0" encoding="utf-8"?>
<!-- Generator: Adobe Illustrator 27.0.0, SVG Export Plug-In . SVG Version: 6.00 Build 0)  -->
<svg version="1.1" id="content_1_" xmlns="http://www.w3.org/2000/svg" xmlns:xlink="http://www.w3.org/1999/xlink" x="0px" y="0px"
	 viewBox="0 0 332.68 274.02" style="enable-background:new 0 0 332.68 274.02;" xml:space="preserve">
<style type="text/css">
	.st0{fill:#FFFFFF;}
	.st1{fill:#FFA99D;}
	.st2{fill:#0D1756;}
	.st3{fill:#FFA89C;}
	.st4{fill:#459CCF;}
	.st5{fill:#0D1857;}
</style>
<g id="illustration">
	<g id="XMLID_1003_">
		<g id="XMLID_5658_">
			<g id="XMLID_3416_">
				<g id="XMLID_3456_">
					<g id="XMLID_3465_">
						<g id="XMLID_3524_">
							<path id="XMLID_12838_" class="st0" d="M305.64,87.18L180.42,15.77c-1.57-0.89-2.99-0.85-4-0.06l-6.14,3.68l4.55,6.47v97.08
								c0,4.07,2.5,8.8,5.59,10.56l116.93,66.68l6.02,8.57l5.8-3.48c1.26-0.63,2.07-2.23,2.07-4.54V97.74
								C311.23,93.67,308.73,88.95,305.64,87.18z"/>
						</g>
					</g>
					<g id="XMLID_3463_">
						<g id="XMLID_3464_">
							<path id="XMLID_12835_" class="st1" d="M276.01,82.03l-98.93-55.19l-1.66-3.81l4.62-2.77c1.02-0.79,2.43-0.84,4,0.06
								l120.08,68.37c1.72,0.98,3.25,2.88,4.28,5.07l0.15,0.63l-7.42,4.45L276.01,82.03z"/>
						</g>
					</g>
					<g id="XMLID_3461_">
						<g id="XMLID_3462_">
							<polygon id="XMLID_12832_" class="st1" points="309.38,98.15 302.64,102.15 303.24,104.67 309.38,100.89 							"/>
						</g>
					</g>
					<g id="XMLID_3457_">
						<g id="XMLID_3458_">
							<path id="XMLID_12827_" class="st2" d="M176.05,15.25c1.25-0.97,2.95-0.97,4.66,0.01l125.22,71.41
								c3.25,1.85,5.89,6.82,5.89,11.07v102.99c0,2.46-0.87,4.31-2.36,5.05l-6.27,3.76l-6.26-8.91l-116.81-66.62
								c-3.25-1.85-5.89-6.82-5.89-11.07V26.05l-4.8-6.84L176.05,15.25z M175.42,25.67v97.27c0,3.87,2.38,8.38,5.3,10.04
								l116.93,66.68l5.89,8.29l1.25-0.75l0.23-1.85l4.58-2.82c0.63-0.39,1.05-1.06,1.05-1.79c0,0,0-0.01,0-0.01V97.74
								c0-3.87-2.38-8.38-5.3-10.04L180.12,16.29c-1.29-0.74-2.48-0.77-3.4-0.06l-5.59,3.35L175.42,25.67z"/>
						</g>
					</g>
				</g>
				<g id="_x31_8_1_">
					<g id="XMLID_3454_">
						<g id="XMLID_3455_">
							<path id="XMLID_12823_" class="st2" d="M210.8,174.92l25.39-14.41c2.46-1.4,6.59-1.24,9.41,0.36l15.45,8.81l7.34,3.28v3.36
								h-0.05c-0.17,0.87-0.78,1.64-1.77,2.21l-31.28,17.78c-1.12,0.64-2.6,0.95-4.13,0.95c-1.83,0-3.74-0.44-5.27-1.32l-20.33-11.6
								c-1.48-0.84-2.35-1.96-2.45-3.23c0-0.11-0.01-0.21,0-0.27v-2.72L210.8,174.92z"/>
						</g>
					</g>
					<g id="XMLID_3445_">
						<g id="XMLID_3452_">
							<g id="XMLID_3453_">
								<path id="XMLID_12820_" class="st0" d="M266.27,175.43l-31.28,17.78c-2.26,1.29-6.21,1.13-8.82-0.36l-20.33-11.6
									c-2.61-1.49-2.89-3.74-0.63-5.03l31.28-17.78c2.26-1.29,6.21-1.13,8.82,0.36l20.33,11.6
									C268.24,171.89,268.53,174.14,266.27,175.43z"/>
							</g>
						</g>
						<g id="XMLID_3450_">
							<g id="XMLID_3451_">
								<path id="XMLID_12817_" class="st1" d="M208.63,178.82l8.5-5.03c2.78-1.64,6.22-1.67,9.02-0.08l21.3,12.18l-12.87,7.31
									c-2.26,1.29-6.21,1.13-8.82-0.36l-16.5-8.99C206.66,182.36,206.37,180.11,208.63,178.82z"/>
							</g>
						</g>
						<g id="XMLID_3446_">
							<g id="XMLID_3447_">
								<path id="XMLID_12812_" class="st2" d="M231.14,194.68c1.54,0,3.01-0.32,4.13-0.96l31.28-17.77
									c1.18-0.67,1.82-1.63,1.82-2.7c0-1.24-0.9-2.47-2.46-3.36l-20.33-11.59c-2.82-1.6-6.94-1.76-9.41-0.36l-31.28,17.78
									c-1.18,0.67-1.83,1.63-1.83,2.7c0,1.24,0.9,2.47,2.46,3.36l20.33,11.6C227.4,194.23,229.32,194.68,231.14,194.68z
									 M265.97,174.91l-31.28,17.77c-2.09,1.2-5.78,1.03-8.23-0.36l-20.33-11.6c-1.18-0.67-1.86-1.52-1.86-2.33
									c0-0.8,0.67-1.35,1.23-1.67l31.28-17.78c2.1-1.19,5.79-1.03,8.23,0.36l20.33,11.59c1.18,0.67,1.86,1.52,1.86,2.33
									C267.2,174.05,266.53,174.6,265.97,174.91L265.97,174.91z"/>
							</g>
						</g>
					</g>
				</g>
				<g id="XMLID_3443_">
					<g id="XMLID_3444_">
						<path id="XMLID_12808_" class="st2" d="M170.27,18.68c1.21-0.7,2.73-0.6,4.27,0.28l125.22,71.41
							c3.25,1.85,5.89,6.82,5.89,11.07v102.99c0,2.3-0.93,3.33-1.71,3.78c-0.51,0.3-1.11,0.44-1.78,0.44
							c-1.06,0-2.29-0.37-3.56-1.09l-124.65-69.85c-3.25-1.85-5.89-6.82-5.89-11.07V23.65C168.06,21.31,168.87,19.49,170.27,18.68z"
							/>
					</g>
				</g>
				<g id="XMLID_3436_">
					<g id="XMLID_3441_">
						<g id="XMLID_3442_">
							<path id="XMLID_12805_" class="st0" d="M168.66,114.67v12.48c0,3.79,2.69,8.39,6.01,10.29l124.38,70.93
								c3.32,1.89,6.01,0.36,6.01-3.43v-12.48L168.66,114.67z"/>
						</g>
					</g>
					<g id="XMLID_3437_">
						<g id="XMLID_3438_">
							<path id="XMLID_12800_" class="st2" d="M301.74,209.78c0.68,0,1.32-0.16,1.88-0.49c1.31-0.76,2.04-2.31,2.04-4.35v-12.83
								l-0.3-0.17l-137.3-78.3v13.5c0,3.97,2.83,8.82,6.31,10.8l124.38,70.94C299.8,209.48,300.81,209.78,301.74,209.78z
								 M304.47,192.8v12.14c0,1.6-0.51,2.78-1.45,3.32c-0.95,0.55-2.25,0.41-3.68-0.41l-124.38-70.93
								c-3.15-1.8-5.71-6.18-5.71-9.77v-11.46L304.47,192.8z"/>
						</g>
					</g>
				</g>
				<g id="XMLID_3429_">
					<g id="XMLID_3434_">
						<g id="XMLID_3435_">
							<path id="XMLID_12796_" class="st0" d="M296.93,180.04L176.8,111.53c-1.09-0.62-1.97-2.29-1.97-3.72V29.14
								c0-1.44,0.88-2.1,1.97-1.47l120.13,68.51c1.09,0.62,1.97,2.29,1.97,3.72v78.66C298.9,180,298.02,180.66,296.93,180.04z"/>
						</g>
					</g>
					<g id="XMLID_3430_">
						<g id="XMLID_3431_">
							<path id="XMLID_12791_" class="st2" d="M297.71,180.87c0.29,0,0.56-0.07,0.81-0.22c0.62-0.36,0.97-1.12,0.97-2.09V99.9
								c0-1.65-1-3.51-2.27-4.24L177.09,27.16c-0.67-0.38-1.34-0.42-1.89-0.1c-0.62,0.36-0.97,1.12-0.97,2.09v78.66
								c0,1.65,1,3.51,2.27,4.24l120.13,68.51C297,180.77,297.37,180.87,297.71,180.87z M176.01,28.03c0.18,0,0.37,0.09,0.49,0.16
								l120.13,68.51c0.91,0.52,1.67,1.99,1.67,3.21v78.66c0,0.52-0.15,0.92-0.38,1.06c-0.23,0.13-0.54-0.01-0.7-0.1l-120.13-68.51
								c-0.91-0.52-1.67-1.99-1.67-3.21V29.14c0-0.52,0.15-0.92,0.38-1.06C175.86,28.05,175.94,28.03,176.01,28.03z"/>
						</g>
					</g>
				</g>
				<g id="XMLID_3423_">
					<g id="XMLID_3424_">
						<path id="XMLID_3428_" class="st1" d="M308.17,198.14l-1.63,0.94c-0.23,0.14-0.42-0.01-0.42-0.32v-5.09
							c0-0.31,0.19-0.68,0.42-0.81l1.63-0.94c0.23-0.14,0.42,0.01,0.42,0.32v5.09C308.59,197.64,308.4,198,308.17,198.14z"/>
						<path id="XMLID_3425_" class="st2" d="M307.15,197.67c-0.12,0-0.23-0.03-0.34-0.09c-0.24-0.14-0.37-0.41-0.37-0.74v-5.09
							c0-0.48,0.27-0.99,0.65-1.2l1.63-0.94c0.25-0.14,0.51-0.15,0.73-0.02c0.24,0.14,0.37,0.41,0.37,0.74v5.09
							c0,0.48-0.27,0.99-0.65,1.2l-1.63,0.94C307.42,197.63,307.28,197.67,307.15,197.67z M308.92,190.55l-1.37,0.79
							c-0.08,0.05-0.2,0.25-0.2,0.42v4.86l1.37-0.79c0.08-0.05,0.2-0.25,0.2-0.42V190.55z"/>
					</g>
				</g>
				<g id="XMLID_3421_">
					
						<rect id="XMLID_3422_" x="304.54" y="104.18" transform="matrix(0.8533 -0.5215 0.5215 0.8533 -9.3511 176.0381)" class="st2" width="7.22" height="0.91"/>
				</g>
				<g id="XMLID_3419_">
					
						<rect id="XMLID_3420_" x="174.89" y="18.04" transform="matrix(0.8533 -0.5215 0.5215 0.8533 16.5424 95.7939)" class="st2" width="7.22" height="0.91"/>
				</g>
				<g id="XMLID_3417_">
					
						<rect id="XMLID_3418_" x="304.54" y="185.79" transform="matrix(0.8533 -0.5214 0.5214 0.8533 -51.9058 187.9911)" class="st2" width="7.22" height="0.91"/>
				</g>
			</g>
			<g id="XMLID_3399_">
				<g id="XMLID_3415_">
					<path id="XMLID_5653_" class="st0" d="M283.84,121.67l-94.29-54.44c-1.35-0.78-2.44-2.86-2.44-4.66V49.29
						c0-1.79,1.09-2.62,2.44-1.84l94.29,54.44c1.35,0.78,2.44,2.86,2.44,4.66v13.29C286.28,121.63,285.19,122.45,283.84,121.67z"/>
					<path id="XMLID_5050_" class="st3" d="M291.37,131.05l-73.43-42.84c-1.35-0.78-2.44-2.86-2.44-4.66V70.26
						c0-1.79,1.09-2.62,2.44-1.84l73.43,42.84c1.35,0.78,2.44,2.86,2.44,4.65v13.29C293.81,131,292.72,131.83,291.37,131.05z"/>
					<path id="XMLID_5654_" class="st2" d="M284.81,122.31c-0.36,0-0.75-0.11-1.14-0.34l-94.29-54.44
						c-1.46-0.84-2.61-3.02-2.61-4.95V49.29c0-1.07,0.37-1.9,1.01-2.27c0.55-0.32,1.24-0.27,1.94,0.13l94.29,54.44
						c1.46,0.84,2.61,3.02,2.61,4.95v13.29c0,1.07-0.37,1.9-1.01,2.27C285.36,122.24,285.09,122.31,284.81,122.31z M188.58,47.49
						c-0.15,0-0.31,0.03-0.46,0.12c-0.43,0.25-0.67,0.86-0.67,1.67v13.29c0,1.68,1.02,3.64,2.27,4.36l94.29,54.44
						c0.34,0.2,0.83,0.37,1.25,0.13c0.43-0.25,0.67-0.86,0.67-1.67v-13.29c0-1.68-1.02-3.64-2.27-4.36l-94.29-54.44
						C189.16,47.61,188.87,47.49,188.58,47.49z"/>
				</g>
				<g id="XMLID_3414_">
					<path id="XMLID_5649_" class="st4" d="M207.51,67.62c0,3.79-2.66,5.32-5.94,3.43c-3.28-1.89-5.94-6.5-5.94-10.28
						s2.66-5.32,5.94-3.43C204.85,59.23,207.51,63.84,207.51,67.62z"/>
					<path id="XMLID_5650_" class="st2" d="M202.4,71.29c-0.87,0-1.83-0.29-2.82-0.86c-3.37-1.94-6.11-6.69-6.11-10.58
						c0-1.96,0.68-3.43,1.91-4.14c1.23-0.71,2.85-0.56,4.54,0.42c3.37,1.94,6.11,6.69,6.11,10.58c0,1.96-0.68,3.43-1.91,4.14
						C203.6,71.15,203.02,71.29,202.4,71.29z M197.09,55.95c-0.51,0-0.97,0.12-1.38,0.35c-1.01,0.58-1.57,1.84-1.57,3.55
						c0,3.67,2.59,8.15,5.77,9.99c1.47,0.85,2.84,1,3.86,0.42c1.01-0.58,1.57-1.84,1.57-3.55c0-3.67-2.59-8.15-5.77-9.99
						C198.69,56.21,197.85,55.95,197.09,55.95z"/>
				</g>
				<g id="XMLID_3413_">
					<path id="XMLID_5645_" class="st4" d="M215.19,99.25L190.4,84.94c-1.31-0.76-2.38-2.79-2.38-4.54v-3.88
						c0-1.75,1.06-2.56,2.38-1.8l24.79,14.31c1.31,0.76,2.38,2.79,2.38,4.54v3.88C217.57,99.2,216.5,100.01,215.19,99.25z"/>
					<path id="XMLID_5646_" class="st2" d="M215.22,97.14c-0.35,0-0.73-0.11-1.12-0.33L189.32,82.5c-1.43-0.82-2.55-2.95-2.55-4.84
						v-3.88c0-1.05,0.36-1.85,0.99-2.22c0.54-0.31,1.22-0.27,1.9,0.13L214.45,86c1.43,0.82,2.55,2.95,2.55,4.84v3.88
						c0,1.05-0.36,1.85-0.99,2.22C215.77,97.07,215.5,97.14,215.22,97.14z M214.45,96.22c0.33,0.19,0.8,0.36,1.21,0.13
						c0.41-0.24,0.65-0.83,0.65-1.63v-3.88c0-1.64-0.99-3.54-2.21-4.25l-24.79-14.31c-0.33-0.19-0.8-0.36-1.21-0.13
						c-0.41,0.24-0.65,0.83-0.65,1.63v3.88c0,1.64,0.99,3.54,2.21,4.25L214.45,96.22z"/>
				</g>
				<g id="XMLID_3411_">
					<path id="XMLID_5637_" class="st4" d="M284.78,139.43l-24.79-14.31c-1.31-0.76-2.38-2.79-2.38-4.54v-3.88
						c0-1.75,1.06-2.56,2.38-1.8l24.79,14.31c1.31,0.76,2.38,2.79,2.38,4.54v3.88C287.15,139.38,286.09,140.19,284.78,139.43z"/>
					<path id="XMLID_5638_" class="st2" d="M284.81,137.32c-0.36,0-0.73-0.11-1.12-0.33l-24.79-14.31
						c-1.43-0.83-2.55-2.95-2.55-4.84v-3.88c0-1.05,0.36-1.85,0.99-2.22c0.54-0.31,1.22-0.27,1.9,0.13l24.79,14.31
						c1.43,0.83,2.55,2.95,2.55,4.84v3.88c0,1.05-0.36,1.85-0.99,2.22C285.35,137.25,285.09,137.32,284.81,137.32z M258.14,112.21
						c-0.15,0-0.3,0.03-0.44,0.12c-0.41,0.24-0.65,0.83-0.65,1.63v3.88c0,1.64,0.99,3.54,2.21,4.25l24.79,14.31
						c0.33,0.19,0.8,0.36,1.21,0.13c0.41-0.24,0.65-0.83,0.65-1.63v-3.88c0-1.64-0.99-3.54-2.21-4.25l-24.79-14.31
						C258.69,112.33,258.42,112.21,258.14,112.21z"/>
				</g>
				<g id="XMLID_3405_">
					<path id="XMLID_3409_" class="st0" d="M248.85,144.94l-24.31-14.03c-1.45-0.83-2.62-3.07-2.62-5v-17.26
						c0-1.93,1.17-2.81,2.62-1.98l24.31,14.03c1.45,0.83,2.62,3.07,2.62,5v17.26C251.47,144.89,250.29,145.77,248.85,144.94z"/>
					<path id="XMLID_3406_" class="st2" d="M249.89,145.6c-0.39,0-0.8-0.12-1.21-0.36l-24.31-14.03c-1.56-0.9-2.79-3.23-2.79-5.3
						v-17.26c0-1.14,0.39-2.02,1.08-2.41c0.58-0.34,1.31-0.29,2.06,0.14l24.31,14.03c1.56,0.9,2.79,3.23,2.79,5.3v17.26
						c0,1.14-0.39,2.02-1.08,2.41C250.47,145.52,250.19,145.6,249.89,145.6z M223.5,106.69c-0.18,0-0.35,0.04-0.5,0.13
						c-0.47,0.27-0.73,0.93-0.73,1.82v17.26c0,1.82,1.1,3.93,2.45,4.71l24.31,14.03c0.53,0.3,1,0.35,1.37,0.14
						c0.47-0.27,0.73-0.93,0.73-1.82V125.7c0-1.82-1.1-3.93-2.45-4.71l-24.31-14.03C224.06,106.78,223.77,106.69,223.5,106.69z"/>
				</g>
				<g id="XMLID_3400_">
					<path id="XMLID_3404_" class="st0" d="M283.64,165.03L259.34,151c-1.45-0.83-2.62-3.07-2.62-5v-17.26
						c0-1.93,1.17-2.81,2.62-1.98l24.31,14.03c1.45,0.83,2.62,3.07,2.62,5v17.26C286.26,164.98,285.09,165.86,283.64,165.03z"/>
					<path id="XMLID_3401_" class="st2" d="M284.68,165.68c-0.39,0-0.8-0.12-1.21-0.36l-24.31-14.03c-1.56-0.9-2.79-3.23-2.79-5.3
						v-17.26c0-1.14,0.39-2.02,1.08-2.41c0.59-0.34,1.31-0.29,2.06,0.14l24.31,14.03c1.56,0.9,2.79,3.23,2.79,5.3v17.26
						c0,1.14-0.39,2.02-1.08,2.41C285.27,165.61,284.98,165.68,284.68,165.68z M283.81,164.73c0.53,0.3,1,0.35,1.37,0.14
						c0.47-0.27,0.73-0.93,0.73-1.82v-17.26c0-1.82-1.1-3.93-2.45-4.71l-24.31-14.03c-0.53-0.3-1-0.35-1.37-0.14
						c-0.47,0.27-0.73,0.93-0.73,1.82v17.26c0,1.82,1.1,3.93,2.45,4.71L283.81,164.73z"/>
				</g>
			</g>
		</g>
		<g id="XMLID_1001_">
			<g id="XMLID_7_">
				<path id="XMLID_19_" class="st5" d="M304.59,90.64c0.31,0.18,0.31,0.48,0,0.66c-0.31,0.18-0.82,0.18-1.14,0
					c-0.31-0.18-0.31-0.48,0-0.66C303.77,90.46,304.28,90.46,304.59,90.64z"/>
				<path id="XMLID_18_" class="st5" d="M301.61,88.92c0.31,0.18,0.31,0.48,0,0.66c-0.31,0.18-0.82,0.18-1.14,0
					c-0.31-0.18-0.31-0.48,0-0.66C300.79,88.74,301.3,88.74,301.61,88.92z"/>
				<path id="XMLID_17_" class="st5" d="M298.64,87.2c0.31,0.18,0.31,0.48,0,0.66c-0.31,0.18-0.82,0.18-1.14,0
					c-0.31-0.18-0.31-0.48,0-0.66C297.81,87.02,298.32,87.02,298.64,87.2z"/>
				<path id="XMLID_16_" class="st5" d="M295.63,85.46c0.31,0.18,0.31,0.48,0,0.66c-0.31,0.18-0.82,0.18-1.14,0
					c-0.31-0.18-0.31-0.48,0-0.66C294.81,85.28,295.32,85.28,295.63,85.46z"/>
				<path id="XMLID_15_" class="st5" d="M292.66,83.74c0.31,0.18,0.31,0.48,0,0.66c-0.31,0.18-0.82,0.18-1.14,0
					c-0.31-0.18-0.31-0.48,0-0.66C291.83,83.56,292.34,83.56,292.66,83.74z"/>
				<path id="XMLID_14_" class="st5" d="M289.68,82.02c0.31,0.18,0.31,0.48,0,0.66c-0.31,0.18-0.82,0.18-1.14,0
					c-0.31-0.18-0.31-0.48,0-0.66C288.85,81.84,289.36,81.84,289.68,82.02z"/>
				<path id="XMLID_13_" class="st5" d="M286.7,80.31c0.31,0.18,0.31,0.48,0,0.66c-0.31,0.18-0.82,0.18-1.14,0
					c-0.31-0.18-0.31-0.48,0-0.66C285.87,80.12,286.38,80.12,286.7,80.31z"/>
				<path id="XMLID_12_" class="st5" d="M283.72,78.59c0.31,0.18,0.31,0.48,0,0.66c-0.31,0.18-0.82,0.18-1.14,0
					c-0.31-0.18-0.31-0.48,0-0.66C282.9,78.4,283.41,78.4,283.72,78.59z"/>
				<path id="XMLID_11_" class="st5" d="M280.74,76.87c0.31,0.18,0.31,0.48,0,0.66c-0.31,0.18-0.82,0.18-1.14,0
					c-0.31-0.18-0.31-0.48,0-0.66C279.92,76.69,280.43,76.69,280.74,76.87z"/>
				<path id="XMLID_10_" class="st5" d="M277.77,75.15c0.31,0.18,0.31,0.48,0,0.66c-0.31,0.18-0.82,0.18-1.14,0
					c-0.31-0.18-0.31-0.48,0-0.66C276.94,74.97,277.45,74.97,277.77,75.15z"/>
				<path id="XMLID_9_" class="st5" d="M274.79,73.43c0.31,0.18,0.31,0.48,0,0.66c-0.31,0.18-0.82,0.18-1.14,0
					c-0.31-0.18-0.31-0.48,0-0.66C273.96,73.25,274.47,73.25,274.79,73.43z"/>
				<path id="XMLID_8_" class="st5" d="M271.78,71.69c0.31,0.18,0.31,0.48,0,0.66c-0.31,0.18-0.82,0.18-1.14,0
					c-0.31-0.18-0.31-0.48,0-0.66C270.96,71.51,271.47,71.51,271.78,71.69z"/>
				<path id="XMLID_20_" class="st5" d="M268.81,69.97c0.31,0.18,0.31,0.48,0,0.66c-0.31,0.18-0.82,0.18-1.14,0
					c-0.31-0.18-0.31-0.48,0-0.66C267.98,69.79,268.49,69.79,268.81,69.97z"/>
				<path id="XMLID_21_" class="st5" d="M265.83,68.25c0.31,0.18,0.31,0.48,0,0.66c-0.31,0.18-0.82,0.18-1.14,0
					c-0.31-0.18-0.31-0.48,0-0.66C265,68.07,265.51,68.07,265.83,68.25z"/>
				<path id="XMLID_22_" class="st5" d="M262.85,66.53c0.31,0.18,0.31,0.48,0,0.66c-0.31,0.18-0.82,0.18-1.14,0
					c-0.31-0.18-0.31-0.48,0-0.66C262.03,66.35,262.54,66.35,262.85,66.53z"/>
			</g>
			<g id="XMLID_23_">
				<path id="XMLID_25_" class="st5" d="M195.16,27.95c0.31,0.18,0.31,0.48,0,0.66c-0.31,0.18-0.82,0.18-1.14,0
					c-0.31-0.18-0.31-0.48,0-0.66C194.33,27.77,194.84,27.77,195.16,27.95z"/>
				<path id="XMLID_24_" class="st5" d="M192.18,26.23c0.31,0.18,0.31,0.48,0,0.66c-0.31,0.18-0.82,0.18-1.14,0
					c-0.31-0.18-0.31-0.48,0-0.66C191.35,26.05,191.86,26.05,192.18,26.23z"/>
				<path id="XMLID_26_" class="st5" d="M189.2,24.51c0.31,0.18,0.31,0.48,0,0.66c-0.31,0.18-0.82,0.18-1.14,0
					c-0.31-0.18-0.31-0.48,0-0.66C188.37,24.33,188.88,24.33,189.2,24.51z"/>
				<path id="XMLID_27_" class="st5" d="M186.2,22.78c0.31,0.18,0.31,0.48,0,0.66c-0.31,0.18-0.82,0.18-1.14,0
					c-0.31-0.18-0.31-0.48,0-0.66C185.37,22.6,185.88,22.6,186.2,22.78z"/>
				<path id="XMLID_28_" class="st5" d="M183.22,21.06c0.31,0.18,0.31,0.48,0,0.66c-0.31,0.18-0.82,0.18-1.14,0
					c-0.31-0.18-0.31-0.48,0-0.66C182.39,20.88,182.9,20.88,183.22,21.06z"/>
			</g>
			<g id="XMLID_42_">
				<path id="XMLID_41_" class="st5" d="M232.27,191.97c0.31,0.18,0.31,0.48,0,0.66c-0.31,0.18-0.82,0.18-1.14,0
					c-0.31-0.18-0.31-0.48,0-0.66C231.45,191.79,231.96,191.79,232.27,191.97z"/>
				<path id="XMLID_40_" class="st5" d="M229.27,190.24c0.31,0.18,0.31,0.48,0,0.66c-0.31,0.18-0.82,0.18-1.14,0
					c-0.31-0.18-0.31-0.48,0-0.66C228.44,190.05,228.95,190.05,229.27,190.24z"/>
				<path id="XMLID_39_" class="st5" d="M232.25,188.52c0.31,0.18,0.31,0.48,0,0.66c-0.31,0.18-0.82,0.18-1.14,0
					c-0.31-0.18-0.31-0.48,0-0.66C231.42,188.33,231.93,188.33,232.25,188.52z"/>
				<path id="XMLID_38_" class="st5" d="M226.29,188.52c0.31,0.18,0.31,0.48,0,0.66c-0.31,0.18-0.82,0.18-1.14,0
					c-0.31-0.18-0.31-0.48,0-0.66C225.47,188.33,225.97,188.33,226.29,188.52z"/>
				<path id="XMLID_37_" class="st5" d="M229.27,186.8c0.31,0.18,0.31,0.48,0,0.66c-0.31,0.18-0.82,0.18-1.14,0
					c-0.31-0.18-0.31-0.48,0-0.66C228.44,186.62,228.95,186.62,229.27,186.8z"/>
				<path id="XMLID_36_" class="st5" d="M232.25,185.08c0.31,0.18,0.31,0.48,0,0.66c-0.31,0.18-0.82,0.18-1.14,0
					c-0.31-0.18-0.31-0.48,0-0.66C231.42,184.9,231.93,184.9,232.25,185.08z"/>
				<path id="XMLID_35_" class="st5" d="M223.31,186.8c0.31,0.18,0.31,0.48,0,0.66c-0.31,0.18-0.82,0.18-1.14,0
					c-0.31-0.18-0.31-0.48,0-0.66C222.49,186.62,223,186.62,223.31,186.8z"/>
				<path id="XMLID_34_" class="st5" d="M226.29,185.08c0.31,0.18,0.31,0.48,0,0.66c-0.31,0.18-0.82,0.18-1.14,0
					c-0.31-0.18-0.31-0.48,0-0.66C225.47,184.9,225.97,184.9,226.29,185.08z"/>
				<path id="XMLID_33_" class="st5" d="M229.27,183.36c0.31,0.18,0.31,0.48,0,0.66c-0.31,0.18-0.82,0.18-1.14,0
					c-0.31-0.18-0.31-0.48,0-0.66C228.44,183.18,228.95,183.18,229.27,183.36z"/>
				<path id="XMLID_32_" class="st5" d="M232.25,181.64c0.31,0.18,0.31,0.48,0,0.66c-0.31,0.18-0.82,0.18-1.14,0
					c-0.31-0.18-0.31-0.48,0-0.66C231.42,181.46,231.93,181.46,232.25,181.64z"/>
			</g>
			<g id="XMLID_1000_">
				<path id="XMLID_47_" class="st5" d="M207.89,177.61c0.31,0.18,0.31,0.48,0,0.66c-0.31,0.18-0.82,0.18-1.14,0
					c-0.31-0.18-0.31-0.48,0-0.66C207.07,177.43,207.58,177.43,207.89,177.61z"/>
				<path id="XMLID_46_" class="st5" d="M210.87,175.89c0.31,0.18,0.31,0.48,0,0.66c-0.31,0.18-0.82,0.18-1.14,0
					c-0.31-0.18-0.31-0.48,0-0.66C210.05,175.71,210.56,175.71,210.87,175.89z"/>
				<path id="XMLID_45_" class="st5" d="M213.85,174.17c0.31,0.18,0.31,0.48,0,0.66c-0.31,0.18-0.82,0.18-1.14,0
					c-0.31-0.18-0.31-0.48,0-0.66C213.02,173.99,213.53,173.99,213.85,174.17z"/>
				<path id="XMLID_44_" class="st5" d="M216.83,172.45c0.31,0.18,0.31,0.48,0,0.66c-0.31,0.18-0.82,0.18-1.14,0
					c-0.31-0.18-0.31-0.48,0-0.66C216,172.27,216.51,172.27,216.83,172.45z"/>
				<path id="XMLID_43_" class="st5" d="M219.8,170.73c0.31,0.18,0.31,0.48,0,0.66c-0.31,0.18-0.82,0.18-1.14,0
					c-0.31-0.18-0.31-0.48,0-0.66C218.98,170.55,219.49,170.55,219.8,170.73z"/>
			</g>
		</g>
	</g>
</g>
</svg>
