<?xml version="1.0" encoding="utf-8"?>
<!-- Generator: Adobe Illustrator 27.0.0, SVG Export Plug-In . SVG Version: 6.00 Build 0)  -->
<svg version="1.1" id="content_1_" xmlns="http://www.w3.org/2000/svg" xmlns:xlink="http://www.w3.org/1999/xlink" x="0px" y="0px"
	 viewBox="0 0 332.68 274.02" style="enable-background:new 0 0 332.68 274.02;" xml:space="preserve">
<style type="text/css">
	.st0{fill:#FFFFFF;}
	.st1{fill:#0D1755;}
	.st2{fill:#FFA89C;}
	.st3{fill:#FFEECC;}
	.st4{fill:#FFA79B;}
	.st5{fill:#FFA69A;}
	.st6{fill:#0D1756;}
	.st7{fill:#0D1857;}
	.st8{fill:#E94A49;}
</style>
<g id="illustration">
	<g id="XMLID_268_">
		<g id="XMLID_471_">
			<g id="XMLID_480_">
				<g id="XMLID_487_">
					<path id="XMLID_559_" class="st0" d="M294.57,220.04L294.57,220.04l-0.01-2.88h-0.91c-0.69-1.06-1.76-2.06-3.24-2.91
						c-5.53-3.2-14.51-3.2-20.04,0c-1.48,0.85-2.55,1.85-3.24,2.91h-0.91v2.77c0,0.07,0,0.14,0,0.22v0.18c0,0,0.01,0.01,0.02,0.01
						c0.13,1.99,1.49,3.96,4.13,5.48c5.53,3.19,14.51,3.19,20.04,0C293.19,224.23,294.57,222.13,294.57,220.04L294.57,220.04
						L294.57,220.04z"/>
					<path id="XMLID_488_" class="st1" d="M280.4,228.47c-3.68,0-7.35-0.81-10.15-2.42c-2.56-1.48-4.07-3.46-4.25-5.59l-0.01-0.01
						l-0.02-0.31c0-0.07,0-0.15,0-0.22v-3.02h1.03c0.74-1.09,1.83-2.06,3.24-2.87c5.6-3.23,14.7-3.23,20.3,0
						c1.41,0.82,2.5,1.78,3.24,2.87h1.03l0.01,3.14c0,2.28-1.52,4.42-4.28,6.01C287.75,227.67,284.08,228.47,280.4,228.47z
						 M266.5,220.24l0.01,0.08c0.13,1.99,1.55,3.86,4,5.27c5.45,3.15,14.33,3.15,19.78,0c2.59-1.5,4.02-3.47,4.02-5.56l-0.01-2.61
						h-0.79l-0.08-0.12c-0.7-1.07-1.75-2.02-3.15-2.82c-5.45-3.15-14.33-3.15-19.78,0c-1.39,0.8-2.45,1.75-3.15,2.82l-0.08,0.12
						h-0.79v2.51c0,0.07,0,0.14,0,0.21V220.24z"/>
				</g>
				<g id="XMLID_481_">
					<path id="XMLID_486_" class="st0" d="M290.42,211.64c5.53,3.2,5.53,8.38,0,11.57c-5.53,3.2-14.51,3.2-20.04,0
						c-5.53-3.2-5.53-8.38,0-11.57C275.92,208.44,284.89,208.44,290.42,211.64z"/>
					<path id="XMLID_485_" class="st2" d="M290.31,212.9c5.53,3.2,5.53,8.38,0,11.57c-5.53,3.2-14.51,3.2-20.04,0
						c-5.53-3.19-5.53-8.38,0-11.57C275.8,209.71,284.78,209.71,290.31,212.9z"/>
					<path id="XMLID_482_" class="st1" d="M280.4,225.86c-3.68,0-7.35-0.81-10.15-2.42c-2.76-1.59-4.28-3.73-4.28-6.01
						c0-2.28,1.52-4.42,4.28-6.01c5.6-3.23,14.71-3.23,20.3,0c2.76,1.59,4.28,3.73,4.28,6.01c0,2.28-1.52,4.42-4.28,6.01
						C287.75,225.05,284.08,225.86,280.4,225.86z M280.4,209.5c-3.58,0-7.16,0.79-9.89,2.36c-2.59,1.5-4.02,3.47-4.02,5.56
						c0,2.09,1.43,4.06,4.02,5.56c5.45,3.15,14.33,3.15,19.78,0c2.59-1.5,4.02-3.47,4.02-5.56c0-2.09-1.43-4.06-4.02-5.56l0,0
						C287.56,210.29,283.98,209.5,280.4,209.5z"/>
				</g>
			</g>
			<g id="XMLID_474_">
				<g id="XMLID_475_">
					<path id="XMLID_479_" class="st0" d="M289.78,215.56L289.78,215.56l-0.29-122.83l-0.6-0.53c-0.46-0.7-1.16-0.83-2.14-1.39
						c-3.66-2.12-9.6-2.12-13.27,0c-0.98,0.56-1.69,1.22-2.14,1.93h-0.6l0.28,122.76c0,0.05,0,0.1,0,0.14v0.12
						c0,0,0.01,0.01,0.01,0.01c0.08,1.32,0.99,2.62,2.73,3.63c3.66,2.12,9.6,2.12,13.27,0
						C288.86,218.33,289.78,216.95,289.78,215.56L289.78,215.56L289.78,215.56z"/>
					<path id="XMLID_476_" class="st1" d="M280.4,221.23c-2.45,0-4.9-0.54-6.76-1.62c-1.71-0.99-2.72-2.31-2.85-3.74l-0.01-0.01
						l-0.01-0.38l-0.28-123.01h0.72c0.5-0.72,1.22-1.35,2.15-1.89c3.73-2.15,9.8-2.15,13.53,0c0.29,0.17,0.56,0.3,0.81,0.42
						c0.56,0.27,1.05,0.5,1.4,1.03l0.66,0.59l0.29,122.95c0,1.54-1.02,2.98-2.88,4.06C285.3,220.69,282.85,221.23,280.4,221.23z
						 M271.29,215.67l0.01,0.07c0.08,1.28,1.01,2.5,2.6,3.42c3.59,2.07,9.42,2.07,13,0c1.69-0.97,2.62-2.25,2.62-3.6l-0.29-122.71
						l-0.56-0.51c-0.28-0.42-0.67-0.61-1.21-0.87c-0.26-0.12-0.54-0.26-0.85-0.44c-3.58-2.07-9.42-2.07-13,0
						c-0.91,0.52-1.6,1.14-2.05,1.84L271.48,93H271L271.29,215.67z"/>
				</g>
			</g>
			<polygon id="XMLID_473_" class="st1" points="280.72,225.6 280.72,228.22 284.32,228.16 289.52,226.36 292.44,224.27 
				294.17,221.97 294.57,219.59 294.31,219.13 292.94,221.23 290.04,223.29 286.24,224.88 			"/>
			<polygon id="XMLID_472_" class="st1" points="281.56,92.38 281.84,220.98 284.5,220.43 286.91,219.3 288.68,218.1 289.67,216.21 
				289.49,92.73 			"/>
			<path id="XMLID_975_" class="st0" d="M286.71,217.77c1.09-0.63,1.88-1.39,2.36-2.21l-0.33-0.5c-0.4,0.84-1.18,1.62-2.29,2.26
				c-1.05,0.61-2.3,1.03-3.62,1.28l0.08,0.51C284.29,218.85,285.6,218.41,286.71,217.77z"/>
		</g>
		<g id="XMLID_1773_">
			<path id="XMLID_470_" class="st0" d="M225.35,62.27c-0.01-0.01-0.02-0.01-0.03-0.01L225.35,62.27l-0.06-0.03
				c-0.39-0.19-0.97-0.06-1.58,0.53c-0.47,0.45-0.8,1.04-0.95,1.68c-0.2,0.84,0,1.42,0.4,1.63l0.13,0.07l2.59,1.34l1.88-2.79
				l0.35-0.89c0.01-0.04,0-0.08-0.04-0.09L225.35,62.27z"/>
			<polygon id="XMLID_469_" class="st3" points="222.97,63.86 226.62,65.85 225.24,67.16 222.97,66.08 222.73,64.67 			"/>
			<path id="XMLID_466_" class="st1" d="M225.98,67.84l-2.94-1.52c-0.55-0.29-0.75-1.01-0.54-1.92c0.16-0.69,0.51-1.31,1.02-1.8
				c0.65-0.63,1.34-0.84,1.88-0.58l-0.03,0.15l0.07-0.14l0.03,0.02l2.73,1.44c0.15,0.08,0.22,0.26,0.16,0.42l-0.35,0.89
				L225.98,67.84z M224.93,62.43c-0.3,0-0.66,0.19-1.03,0.54c-0.43,0.42-0.74,0.97-0.88,1.55c-0.15,0.66-0.05,1.17,0.27,1.34
				l0.13,0.07l2.38,1.23l1.75-2.6l0.26-0.69l-2.63-1.39C225.1,62.45,225.02,62.43,224.93,62.43z"/>
			<g id="XMLID_1774_">
				<path id="XMLID_465_" class="st1" d="M228.53,64.71c0,0.99-0.7,2.2-1.56,2.69c-0.86,0.5-1.56,0.09-1.56-0.9
					c0-0.99,0.7-2.2,1.56-2.69C227.83,63.31,228.53,63.71,228.53,64.71z"/>
				<path id="XMLID_1775_" class="st1" d="M226.28,67.88c-0.19,0-0.37-0.05-0.54-0.14c-0.38-0.22-0.59-0.66-0.59-1.23
					c0-1.09,0.74-2.38,1.69-2.92c0.5-0.29,0.98-0.33,1.36-0.11c0.38,0.22,0.59,0.66,0.59,1.23c0,1.09-0.74,2.38-1.69,2.92
					C226.82,67.79,226.53,67.88,226.28,67.88z M227.66,63.86c-0.17,0-0.36,0.06-0.56,0.18c-0.77,0.45-1.42,1.58-1.42,2.47
					c0,0.38,0.12,0.66,0.32,0.78c0.21,0.12,0.51,0.08,0.84-0.11c0.77-0.45,1.42-1.58,1.42-2.47c0-0.38-0.12-0.66-0.32-0.78
					C227.86,63.88,227.77,63.86,227.66,63.86z"/>
			</g>
		</g>
		<g id="XMLID_1079_">
			<g id="XMLID_1081_">
				<g id="XMLID_1380_">
					<g id="XMLID_8755_">
						<path id="XMLID_1386_" class="st0" d="M226.98,100.4c-0.2-0.27-0.47-0.38-0.62-0.24c-0.11,0.1-0.24,0.18-0.38,0.24
							c-0.16,0.06-0.41-0.1-0.55-0.35l-0.11-0.2c-0.18-0.34-0.19-0.69,0-0.82l0.25-0.17c0.36-0.25,0.56-0.71,0.56-1.31v-1.35
							l-0.9-0.52l-0.65,0.43l0.26,1.72l-0.17,0.12c-0.36,0.25-0.46,0.83-0.29,1.49l-0.17,0.37l0.95,1.54l1.09,0.46l0.5-0.34
							c0.12-0.07,0.24-0.14,0.34-0.24C227.23,101.06,227.19,100.69,226.98,100.4z"/>
					</g>
					<g id="XMLID_1381_">
						<path id="XMLID_7784_" class="st1" d="M226.25,101.9l-1.18-0.49l-1-1.61l0.18-0.38c-0.17-0.7-0.04-1.29,0.34-1.56l0.12-0.08
							l-0.26-1.72l0.76-0.5l1.01,0.58v1.41c0,0.63-0.21,1.12-0.6,1.39l-0.25,0.17c-0.12,0.08-0.14,0.37,0.03,0.69l0.11,0.2
							c0.12,0.22,0.33,0.34,0.43,0.3c0.13-0.05,0.25-0.12,0.35-0.22c0.07-0.07,0.16-0.1,0.27-0.09c0.17,0.02,0.36,0.14,0.5,0.34l0,0
							c0.25,0.34,0.28,0.76,0.08,0.94c-0.1,0.09-0.22,0.17-0.37,0.25L226.25,101.9z M225.21,101.25l1.01,0.42l0.45-0.31
							c0.15-0.08,0.25-0.15,0.33-0.23c0.11-0.1,0.08-0.41-0.11-0.67c-0.11-0.15-0.25-0.25-0.36-0.26c-0.05,0-0.08,0.01-0.11,0.03
							c-0.12,0.11-0.26,0.2-0.41,0.26c-0.21,0.08-0.52-0.1-0.68-0.4l-0.11-0.2c-0.21-0.39-0.2-0.79,0.03-0.95l0.25-0.17
							c0.33-0.23,0.51-0.66,0.51-1.22v-1.29l-0.8-0.46l-0.55,0.36l0.26,1.71l-0.22,0.16c-0.32,0.22-0.41,0.75-0.25,1.38l0.01,0.04
							l-0.16,0.35L225.21,101.25z"/>
					</g>
				</g>
				<g id="XMLID_1082_">
					<g id="XMLID_1378_">
						<path id="XMLID_1379_" class="st0" d="M225.32,100.82c-0.16,0.06-0.42-0.1-0.55-0.35l-0.11-0.2c-0.18-0.34-0.19-0.69,0-0.82
							l0.25-0.17c0.36-0.25,0.56-0.71,0.56-1.31v-1.35l-0.9-0.52v1.35c0,0.33-0.11,0.6-0.32,0.74l-0.25,0.17
							c-0.5,0.35-0.49,1.31,0.01,2.23l0.11,0.2c0.25,0.46,0.6,0.82,0.95,1.03c0.3,0.17,0.6,0.23,0.84,0.14
							c0.19-0.08,0.37-0.18,0.51-0.32c0.16-0.15,0.12-0.51-0.1-0.81l0,0c-0.2-0.27-0.47-0.38-0.62-0.24
							C225.59,100.69,225.47,100.77,225.32,100.82z"/>
					</g>
					<g id="XMLID_1111_">
						<path id="XMLID_7777_" class="st1" d="M225.65,102.1c-0.2,0-0.42-0.07-0.64-0.2c-0.38-0.22-0.74-0.61-0.99-1.07l-0.11-0.2
							c-0.53-0.97-0.52-1.98,0.02-2.36l0.25-0.17c0.18-0.13,0.28-0.36,0.28-0.66v-1.53l1.11,0.64v1.41c0,0.63-0.21,1.12-0.6,1.39
							l-0.25,0.17c-0.12,0.08-0.14,0.37,0.03,0.69l0.11,0.2c0.12,0.22,0.33,0.34,0.43,0.3h0c0.13-0.05,0.25-0.12,0.35-0.22
							c0.07-0.07,0.16-0.1,0.27-0.09c0.17,0.02,0.36,0.14,0.5,0.34c0.25,0.34,0.28,0.76,0.08,0.94c-0.16,0.15-0.34,0.26-0.55,0.34
							C225.85,102.09,225.76,102.1,225.65,102.1z M224.66,96.27v1.18c0,0.37-0.13,0.66-0.37,0.83l-0.25,0.17
							c-0.45,0.31-0.43,1.23,0.04,2.1l0.11,0.2c0.23,0.42,0.57,0.78,0.92,0.99c0.28,0.16,0.55,0.21,0.76,0.13
							c0.18-0.07,0.34-0.17,0.48-0.3c0.11-0.1,0.08-0.41-0.11-0.67c-0.11-0.15-0.25-0.25-0.36-0.26c-0.05-0.01-0.08,0.01-0.11,0.03
							c-0.12,0.11-0.26,0.2-0.41,0.26l0,0c-0.21,0.08-0.52-0.1-0.68-0.4l-0.11-0.2c-0.21-0.39-0.2-0.79,0.03-0.95l0.25-0.17
							c0.33-0.23,0.51-0.66,0.51-1.22v-1.29L224.66,96.27z"/>
					</g>
				</g>
			</g>
			<g id="XMLID_8736_">
				<g id="XMLID_8742_">
					<path id="XMLID_7771_" class="st1" d="M227.03,100.34c-0.14-0.2-0.33-0.33-0.5-0.34c-0.1-0.01-0.2,0.02-0.27,0.09
						c-0.1,0.09-0.22,0.17-0.35,0.22c-0.1,0.04-0.31-0.09-0.43-0.3l-0.11-0.2c-0.17-0.32-0.15-0.61-0.03-0.69l0.25-0.17
						c0.39-0.27,0.6-0.76,0.6-1.39v-1.41l-1.01-0.58l-0.76,0.5l0.26,1.72l-0.12,0.08c-0.38,0.27-0.51,0.86-0.34,1.56l-0.18,0.38
						l1,1.61l1.18,0.49l0.53-0.36c0.15-0.08,0.27-0.16,0.37-0.25C227.32,101.1,227.28,100.68,227.03,100.34z M225.19,95.79l0.8,0.46
						l0,0l-0.53,0.37l-0.8-0.37l-0.02-0.1L225.19,95.79z"/>
				</g>
				<g id="XMLID_8737_">
					<g id="XMLID_8741_">
						<path id="XMLID_1080_" class="st0" d="M225.3,100.82c-0.16,0.06-0.41-0.1-0.55-0.35l-0.11-0.2c-0.18-0.34-0.19-0.69,0-0.82
							l0.25-0.17c0.36-0.25,0.56-0.71,0.56-1.31v-1.35l-0.9-0.52v1.35c0,0.33-0.11,0.6-0.32,0.74l-0.25,0.17
							c-0.5,0.35-0.49,1.31,0.01,2.23l0.11,0.2c0.25,0.46,0.6,0.82,0.95,1.03c0.3,0.17,0.6,0.23,0.84,0.14
							c0.19-0.08,0.37-0.18,0.51-0.32c0.16-0.15,0.12-0.51-0.1-0.81l0,0c-0.2-0.27-0.47-0.38-0.62-0.24
							C225.57,100.69,225.44,100.77,225.3,100.82z"/>
					</g>
					<g id="XMLID_8738_">
						<path id="XMLID_7765_" class="st1" d="M225.63,102.1c-0.2,0-0.42-0.07-0.64-0.2c-0.38-0.22-0.74-0.61-0.99-1.07l-0.11-0.2
							c-0.53-0.97-0.52-1.98,0.02-2.36l0.25-0.17c0.18-0.13,0.28-0.36,0.28-0.66v-1.53l1.11,0.64v1.41c0,0.63-0.21,1.12-0.6,1.39
							l-0.25,0.17c-0.12,0.08-0.14,0.37,0.03,0.69l0.11,0.2c0.12,0.22,0.33,0.34,0.43,0.3h0c0.13-0.05,0.25-0.12,0.35-0.22
							c0.07-0.07,0.16-0.1,0.27-0.09c0.17,0.02,0.36,0.14,0.5,0.34c0.25,0.34,0.28,0.76,0.08,0.94c-0.16,0.15-0.34,0.26-0.55,0.34
							C225.83,102.09,225.73,102.1,225.63,102.1z M224.63,96.27v1.18c0,0.37-0.13,0.66-0.37,0.83l-0.25,0.17
							c-0.45,0.31-0.43,1.23,0.04,2.1l0.11,0.2c0.23,0.42,0.57,0.78,0.92,0.99c0.28,0.16,0.55,0.21,0.75,0.13
							c0.18-0.07,0.34-0.17,0.48-0.3c0.11-0.1,0.08-0.41-0.11-0.67c-0.11-0.15-0.25-0.25-0.36-0.26c-0.05-0.01-0.08,0.01-0.11,0.03
							c-0.12,0.11-0.26,0.2-0.41,0.26l0,0c-0.21,0.08-0.52-0.1-0.68-0.4l-0.11-0.2c-0.21-0.39-0.2-0.79,0.03-0.95l0.25-0.17
							c0.33-0.23,0.51-0.66,0.51-1.22v-1.29L224.63,96.27z"/>
					</g>
				</g>
			</g>
		</g>
		<g id="XMLID_1067_">
			<g id="XMLID_1073_">
				<path id="XMLID_1078_" class="st0" d="M225.33,93.34c-0.01,0-0.01-0.01-0.02-0.01L225.33,93.34l-0.04-0.02
					c-0.24-0.12-0.6-0.03-0.97,0.33c-0.29,0.28-0.5,0.64-0.59,1.03c-0.12,0.52,0,0.87,0.25,1l0.08,0.04l1.6,0.83l1.16-1.72
					l0.21-0.55c0.01-0.02,0-0.05-0.02-0.06L225.33,93.34z"/>
				<path id="XMLID_1077_" class="st2" d="M225.28,94.09c-0.01,0-0.01-0.01-0.02-0.01L225.28,94.09l-0.04-0.02
					c-0.24-0.12-0.6-0.03-0.97,0.33c-0.29,0.28-0.5,0.64-0.59,1.03c-0.12,0.52,0.67,0.33,0.91,0.46l0.08,0.04l1.05,0.47l1.04-0.82
					l0.21-0.55c0.01-0.02,0-0.05-0.02-0.06L225.28,94.09z"/>
				<path id="XMLID_1074_" class="st1" d="M225.72,96.78l-1.82-0.94c-0.34-0.18-0.47-0.63-0.34-1.2c0.1-0.42,0.32-0.82,0.63-1.12
					c0.41-0.39,0.83-0.52,1.17-0.36l-0.02,0.09l0.04-0.09l0.02,0.01l1.68,0.89c0.1,0.05,0.14,0.17,0.1,0.27l-0.21,0.55L225.72,96.78
					z M225.07,93.45c-0.18,0-0.4,0.12-0.62,0.33c-0.26,0.25-0.45,0.59-0.54,0.94c-0.09,0.4-0.03,0.71,0.16,0.81l0.08,0.04l1.46,0.75
					l1.07-1.59l0.15-0.41l-1.61-0.85C225.17,93.46,225.12,93.45,225.07,93.45z"/>
			</g>
			<g id="XMLID_1068_">
				<path id="XMLID_1072_" class="st1" d="M227.28,94.84c0,0.61-0.43,1.35-0.96,1.66c-0.53,0.31-0.96,0.06-0.96-0.55
					c0-0.61,0.43-1.35,0.96-1.66C226.85,93.98,227.28,94.23,227.28,94.84z"/>
				<path id="XMLID_1069_" class="st1" d="M225.9,96.8c-0.12,0-0.23-0.03-0.34-0.09c-0.24-0.14-0.37-0.41-0.37-0.77
					c0-0.68,0.46-1.47,1.04-1.81c0.31-0.18,0.62-0.2,0.85-0.07c0.24,0.14,0.37,0.41,0.37,0.77c0,0.68-0.46,1.47-1.05,1.81
					C226.23,96.75,226.06,96.8,225.9,96.8z M226.75,94.33c-0.1,0-0.22,0.04-0.34,0.11c-0.47,0.27-0.87,0.96-0.87,1.51
					c0,0.23,0.07,0.4,0.19,0.47c0.12,0.07,0.31,0.05,0.5-0.07c0.47-0.27,0.87-0.96,0.87-1.51c0-0.23-0.07-0.4-0.19-0.47
					C226.87,94.34,226.81,94.33,226.75,94.33z"/>
			</g>
		</g>
		<g id="XMLID_1027_">
			<g id="XMLID_1058_">
				<polygon id="XMLID_1066_" class="st0" points="286.97,56.31 286.97,75.77 291.94,78.9 308.8,69.05 308.8,55.82 296.33,50.91 
									"/>
				<path id="XMLID_1059_" class="st1" d="M291.93,79.21l-5.22-3.29V56.16l9.6-5.54l0.12,0.05l12.64,4.98V69.2L291.93,79.21z
					 M287.23,75.63l4.71,2.96l16.6-9.7V56l-12.19-4.8l-9.12,5.26V75.63z"/>
			</g>
			<g id="XMLID_1051_">
				<polygon id="XMLID_1055_" class="st0" points="286.97,75.77 301.12,83.85 301.12,64.39 286.97,56.31 				"/>
				<path id="XMLID_1052_" class="st1" d="M301.38,84.3l-14.68-8.37V55.86l14.68,8.38V84.3z M287.23,75.62l13.63,7.78V64.54
					l-13.63-7.78V75.62z"/>
			</g>
			<g id="XMLID_1048_">
				<polygon id="XMLID_1050_" class="st0" points="296.33,50.91 310.48,58.99 301.12,64.39 286.97,56.31 				"/>
			</g>
			<polygon id="XMLID_1047_" class="st2" points="296.33,52.93 310.48,61.01 301.12,66.41 286.97,58.33 			"/>
			<g id="XMLID_1039_">
				<path id="XMLID_1042_" class="st1" d="M306.08,87.28l-5.22-3.29V64.24l9.6-5.54l0.12,0.05l12.64,4.98v13.56L306.08,87.28z
					 M301.38,83.71l4.71,2.96l16.6-9.7v-12.9l-12.19-4.8l-9.12,5.26V83.71z"/>
				<polygon id="XMLID_1040_" class="st1" points="301.12,64.39 301.12,83.85 306.09,86.98 322.95,77.12 322.95,63.9 310.48,58.99 
									"/>
			</g>
			<g id="XMLID_1029_">
				<path id="XMLID_1036_" class="st1" d="M301.12,64.69l-14.68-8.38l9.88-5.71l14.68,8.38L301.12,64.69z M287.5,56.31l13.62,7.77
					l8.83-5.1l-13.62-7.77L287.5,56.31z"/>
				<polygon id="XMLID_1035_" class="st0" points="308.8,55.82 322.95,63.9 310.48,58.99 296.33,50.91 				"/>
				<path id="XMLID_1030_" class="st1" d="M322.86,64.14l-12.47-4.91l-14.18-8.09l0.23-0.47l12.51,4.93l14.15,8.08L322.86,64.14z
					 M299.62,52.49l10.99,6.27l9.05,3.56l-10.97-6.26L299.62,52.49z"/>
			</g>
		</g>
		<g id="XMLID_1014_">
			<polygon id="XMLID_1026_" class="st0" points="307.4,81.26 312.33,84.14 312.33,73.27 307.4,70.39 			"/>
			<polygon id="XMLID_1025_" class="st0" points="312.63,67.37 317.56,70.25 312.33,73.27 307.4,70.39 			"/>
			<g id="XMLID_1017_">
				<polygon id="XMLID_1024_" class="st2" points="312.63,69.12 317.56,72 312.33,75.02 307.4,72.14 				"/>
				<path id="XMLID_1019_" class="st1" d="M319.73,69.89l-7.1-2.82l-5.49,3.17v11.17l5.06,2.95l2.9,1.83l9.69-5.66v-7.72
					L319.73,69.89z M319.48,70.35l1.97,1.15l-3.78-1.49l-1.97-1.15L319.48,70.35z M307.93,70.39l4.7-2.72l0.1,0.06l4.31,2.52
					l-4.7,2.72l-2.61-1.53L307.93,70.39z M307.67,70.84l1.65,0.97l2.75,1.61v10.26l-4.41-2.57V70.84z M315.11,85.58l-2.52-1.58
					V73.42l4.98-2.88l6.68,2.63v7.06L315.11,85.58z"/>
				<polygon id="XMLID_1018_" class="st0" points="318.58,69.74 323.22,72.45 318.74,70.67 314.1,67.97 				"/>
			</g>
			<g id="XMLID_1015_">
				<polygon id="XMLID_1016_" class="st1" points="312.33,73.27 312.33,84.14 315.11,85.88 324.53,80.38 324.53,72.99 317.56,70.25 
									"/>
			</g>
		</g>
		<polygon id="XMLID_1013_" class="st0" points="308.69,84.45 280.03,101 251.37,84.45 280.03,67.9 		"/>
		<polygon id="XMLID_1012_" class="st0" points="251.37,84.45 251.37,88.87 280.03,105.42 280.03,101 		"/>
		<polygon id="XMLID_1011_" class="st2" points="308.57,86.26 279.92,102.8 251.26,86.26 279.92,69.71 		"/>
		<g id="XMLID_461_">
			<polygon id="XMLID_1010_" class="st1" points="308.69,84.45 308.69,88.87 280.03,105.42 280.03,101 			"/>
			<path id="XMLID_462_" class="st1" d="M308.95,84.3l-28.92-16.7l-28.92,16.7v4.72l28.92,16.7l28.92-16.7V84.3z M251.9,84.45
				l28.13-16.24l28.13,16.24l-3.41,1.97l-24.73,14.27L255.3,86.42L251.9,84.45z M251.63,88.72V84.9l28.13,16.24v3.82L251.63,88.72z
				 M280.29,104.96v-3.82l24.73-14.28l3.41-1.97v3.82L280.29,104.96z"/>
		</g>
		<g id="XMLID_988_">
			<g id="XMLID_999_">
				<path id="XMLID_460_" class="st0" d="M294.2,84.59L294.2,84.59l-0.01-2.88h-0.91c-0.69-1.06-1.76-2.06-3.24-2.91
					c-5.53-3.19-14.51-3.19-20.04,0c-1.48,0.85-2.55,1.85-3.24,2.91h-0.91v2.77c0,0.07,0,0.14,0,0.22v0.18c0,0,0.01,0.01,0.02,0.01
					c0.13,1.99,1.49,3.96,4.13,5.48c5.53,3.19,14.51,3.19,20.04,0C292.82,88.78,294.2,86.68,294.2,84.59L294.2,84.59L294.2,84.59z"
					/>
				<path id="XMLID_457_" class="st1" d="M280.03,93.02c-3.68,0-7.35-0.81-10.15-2.42c-2.56-1.48-4.07-3.46-4.25-5.59l-0.01-0.01
					l-0.02-0.31c0-0.07,0-0.15,0-0.22v-3.03h1.03c0.74-1.09,1.83-2.06,3.24-2.87c5.6-3.23,14.7-3.23,20.3,0
					c1.41,0.82,2.5,1.78,3.24,2.87h1.03l0.01,3.14c0,2.28-1.52,4.42-4.28,6.01C287.38,92.22,283.7,93.02,280.03,93.02z
					 M266.13,84.79l0.02,0.08c0.13,1.99,1.55,3.86,3.99,5.27c5.45,3.15,14.32,3.15,19.78,0c2.59-1.5,4.02-3.47,4.02-5.56l-0.01-2.61
					h-0.79l-0.08-0.12c-0.7-1.07-1.75-2.02-3.15-2.82c-5.45-3.15-14.33-3.15-19.78,0c-1.39,0.8-2.45,1.75-3.15,2.82l-0.08,0.12
					h-0.79v2.51c0,0.07,0,0.14,0,0.21V84.79z"/>
			</g>
			<g id="XMLID_989_">
				<path id="XMLID_998_" class="st0" d="M290.05,76.19c5.53,3.19,5.53,8.38,0,11.57c-5.53,3.2-14.51,3.2-20.04,0
					c-5.53-3.2-5.53-8.38,0-11.57C275.54,72.99,284.51,72.99,290.05,76.19z"/>
				<path id="XMLID_997_" class="st2" d="M289.94,77.45c5.53,3.19,5.53,8.38,0,11.57c-5.53,3.2-14.51,3.2-20.04,0
					c-5.53-3.19-5.53-8.38,0-11.57C275.43,74.26,284.4,74.26,289.94,77.45z"/>
				<path id="XMLID_994_" class="st1" d="M280.03,90.41c-3.68,0-7.35-0.81-10.15-2.42c-2.76-1.59-4.28-3.73-4.28-6.01
					c0-2.28,1.52-4.42,4.28-6.01c5.6-3.23,14.7-3.23,20.3,0c2.76,1.59,4.28,3.73,4.28,6.01c0,2.28-1.52,4.42-4.28,6.01
					C287.38,89.6,283.7,90.41,280.03,90.41z M280.03,74.05c-3.58,0-7.16,0.79-9.89,2.36c-2.59,1.5-4.02,3.47-4.02,5.56
					c0,2.09,1.43,4.06,4.02,5.56c5.45,3.15,14.33,3.15,19.78,0c2.59-1.5,4.02-3.47,4.02-5.56c0-2.09-1.43-4.06-4.02-5.56l0,0
					C287.19,74.84,283.61,74.05,280.03,74.05z"/>
			</g>
		</g>
		<g id="XMLID_982_">
			<g id="XMLID_983_">
				<path id="XMLID_455_" class="st0" d="M289.41,80.11L289.41,80.11l0-16.49l-0.6-0.53c-0.46-0.7-1.16-0.83-2.14-1.39
					c-3.66-2.12-9.6-2.12-13.27,0c-0.98,0.56-1.69,1.22-2.14,1.93h-0.6v16.42c0,0.05,0,0.1,0,0.14v0.12c0,0,0.01,0.01,0.01,0.01
					c0.08,1.32,0.99,2.62,2.73,3.63c3.66,2.12,9.6,2.12,13.27,0C288.49,82.88,289.41,81.5,289.41,80.11L289.41,80.11L289.41,80.11z"
					/>
				<path id="XMLID_984_" class="st1" d="M280.03,85.78c-2.45,0-4.9-0.54-6.76-1.62c-1.71-0.99-2.72-2.31-2.85-3.74l-0.01-0.01
					l-0.01-0.38V63.36h0.72c0.5-0.72,1.22-1.35,2.15-1.89c3.73-2.15,9.8-2.15,13.53,0c0.29,0.17,0.56,0.3,0.81,0.42
					c0.56,0.27,1.05,0.5,1.4,1.03l0.66,0.59l0,16.61c0,1.54-1.02,2.98-2.88,4.06C284.93,85.24,282.48,85.78,280.03,85.78z
					 M270.91,80.22l0.01,0.07c0.08,1.28,1.01,2.5,2.6,3.42c3.59,2.07,9.42,2.07,13,0c1.69-0.97,2.62-2.25,2.62-3.6l0-16.37
					l-0.56-0.51c-0.28-0.42-0.67-0.61-1.21-0.87c-0.26-0.12-0.54-0.26-0.85-0.44c-3.58-2.07-9.42-2.07-13,0
					c-0.91,0.53-1.6,1.14-2.05,1.84l-0.08,0.12h-0.48V80.22z"/>
			</g>
		</g>
		<g id="XMLID_452_">
			<polygon id="XMLID_981_" class="st0" points="300.53,59.92 279.85,71.86 259.17,59.92 279.85,47.98 			"/>
			<polygon id="XMLID_980_" class="st0" points="259.17,59.92 259.17,63.11 279.85,75.05 279.85,71.86 			"/>
			<polygon id="XMLID_454_" class="st2" points="300.45,61.51 279.77,73.45 259.09,61.51 279.77,49.57 			"/>
			<g id="XMLID_453_">
				<polygon id="XMLID_979_" class="st1" points="300.53,59.92 300.53,63.11 279.85,75.05 279.85,71.86 				"/>
				<path id="XMLID_993_" class="st1" d="M300.79,59.77l-20.94-12.09l-20.94,12.09v3.49l20.94,12.09l20.94-12.09V59.77z
					 M279.85,48.28l20.15,11.64l-20.15,11.64L259.7,59.92L279.85,48.28z M259.43,62.96v-2.59l20.15,11.64v2.59L259.43,62.96z
					 M280.11,74.59v-2.59l20.15-11.64v2.59L280.11,74.59z"/>
			</g>
		</g>
		<g id="XMLID_973_">
			
				<rect id="XMLID_974_" x="294.21" y="13.68" transform="matrix(0.9144 -0.4047 0.4047 0.9144 10.9587 122.2281)" class="st1" width="0.7" height="43.04"/>
		</g>
		<g id="XMLID_959_">
			<polygon id="XMLID_960_" class="st1" points="300.11,55.94 286.15,40.91 286.66,40.43 300.79,55.64 			"/>
		</g>
		<g id="XMLID_443_">
			<polygon id="XMLID_942_" class="st0" points="278.82,6.16 283.44,8.88 287.47,6.55 282.84,3.84 			"/>
			<polygon id="XMLID_926_" class="st2" points="278.8,7.54 283.42,10.25 287.45,7.93 282.83,5.21 			"/>
			<g id="XMLID_503_">
				<polygon id="XMLID_909_" class="st0" points="278.22,48.63 273.6,45.91 278.82,6.16 283.44,8.88 				"/>
				<path id="XMLID_601_" class="st1" d="M278.43,49.06l-5.11-3.01l5.26-40.08l5.14,2.77L278.43,49.06z M273.88,45.77l4.13,2.43
					l5.14-39.19l-4.13-2.43L273.88,45.77z"/>
			</g>
			<g id="XMLID_445_">
				<polygon id="XMLID_451_" class="st0" points="273.6,60.72 278.22,63.43 278.22,48.63 273.6,45.91 				"/>
				<path id="XMLID_446_" class="st1" d="M287.73,6.41l-4.89-2.87l-4.55,2.63l4.86,2.86l-5.14,39.19l-4.68-2.75v15.41l4.88,2.87
					l8.49-4.78l-0.15-14.98L287.73,6.41z M277.96,62.98l-4.1-2.41v-14.2l4.1,2.41V62.98z M282.84,4.14l4.1,2.41l-3.5,2.02l-4.1-2.41
					L282.84,4.14z M278.48,62.99V48.65l5.2-39.61l3.51-2.02l-1.15,36.95l0.15,14.68L278.48,62.99z"/>
			</g>
			<polygon id="XMLID_444_" class="st1" points="283.44,8.88 278.22,48.63 278.22,63.43 286.45,58.8 286.3,43.97 287.47,6.55 			"/>
		</g>
		<g id="XMLID_431_">
			<path id="XMLID_440_" class="st1" d="M244.38,23.71l-5.98,15.54l39.8,9.18l5.24-39.55L244.38,23.71z M275.91,43.39l-32.02-6.64
				l4.17-10.94l31.74-12.28L275.91,43.39z"/>
			<path id="XMLID_432_" class="st1" d="M278.42,48.75l-40.37-9.31l6.13-15.93l0.11-0.04l39.47-14.99l-0.06,0.44L278.42,48.75z
				 M238.75,39.06l39.23,9.05l5.15-38.83l-38.54,14.64L238.75,39.06z M276.14,43.71l-32.6-6.76l4.32-11.34l32.26-12.48L276.14,43.71
				z M244.25,36.56l31.44,6.52l3.8-29.15l-31.22,12.08L244.25,36.56z"/>
		</g>
		<g id="XMLID_426_">
			<polygon id="XMLID_430_" class="st0" points="233.78,36.73 238.4,39.25 244.38,23.71 239.76,21.2 			"/>
			<path id="XMLID_427_" class="st1" d="M238.53,39.62l-5.09-2.77l6.02-15.64l5.24,2.38L238.53,39.62z M234.1,36.61l4.16,2.27
				l5.79-15.04l-4.16-2.27L234.1,36.61z"/>
		</g>
		<g id="XMLID_420_">
			<polygon id="XMLID_425_" class="st0" points="278.82,6.16 283.44,8.88 244.38,23.71 239.76,21.2 			"/>
			<polygon id="XMLID_424_" class="st2" points="278.82,8.04 281.63,9.65 242.57,24.48 239.76,23.07 			"/>
			<path id="XMLID_421_" class="st1" d="M244.36,24l-4.6-3.09l39.08-15.05l4.84,3.17L244.36,24z M240.38,21.24l4.02,2.19l38.43-14.6
				l-4.04-2.38L240.38,21.24z"/>
		</g>
		<g id="XMLID_415_">
			<polygon id="XMLID_419_" class="st0" points="271.29,40.87 275.91,43.39 279.8,13.53 274.59,15.55 			"/>
			<path id="XMLID_416_" class="st1" d="M276.12,43.81l-5.12-2.79l3.35-25.66l5.77-2.23L276.12,43.81z M271.57,40.73l4.13,2.25
				l3.79-29.05l-4.66,1.8L271.57,40.73z"/>
		</g>
		<g id="XMLID_409_">
			<polygon id="XMLID_414_" class="st0" points="243.89,36.75 244.46,35.26 271.29,40.87 275.91,43.39 			"/>
			<polygon id="XMLID_413_" class="st4" points="243.82,37 244.25,35.87 271.09,41.49 273.88,42.98 			"/>
			<path id="XMLID_410_" class="st1" d="M277.59,44.01l-34.05-7.07l0.76-1.99l27.12,5.69L277.59,44.01z M244.25,36.56l29.99,6.22
				l-3.04-1.65l-26.57-5.56L244.25,36.56z"/>
		</g>
		<polygon id="XMLID_408_" class="st0" points="224.29,29.9 228.91,32.4 244.38,23.71 239.76,21.22 		"/>
		<g id="XMLID_396_">
			<polygon id="XMLID_407_" class="st0" points="222.31,62.17 226.93,64.67 228.91,32.4 224.29,29.9 			"/>
			<g id="XMLID_397_">
				<polygon id="XMLID_406_" class="st2" points="224.29,31.71 228.91,34.21 244.38,25.52 239.76,23.02 				"/>
				<path id="XMLID_401_" class="st1" d="M244.59,23.9l0.12-0.3l-0.33-0.18l-4.62-2.5l-15.72,8.83l-2,32.57l4.9,2.65l2.27-1.46
					L244.59,23.9z M239.76,21.52l4.07,2.2l-6.32,3.55l-8.61,4.83l-2.89-1.56l-1.19-0.64L239.76,21.52z M222.58,62.02l1.94-31.69
					l2.2,1.19l1.91,1.03l-0.34,5.5l-1.61,26.18L222.58,62.02z M227.22,64.17l1.61-26.22l0.33-5.39l8.4-4.71l6.31-3.54l-15.09,38.86
					L227.22,64.17z"/>
				<path id="XMLID_398_" class="st1" d="M230.9,34.15l-1.38,20.97l1.93-4.36l8.4-21.63L230.9,34.15z M230.96,50.56l-0.73,1.64
					l1.17-17.73l7.42-4.17L230.96,50.56z"/>
			</g>
		</g>
		<g id="XMLID_390_">
			<polygon id="XMLID_395_" class="st0" points="232.18,33.73 239.33,29.72 231.03,51.04 229.87,53.66 231.03,36.69 			"/>
			<polygon id="XMLID_394_" class="st2" points="230.2,41.26 237.35,37.24 230.54,54.91 229.37,57.54 			"/>
			<path id="XMLID_391_" class="st1" d="M229.51,55.13l1.28-18.54l1.18-3.04l7.87-4.42l-8.56,22L229.51,55.13z M231.29,36.74
				l-1.06,15.45l0.56-1.26l8.03-20.62l-6.43,3.61L231.29,36.74z"/>
		</g>
		<polygon id="XMLID_389_" class="st1" points="280.35,90.15 280.35,92.77 283.95,92.71 289.14,90.91 292.07,88.82 293.8,86.52 
			294.2,84.14 293.94,83.68 292.57,85.78 289.67,87.84 285.87,89.43 		"/>
		<polygon id="XMLID_388_" class="st1" points="281.47,74.24 281.47,85.53 284.13,84.98 286.53,83.85 288.31,82.65 289.3,80.76 
			289.41,69.71 		"/>
		<g id="XMLID_385_">
			<polygon id="XMLID_386_" class="st0" points="281.91,74.72 281.91,74.12 289.23,69.95 289.23,70.56 			"/>
		</g>
		<g id="XMLID_382_">
			<polygon id="XMLID_383_" class="st0" points="281.95,104.49 281.95,103.88 289.28,99.72 289.28,100.32 			"/>
		</g>
		<g id="XMLID_1365_">
			<polygon id="XMLID_1366_" class="st0" points="296.68,95.96 296.68,95.36 301.77,92.46 301.77,93.07 			"/>
		</g>
		<path id="XMLID_379_" class="st1" d="M228.91,32.4l-1.98,32.27l2.07-1.33l15.38-39.62L228.91,32.4z M229.87,53.66l1.28-19.35
			l8.18-4.59l-8.13,20.95L229.87,53.66z"/>
		<g id="XMLID_365_">
			<g id="XMLID_367_">
				<g id="XMLID_373_">
					<path id="XMLID_378_" class="st0" d="M245.2,23.47c-0.01-0.01-0.02-0.01-0.03-0.02L245.2,23.47l-0.07-0.03
						c-0.48-0.24-1.19-0.07-1.94,0.66c-0.58,0.56-0.99,1.28-1.17,2.06c-0.24,1.04,0,1.74,0.5,2.01l0.19,0.1l0.89,0.52l2.31-3.44
						l0.43-1.1c0.02-0.04,0-0.09-0.04-0.12L245.2,23.47z"/>
					<path id="XMLID_377_" class="st3" d="M244.34,24.61c-0.01-0.01-0.02-0.01-0.03-0.02L244.34,24.61l-0.07-0.03
						c-0.48-0.24-1.19-0.07-1.94,0.66c-0.58,0.56-0.36,1.03-0.48,1.83c-0.07,0.44,0.17,0.84,0.67,1.1l0.5,0.28l0.53,0.25l1.52-2.2
						l0.43-1.1c0.02-0.04,0-0.09-0.04-0.12L244.34,24.61z"/>
					<path id="XMLID_374_" class="st1" d="M243.68,29.14l-1.29-0.75c-0.65-0.34-0.88-1.2-0.63-2.3c0.19-0.82,0.63-1.6,1.25-2.19
						c0.79-0.76,1.6-1.02,2.24-0.7l0.04,0.02l0,0l0.05,0.02l1.1,0.67c0.15,0.08,0.22,0.27,0.15,0.44l-0.42,1.1L243.68,29.14z
						 M244.68,23.6c-0.39,0-0.85,0.24-1.31,0.68c-0.54,0.52-0.93,1.21-1.1,1.93c-0.19,0.83-0.05,1.49,0.37,1.71l0.88,0.51l2.18-3.23
						l0.35-0.92l-1.02-0.61C244.92,23.63,244.8,23.6,244.68,23.6z"/>
				</g>
				<g id="XMLID_368_">
					<path id="XMLID_372_" class="st1" d="M246.84,25.36c0,1.22-0.86,2.71-1.92,3.32c-1.06,0.61-1.92,0.12-1.92-1.11
						c0-1.22,0.86-2.71,1.92-3.32C245.99,23.64,246.84,24.14,246.84,25.36z"/>
					<path id="XMLID_369_" class="st1" d="M244.07,29.2c-0.23,0-0.44-0.05-0.63-0.16c-0.45-0.26-0.69-0.78-0.69-1.47
						c0-1.32,0.9-2.88,2.05-3.54c0.6-0.34,1.17-0.39,1.62-0.13c0.45,0.26,0.69,0.78,0.69,1.47c0,1.33-0.9,2.88-2.05,3.54
						C244.72,29.1,244.38,29.2,244.07,29.2z M245.78,24.25c-0.22,0-0.46,0.08-0.72,0.23c-0.98,0.57-1.78,1.95-1.78,3.09
						c0,0.49,0.15,0.85,0.43,1.01c0.28,0.16,0.67,0.11,1.09-0.13c0.98-0.57,1.78-1.95,1.78-3.09c0-0.49-0.15-0.85-0.43-1.01
						C246.04,24.28,245.92,24.25,245.78,24.25z"/>
				</g>
			</g>
			<path id="XMLID_366_" class="st0" d="M245.06,28.9c1.15-0.66,2.05-2.22,2.05-3.54c0-0.69-0.25-1.21-0.69-1.47
				c-0.13-0.07-0.27-0.11-0.41-0.14l-0.3,0.51c0.03,0,0.06-0.01,0.08-0.01c0.14,0,0.26,0.03,0.37,0.09
				c0.28,0.16,0.43,0.52,0.43,1.01c0,1.14-0.8,2.52-1.78,3.09c-0.43,0.25-0.81,0.29-1.09,0.13c-0.14-0.08-0.25-0.21-0.32-0.39
				l-0.3,0.51c0.1,0.13,0.22,0.25,0.36,0.34c0.19,0.11,0.4,0.16,0.63,0.16C244.38,29.2,244.72,29.1,245.06,28.9z"/>
		</g>
		<g id="XMLID_342_">
			<g id="XMLID_353_">
				<g id="XMLID_359_">
					<path id="XMLID_364_" class="st0" d="M279.04,42.38c-0.01-0.01-0.02-0.01-0.03-0.02L279.04,42.38l-0.07-0.03
						c-0.48-0.24-1.19-0.07-1.94,0.66c-0.58,0.56-0.99,1.28-1.17,2.06c-0.24,1.04,0,1.74,0.5,2.01l0.19,0.1l0.89,0.52l2.31-3.44
						l0.43-1.1c0.02-0.04,0-0.09-0.04-0.12L279.04,42.38z"/>
					<path id="XMLID_363_" class="st2" d="M278.18,43.52c-0.01-0.01-0.02-0.01-0.03-0.02L278.18,43.52l-0.07-0.03
						c-0.48-0.24-1.19-0.07-1.94,0.66c-0.58,0.56-0.36,1.04-0.48,1.83c-0.07,0.44,0.17,0.84,0.67,1.1l0.5,0.28l0.53,0.25l1.52-2.2
						l0.43-1.1c0.02-0.04,0-0.09-0.04-0.12L278.18,43.52z"/>
					<path id="XMLID_360_" class="st1" d="M277.52,48.05l-1.29-0.75c-0.65-0.34-0.88-1.2-0.63-2.3c0.19-0.82,0.63-1.6,1.25-2.19
						c0.79-0.76,1.6-1.02,2.24-0.7l0.05,0.02l0,0l0.05,0.02l1.09,0.67c0.15,0.08,0.22,0.27,0.15,0.44l-0.42,1.1L277.52,48.05z
						 M278.52,42.51c-0.39,0-0.85,0.24-1.31,0.68c-0.54,0.52-0.93,1.21-1.1,1.93c-0.19,0.83-0.05,1.49,0.37,1.71l0.88,0.51
						l2.18-3.23l0.35-0.92l-1.02-0.61C278.76,42.54,278.64,42.51,278.52,42.51z"/>
				</g>
				<g id="XMLID_354_">
					<path id="XMLID_358_" class="st1" d="M280.68,44.27c0,1.22-0.86,2.71-1.92,3.32c-1.06,0.61-1.92,0.12-1.92-1.11
						s0.86-2.71,1.92-3.32C279.83,42.55,280.68,43.05,280.68,44.27z"/>
					<path id="XMLID_355_" class="st1" d="M277.91,48.11c-0.23,0-0.44-0.05-0.63-0.16c-0.45-0.26-0.69-0.78-0.69-1.47
						c0-1.32,0.9-2.88,2.05-3.54c0.6-0.34,1.17-0.39,1.62-0.13c0.45,0.26,0.69,0.78,0.69,1.47c0,1.33-0.9,2.88-2.05,3.54
						C278.56,48.01,278.22,48.11,277.91,48.11z M279.62,43.16c-0.22,0-0.46,0.08-0.72,0.23c-0.98,0.57-1.78,1.95-1.78,3.09
						c0,0.49,0.15,0.85,0.43,1.01c0.28,0.16,0.67,0.11,1.09-0.13c0.98-0.57,1.78-1.95,1.78-3.09c0-0.49-0.15-0.85-0.43-1.01
						C279.88,43.19,279.76,43.16,279.62,43.16z"/>
				</g>
			</g>
			<path id="XMLID_344_" class="st0" d="M278.9,47.81c1.15-0.66,2.05-2.22,2.05-3.54c0-0.69-0.25-1.21-0.69-1.47
				c-0.13-0.07-0.27-0.11-0.41-0.14l-0.3,0.51c0.03,0,0.06-0.01,0.08-0.01c0.14,0,0.26,0.03,0.37,0.09
				c0.28,0.16,0.43,0.52,0.43,1.01c0,1.14-0.8,2.52-1.78,3.09c-0.43,0.25-0.81,0.29-1.09,0.13c-0.14-0.08-0.25-0.21-0.32-0.39
				l-0.3,0.51c0.1,0.13,0.22,0.25,0.36,0.34c0.19,0.11,0.4,0.16,0.63,0.16C278.22,48.11,278.56,48.01,278.9,47.81z"/>
		</g>
		<g id="XMLID_284_">
			<rect id="XMLID_287_" x="225.15" y="66.5" class="st1" width="0.52" height="27.48"/>
		</g>
		<g id="XMLID_282_">
			
				<rect id="XMLID_283_" x="235.17" y="33.74" transform="matrix(0.3632 -0.9317 0.9317 0.3632 121.3946 245.6292)" class="st0" width="10.46" height="0.52"/>
		</g>
		<g id="XMLID_280_">
			
				<rect id="XMLID_281_" x="264.93" y="25.39" transform="matrix(0.13 -0.9915 0.9915 0.13 219.0742 300.9643)" class="st0" width="32.2" height="0.52"/>
		</g>
		<g id="XMLID_1367_">
			<polygon id="XMLID_1373_" class="st0" points="289.93,184.08 289.41,184.08 289.38,175.88 289.9,175.88 			"/>
		</g>
		<g id="XMLID_273_">
			<g id="XMLID_278_">
				<polygon id="XMLID_279_" class="st0" points="281.14,51.72 284.53,49.47 284.53,48.11 284.08,48.11 284.08,49.18 281.59,50.83 
					281.59,50.06 281.14,50.06 				"/>
			</g>
			<g id="XMLID_276_">
				<polygon id="XMLID_277_" class="st0" points="281.14,55.14 284.53,52.9 284.53,51.54 284.08,51.54 284.08,52.6 281.59,54.25 
					281.59,53.48 281.14,53.48 				"/>
			</g>
			<g id="XMLID_274_">
				<polygon id="XMLID_275_" class="st0" points="281.14,58.57 284.53,56.33 284.53,54.96 284.08,54.96 284.08,56.03 281.59,57.68 
					281.59,56.91 281.14,56.91 				"/>
			</g>
		</g>
		<path id="XMLID_272_" class="st0" d="M286.33,82.32c1.09-0.63,1.88-1.39,2.36-2.21l-0.33-0.5c-0.4,0.84-1.18,1.62-2.29,2.26
			c-1.05,0.61-2.3,1.03-3.62,1.28l0.08,0.51C283.92,83.4,285.23,82.96,286.33,82.32z"/>
		<g id="XMLID_290_">
			<path id="XMLID_269_" class="st0" d="M320.2,79.86l-3.87,2.24c-0.59,0.34-1.06,0.06-1.06-0.61v-2.01c0-0.68,0.48-1.5,1.06-1.84
				l3.87-2.24c0.59-0.34,1.06-0.06,1.06,0.61v2.01C321.27,78.7,320.79,79.52,320.2,79.86z M316.33,78.15
				c-0.34,0.19-0.61,0.67-0.61,1.05v2.01c0,0.39,0.27,0.54,0.61,0.35l3.87-2.24c0.34-0.19,0.61-0.67,0.61-1.05v-2.01
				c0-0.39-0.27-0.54-0.61-0.35L316.33,78.15z"/>
		</g>
		<g id="XMLID_285_">
			<polygon id="XMLID_286_" class="st0" points="227.13,64.94 227.11,64.23 228.12,63.49 228.14,64.2 			"/>
		</g>
	</g>
	<g id="XMLID_1_">
		<g id="XMLID_2812_">
			<g id="XMLID_3628_">
				<g id="XMLID_3633_">
					<g id="XMLID_3754_">
						<path id="XMLID_3812_" class="st0" d="M233.67,123.33l-13.66-7.88c-0.98-0.56-1.87-0.63-2.58-0.3l-4.63,2.81l3.03,5.39v9.7
							c0,3.08,1.87,6.66,4.19,8l8.53,4.93l3.33,5.92l4.76-2.9l0,0c0.75-0.57,1.22-1.7,1.22-3.23v-14.43
							C237.85,128.25,235.98,124.67,233.67,123.33z"/>
						<path id="XMLID_3811_" class="st5" d="M233.6,124.77l-13.66-7.88c-0.98-0.56-1.87-0.63-2.58-0.3l-4.63,2.81l3.03,5.39v9.7
							c0,3.08,1.87,6.66,4.19,8l8.53,4.93l2.59-10.85l6.72-3.78C237.79,129.69,235.92,126.1,233.6,124.77z"/>
						<path id="XMLID_3761_" class="st6" d="M231.75,152.37l-3.46-6.15l-8.45-4.88c-2.4-1.39-4.36-5.11-4.36-8.3v-9.61l-3.15-5.6
							l4.92-2.98c0.87-0.41,1.9-0.3,2.93,0.29l13.66,7.88c2.4,1.39,4.36,5.11,4.36,8.3v14.43c0,1.6-0.48,2.84-1.36,3.51
							L231.75,152.37z M213.76,119.36l2.4,3.9v9.79c0,2.97,1.8,6.42,4.02,7.7l8.61,4.97l1.03,2.53l7.61-4.19l0.08-12.73
							c0-2.97-1.8-6.42-4.01-7.7l-13.66-7.88L213.76,119.36z"/>
					</g>
					<g id="XMLID_3683_">
						<path id="XMLID_3753_" class="st0" d="M229.28,151.6l-13.66-7.88c-2.31-1.33-4.19-4.92-4.19-8v-14.43
							c0-3.08,1.87-4.5,4.19-3.16l13.66,7.88c2.31,1.33,4.19,4.92,4.19,8v14.43C233.46,151.52,231.59,152.93,229.28,151.6z"/>
						<path id="XMLID_3685_" class="st6" d="M230.94,152.44c-0.58,0-1.2-0.18-1.84-0.55l-13.66-7.88c-2.4-1.39-4.36-5.11-4.36-8.3
							v-14.43c0-1.75,0.59-3.09,1.62-3.68c0.87-0.5,1.97-0.42,3.08,0.22l13.66,7.88c2.4,1.39,4.36,5.11,4.36,8.3v14.43
							c0,1.75-0.59,3.09-1.62,3.68C231.81,152.34,231.39,152.44,230.94,152.44z M229.45,151.3c0.9,0.52,1.75,0.59,2.4,0.22
							c0.81-0.47,1.28-1.59,1.28-3.09V134c0-2.97-1.8-6.42-4.01-7.7l-13.66-7.88c-0.9-0.52-1.75-0.6-2.4-0.22
							c-0.81,0.47-1.28,1.59-1.28,3.09v14.43c0,2.97,1.8,6.42,4.01,7.7L229.45,151.3z"/>
					</g>
				</g>
				<g id="XMLID_3629_">
					<path id="XMLID_3632_" class="st7" d="M229.34,122.48c0.44,0.25,0.44,0.67,0,0.92c-0.44,0.25-1.15,0.25-1.59,0
						c-0.44-0.25-0.44-0.67,0-0.92C228.18,122.22,228.9,122.22,229.34,122.48z"/>
					<path id="XMLID_3631_" class="st7" d="M225.17,120.07c0.44,0.25,0.44,0.67,0,0.92c-0.44,0.25-1.15,0.25-1.59,0
						c-0.44-0.25-0.44-0.67,0-0.92C224.01,119.82,224.73,119.82,225.17,120.07z"/>
					<path id="XMLID_3630_" class="st7" d="M221,117.66c0.44,0.25,0.44,0.67,0,0.92c-0.44,0.25-1.15,0.25-1.59,0
						c-0.44-0.25-0.44-0.67,0-0.92C219.85,117.41,220.56,117.41,221,117.66z"/>
				</g>
			</g>
			<g id="XMLID_2827_">
				<g id="XMLID_2828_">
					<g id="XMLID_2834_">
						<path id="XMLID_2889_" class="st8" d="M224.81,135.8l6.26,2.62c-0.33-3.02-2.06-6.33-4.36-8.49L224.81,135.8z"/>
						<path id="XMLID_2904_" class="st6" d="M230.65,137.54l-7.09-2.97l2.17-6.69l0.39,0.37c2.38,2.24,4.13,5.65,4.47,8.71
							L230.65,137.54z M224.41,134.18l5.41,2.27c-0.43-2.57-1.86-5.34-3.78-7.31L224.41,134.18z"/>
					</g>
					<g id="XMLID_2829_">
						<path id="XMLID_2884_" class="st8" d="M223.22,136.44l1.9-5.87c-0.6-0.57-1.24-1.05-1.9-1.43c-3.49-2.02-6.33-0.38-6.33,3.65
							c0,4.03,2.83,8.94,6.33,10.96c3.49,2.02,6.33,0.38,6.33-3.65c0-0.34-0.03-0.68-0.06-1.03L223.22,136.44z"/>
						<path id="XMLID_2885_" class="st6" d="M225.22,143.53c-0.93,0-1.95-0.31-3-0.91c-3.58-2.07-6.5-7.12-6.5-11.25
							c0-2.08,0.72-3.64,2.03-4.39c1.3-0.75,3.02-0.6,4.82,0.44c0.67,0.39,1.33,0.89,1.97,1.48l0.16,0.15l-1.87,5.78l6.16,2.58
							l0.02,0.2c0.04,0.42,0.07,0.76,0.07,1.06c0,2.08-0.72,3.64-2.02,4.39C226.49,143.37,225.88,143.53,225.22,143.53z
							 M219.57,127.19c-0.54,0-1.04,0.13-1.48,0.38c-1.08,0.63-1.68,1.97-1.68,3.8c0,3.92,2.76,8.7,6.15,10.66
							c1.58,0.91,3.05,1.07,4.13,0.44c1.08-0.63,1.68-1.97,1.68-3.8c0-0.26-0.02-0.52-0.04-0.79l-6.36-2.67l1.93-5.96
							c-0.55-0.5-1.11-0.91-1.68-1.24C221.28,127.46,220.37,127.19,219.57,127.19z"/>
					</g>
				</g>
			</g>
			<g id="XMLID_2809_">
				<path id="XMLID_2810_" class="st0" d="M233.29,151.84l-0.34-0.6l3.74-2.16c0.48-0.28,0.78-0.8,0.78-1.35l0.03-2.59l0.69,0.01
					l-0.03,2.6c-0.01,0.79-0.44,1.53-1.12,1.94L233.29,151.84z"/>
			</g>
		</g>
		<g id="XMLID_560_">
			<path id="XMLID_119_" class="st1" d="M237.16,128.41l-10.23-27.27c-0.11-0.3-0.36-0.52-0.67-0.58c-0.37-0.08-0.75,0.06-0.97,0.37
				l-12.19,17.25l-0.61-0.43l12.19-17.25c0.39-0.56,1.08-0.82,1.74-0.67c0.56,0.12,1.01,0.52,1.21,1.05l10.23,27.27L237.16,128.41z"
				/>
		</g>
	</g>
</g>
</svg>
