<?xml version="1.0" encoding="utf-8"?>
<!-- Generator: Adobe Illustrator 27.0.0, SVG Export Plug-In . SVG Version: 6.00 Build 0)  -->
<svg version="1.1" id="content_1_" xmlns="http://www.w3.org/2000/svg" xmlns:xlink="http://www.w3.org/1999/xlink" x="0px" y="0px"
	 viewBox="0 0 332.68 274.02" style="enable-background:new 0 0 332.68 274.02;" xml:space="preserve">
<style type="text/css">
	.st0{fill:#FFFFFF;}
	.st1{fill:#FFA599;}
	.st2{fill:#0D1756;}
	.st3{fill:#E94A49;}
	.st4{fill:#0D1857;}
</style>
<g id="illustration">
	<g id="XMLID_3662_">
		<g id="XMLID_2766_">
			<g id="XMLID_2803_">
				<g id="XMLID_2806_">
					<path id="XMLID_2880_" class="st0" d="M148.58,211.81l-24.4-14.09c-1.74-1.01-3.34-1.13-4.61-0.53l-8.28,5.02l5.41,9.62v17.33
						c0,5.51,3.35,11.9,7.48,14.29l15.24,8.8l5.95,10.58l8.5-5.17l0,0c1.35-1.03,2.18-3.03,2.18-5.78V226.1
						C156.05,220.59,152.71,214.2,148.58,211.81z"/>
					<path id="XMLID_3642_" class="st1" d="M148.49,213.99l-24.4-14.08c-1.74-1.01-3.34-1.13-4.61-0.53l-7.27,4.41l4.46,7.94v17.33
						c0,5.51,3.35,11.9,7.48,14.29l15.24,8.8l5.76-17.58l10.82-6.28C155.97,222.77,152.62,216.37,148.49,213.99z"/>
					<path id="XMLID_2881_" class="st2" d="M145.25,263.29l-6.07-10.8l-15.16-8.75c-4.21-2.43-7.64-8.97-7.64-14.57v-17.24
						l-5.52-9.83l8.55-5.18c1.46-0.69,3.16-0.5,4.95,0.53l24.4,14.08c4.21,2.43,7.64,8.97,7.64,14.57v25.78
						c0,2.76-0.82,4.9-2.31,6.04L145.25,263.29z M115.14,203.19l1.89,8.56v17.41c0,5.39,3.28,11.68,7.31,14l16.13,13.21l15.25-8.91
						V226.1c0-5.39-3.28-11.68-7.31-14l-24.4-14.09L115.14,203.19z"/>
				</g>
				<g id="XMLID_2805_">
					<path id="XMLID_2876_" class="st0" d="M140.73,262.31l-24.4-14.08c-4.13-2.38-7.48-8.78-7.48-14.29v-25.78
						c0-5.51,3.35-8.04,7.48-5.65l24.4,14.09c4.13,2.38,7.48,8.78,7.48,14.29v25.78C148.21,262.16,144.87,264.69,140.73,262.31z"/>
					<path id="XMLID_2877_" class="st2" d="M143.71,263.53c-0.99,0-2.05-0.32-3.14-0.94l-24.4-14.09
						c-4.21-2.43-7.64-8.97-7.64-14.57v-25.78c0-3.02,1-5.32,2.75-6.33c1.46-0.85,3.32-0.71,5.22,0.39l24.4,14.09
						c4.21,2.43,7.64,8.97,7.64,14.57v25.78c0,3.02-1,5.32-2.75,6.33C145.16,263.35,144.46,263.53,143.71,263.53z M140.9,262.02
						c1.69,0.98,3.31,1.12,4.56,0.39c1.54-0.89,2.42-2.99,2.42-5.76v-25.78c0-5.39-3.28-11.68-7.31-14l-24.4-14.09
						c-1.69-0.98-3.31-1.12-4.56-0.39c-1.54,0.89-2.42,2.99-2.42,5.76v25.78c0,5.39,3.28,11.68,7.31,14L140.9,262.02z"/>
				</g>
			</g>
			<g id="XMLID_2823_">
				<g id="XMLID_2824_">
					<path id="XMLID_2767_" class="st3" d="M123.17,225.29v16.05c0,1.85,1.84,4.04,3.27,3.89l11.74-1.25c1.35-0.14,1.35-2.3,0-4
						l-11.74-14.8C125.01,223.39,123.17,223.45,123.17,225.29z"/>
					<path id="XMLID_2873_" class="st2" d="M124.99,241.65c-0.57,0-1.21-0.29-1.8-0.82c-0.99-0.89-1.65-2.26-1.65-3.4v-16.05
						c0-0.85,0.36-1.45,0.98-1.67c0.85-0.3,1.99,0.23,2.88,1.35l11.74,14.8c0.95,1.19,1.32,2.7,0.92,3.66
						c-0.21,0.5-0.62,0.81-1.14,0.87l-11.74,1.25C125.11,241.65,125.05,241.65,124.99,241.65z M123,220.28
						c-0.1,0-0.19,0.02-0.28,0.04c-0.47,0.16-0.53,0.73-0.53,1.05v16.05c0,0.97,0.58,2.14,1.44,2.91c0.51,0.46,1.04,0.69,1.47,0.65
						l11.74-1.25c0.29-0.03,0.49-0.18,0.61-0.47c0.27-0.63,0.07-1.87-0.83-3l-11.74-14.8C124.2,220.63,123.49,220.28,123,220.28z"/>
				</g>
			</g>
		</g>
		<g id="XMLID_3661_">
			<path id="XMLID_3660_" class="st4" d="M141.25,213.58c0.42,0.24,0.42,0.64,0,0.88c-0.42,0.24-1.1,0.24-1.53,0
				c-0.42-0.24-0.42-0.64,0-0.88C140.15,213.34,140.83,213.34,141.25,213.58z"/>
			<path id="XMLID_3659_" class="st4" d="M145.24,211.28c0.42,0.24,0.42,0.64,0,0.88c-0.42,0.24-1.1,0.24-1.53,0
				c-0.42-0.24-0.42-0.64,0-0.88C144.14,211.04,144.82,211.04,145.24,211.28z"/>
			<path id="XMLID_3658_" class="st4" d="M137.26,211.28c0.42,0.24,0.42,0.64,0,0.88c-0.42,0.24-1.1,0.24-1.53,0
				c-0.42-0.24-0.42-0.64,0-0.88C136.16,211.04,136.84,211.04,137.26,211.28z"/>
			<path id="XMLID_3657_" class="st4" d="M141.25,208.98c0.42,0.24,0.42,0.64,0,0.88c-0.42,0.24-1.1,0.24-1.53,0
				c-0.42-0.24-0.42-0.64,0-0.88C140.15,208.73,140.83,208.73,141.25,208.98z"/>
			<path id="XMLID_3656_" class="st4" d="M133.24,208.95c0.42,0.24,0.42,0.64,0,0.88c-0.42,0.24-1.1,0.24-1.53,0
				c-0.42-0.24-0.42-0.64,0-0.88C132.14,208.71,132.82,208.71,133.24,208.95z"/>
			<path id="XMLID_3655_" class="st4" d="M137.23,206.65c0.42,0.24,0.42,0.64,0,0.88c-0.42,0.24-1.1,0.24-1.53,0
				c-0.42-0.24-0.42-0.64,0-0.88C136.12,206.41,136.81,206.41,137.23,206.65z"/>
			<path id="XMLID_3654_" class="st4" d="M129.25,206.65c0.42,0.24,0.42,0.64,0,0.88c-0.42,0.24-1.1,0.24-1.53,0
				c-0.42-0.24-0.42-0.64,0-0.88C128.15,206.41,128.83,206.41,129.25,206.65z"/>
			<path id="XMLID_3653_" class="st4" d="M133.24,204.35c0.42,0.24,0.42,0.64,0,0.88c-0.42,0.24-1.1,0.24-1.53,0
				c-0.42-0.24-0.42-0.64,0-0.88C132.14,204.1,132.82,204.1,133.24,204.35z"/>
			<path id="XMLID_3652_" class="st4" d="M125.26,204.35c0.42,0.24,0.42,0.64,0,0.88c-0.42,0.24-1.1,0.24-1.53,0
				c-0.42-0.24-0.42-0.64,0-0.88C124.16,204.1,124.84,204.1,125.26,204.35z"/>
			<path id="XMLID_3651_" class="st4" d="M129.25,202.04c0.42,0.24,0.42,0.64,0,0.88c-0.42,0.24-1.1,0.24-1.53,0
				c-0.42-0.24-0.42-0.64,0-0.88C128.15,201.8,128.83,201.8,129.25,202.04z"/>
			<path id="XMLID_3650_" class="st4" d="M121.27,202.04c0.42,0.24,0.42,0.64,0,0.88c-0.42,0.24-1.1,0.24-1.53,0
				c-0.42-0.24-0.42-0.64,0-0.88C120.17,201.8,120.85,201.8,121.27,202.04z"/>
			<path id="XMLID_3649_" class="st4" d="M125.26,199.74c0.42,0.24,0.42,0.64,0,0.88c-0.42,0.24-1.1,0.24-1.53,0
				c-0.42-0.24-0.42-0.64,0-0.88C124.16,199.5,124.84,199.5,125.26,199.74z"/>
		</g>
	</g>
</g>
</svg>
