<?xml version="1.0" encoding="utf-8"?>
<!-- Generator: Adobe Illustrator 27.0.0, SVG Export Plug-In . SVG Version: 6.00 Build 0)  -->
<svg version="1.1" id="content_1_" xmlns="http://www.w3.org/2000/svg" xmlns:xlink="http://www.w3.org/1999/xlink" x="0px" y="0px"
	 viewBox="0 0 332.68 274.02" style="enable-background:new 0 0 332.68 274.02;" xml:space="preserve">
<style type="text/css">
	.st0{fill:#FFFFFF;}
	.st1{fill:#FFA69A;}
	.st2{fill:#0D1756;}
	.st3{fill:#E94A49;}
	.st4{fill:#0D1857;}
</style>
<g id="illustration">
	<g id="XMLID_3663_">
		<g id="XMLID_2816_">
			<g id="XMLID_2801_">
				<g id="XMLID_2804_">
					<path id="XMLID_2971_" class="st0" d="M121.95,88.19l-13.66-7.88c-0.98-0.56-1.87-0.63-2.58-0.3l-4.63,2.81l3.03,5.39v9.7
						c0,3.08,1.87,6.66,4.19,8l8.53,4.93l3.33,5.92l4.76-2.9l0,0c0.75-0.57,1.22-1.7,1.22-3.23V96.19
						C126.14,93.11,124.26,89.53,121.95,88.19z"/>
					<path id="XMLID_267_" class="st1" d="M121.89,89.63l-13.66-7.88c-0.98-0.56-1.87-0.63-2.58-0.3l-4.63,2.81l3.03,5.39v9.7
						c0,3.08,1.87,6.66,4.19,8l8.53,4.93l2.59-10.85l6.72-3.78C126.08,94.55,124.2,90.96,121.89,89.63z"/>
					<path id="XMLID_2972_" class="st2" d="M120.03,117.23l-3.46-6.15l-8.45-4.88c-2.4-1.39-4.36-5.11-4.36-8.3V88.3l-3.15-5.6
						l4.92-2.98c0.87-0.41,1.9-0.3,2.93,0.29l13.66,7.88c2.4,1.39,4.36,5.11,4.36,8.3v14.43c0,1.6-0.48,2.84-1.36,3.51
						L120.03,117.23z M102.05,84.22l2.4,3.9v9.79c0,2.97,1.8,6.42,4.02,7.7l8.61,4.97l0.3,3.1l8.34-4.77l0.08-12.73
						c0-2.97-1.8-6.42-4.01-7.7l-13.66-7.88L102.05,84.22z"/>
				</g>
				<g id="XMLID_2844_">
					<path id="XMLID_2967_" class="st0" d="M117.56,116.46l-13.66-7.88c-2.31-1.33-4.19-4.92-4.19-8V86.14
						c0-3.08,1.87-4.5,4.19-3.16l13.66,7.88c2.31,1.33,4.19,4.92,4.19,8v14.43C121.75,116.38,119.88,117.79,117.56,116.46z"/>
					<path id="XMLID_2968_" class="st2" d="M119.23,117.3c-0.58,0-1.2-0.18-1.84-0.55l-13.66-7.88c-2.4-1.39-4.36-5.11-4.36-8.3
						V86.14c0-1.75,0.59-3.09,1.62-3.68c0.87-0.5,1.97-0.42,3.08,0.22l13.66,7.88c2.4,1.39,4.36,5.11,4.36,8.3v14.43
						c0,1.75-0.59,3.09-1.62,3.68C120.1,117.2,119.67,117.3,119.23,117.3z M117.74,116.16c0.9,0.52,1.75,0.59,2.4,0.22
						c0.81-0.47,1.28-1.59,1.28-3.09V98.86c0-2.97-1.8-6.42-4.01-7.7l-13.66-7.88c-0.9-0.52-1.75-0.6-2.4-0.22
						c-0.81,0.47-1.28,1.59-1.28,3.09v14.43c0,2.97,1.8,6.42,4.01,7.7L117.74,116.16z"/>
				</g>
			</g>
			<g id="XMLID_2843_">
				<path id="XMLID_2960_" class="st3" d="M117.84,101.88c-0.82-2.44-2.71-4.46-4.42-4.72c-0.79-0.12-1.35,0.39-1.48,1.31
					c0,0.04-0.05,0.01-0.05-0.03c-0.12-1.06-0.69-2.22-1.48-3.01c-1.71-1.71-3.6-1.88-4.42-0.38c-0.49,0.89-0.51,2.24-0.1,3.66
					c0.17,0.59,0.45,1.17,0.75,1.72l4.36,8.02c0.5,0.91,1.32,1.39,1.82,1.05l4.36-2.98c0.3-0.21,0.58-0.47,0.75-0.86
					C118.35,104.71,118.33,103.34,117.84,101.88z"/>
				<path id="XMLID_2964_" class="st2" d="M111.26,108.03c-0.09,0-0.19-0.01-0.29-0.04c-0.55-0.13-1.09-0.62-1.47-1.3l-4.36-8.02
					c-0.37-0.68-0.62-1.25-0.78-1.79c-0.45-1.53-0.4-2.96,0.12-3.92c0.37-0.67,0.93-1.07,1.63-1.17c1.02-0.15,2.24,0.39,3.33,1.48
					c0.59,0.59,1.07,1.38,1.34,2.2c0.09-0.11,0.19-0.21,0.3-0.3c0.32-0.24,0.73-0.34,1.17-0.27c1.85,0.29,3.83,2.37,4.69,4.95l0,0
					c0.51,1.53,0.54,2.99,0.08,4.02c-0.18,0.39-0.46,0.72-0.87,1l-4.36,2.98C111.66,107.98,111.47,108.03,111.26,108.03z
					 M106.48,92.45c-0.08,0-0.17,0.01-0.25,0.02c-0.49,0.07-0.87,0.35-1.13,0.82c-0.43,0.79-0.46,2.06-0.07,3.4
					c0.14,0.49,0.37,1.02,0.72,1.66l4.36,8.02c0.27,0.5,0.67,0.88,1.02,0.96c0.12,0.03,0.22,0.02,0.3-0.03l4.36-2.98
					c0.31-0.21,0.51-0.44,0.63-0.71c0.39-0.88,0.35-2.16-0.11-3.52c-0.78-2.31-2.56-4.25-4.15-4.49c-0.26-0.04-0.48,0.01-0.66,0.14
					c-0.23,0.17-0.37,0.47-0.43,0.87l-0.04,0.3l-0.32,0.01l-0.3-0.01l-0.07-0.35c-0.12-1-0.64-2.07-1.38-2.81
					C108.14,92.92,107.24,92.45,106.48,92.45z"/>
			</g>
		</g>
		<g id="XMLID_3641_">
			<path id="XMLID_3640_" class="st4" d="M117.62,87.34c0.44,0.25,0.44,0.67,0,0.92c-0.44,0.25-1.15,0.25-1.59,0
				c-0.44-0.25-0.44-0.67,0-0.92C116.47,87.08,117.18,87.08,117.62,87.34z"/>
			<path id="XMLID_3621_" class="st4" d="M113.45,84.93c0.44,0.25,0.44,0.67,0,0.92c-0.44,0.25-1.15,0.25-1.59,0
				c-0.44-0.25-0.44-0.67,0-0.92C112.3,84.68,113.01,84.68,113.45,84.93z"/>
			<path id="XMLID_3620_" class="st4" d="M109.29,82.52c0.44,0.25,0.44,0.67,0,0.92c-0.44,0.25-1.15,0.25-1.59,0
				c-0.44-0.25-0.44-0.67,0-0.92C108.13,82.27,108.85,82.27,109.29,82.52z"/>
		</g>
	</g>
</g>
</svg>
