<?xml version="1.0" encoding="utf-8"?>
<!-- Generator: Adobe Illustrator 27.0.0, SVG Export Plug-In . SVG Version: 6.00 Build 0)  -->
<svg version="1.1" id="content_1_" xmlns="http://www.w3.org/2000/svg" xmlns:xlink="http://www.w3.org/1999/xlink" x="0px" y="0px"
	 viewBox="0 0 332.68 274.02" style="enable-background:new 0 0 332.68 274.02;" xml:space="preserve">
<style type="text/css">
	.st0{fill:#0D1756;}
	.st1{fill:#FFFFFF;}
	.st2{fill:#FFA99D;}
	.st3{fill:#459CCF;}
	.st4{fill:#FFA89C;}
	.st5{fill:#0D1857;}
</style>
<g id="illustration">
	<g id="XMLID_5_">
		<g id="XMLID_5662_">
			<g id="XMLID_3225_">
				<g id="XMLID_3366_">
					<g id="XMLID_3375_">
						<path id="XMLID_3387_" class="st0" d="M11.44,200.92c0,0,1.89-0.21,1.51,1.93l24.15-14.01c1.58-0.79,3.46-0.74,4.99,0.15
							l52.35,30.16c2.12-0.97,4.07-1.29,4.94,0.14c1.58,2.59,0.52,3.99-0.38,4.86c-0.21,0.23-0.48,0.45-0.82,0.64
							c-0.03,0.02-0.04,0.03-0.04,0.03l-25.11,14.55c-1.56,0.78-3.4,0.72-4.9-0.16l-56.26-32.44
							C11.87,206.76,8.15,204.5,11.44,200.92z"/>
						<path id="XMLID_3381_" class="st0" d="M67.96,239.5l-56.26-32.45c-0.07-0.04-1.67-1.03-1.92-2.79
							c-0.17-1.17,0.31-2.37,1.42-3.58l0.09-0.09l0.13-0.01c0.04,0,0.94-0.1,1.51,0.51c0.27,0.29,0.41,0.67,0.43,1.14l23.6-13.69
							c1.69-0.85,3.68-0.79,5.31,0.16l52.2,30.07c2.61-1.16,4.37-1.05,5.21,0.34c1.68,2.74,0.56,4.33-0.41,5.27
							c-0.24,0.27-0.55,0.5-0.94,0.73l-25.13,14.56c-0.78,0.39-1.62,0.58-2.46,0.58C69.77,240.25,68.81,240,67.96,239.5z
							 M94.58,219.47l-0.16,0.07l-52.51-30.25c-1.43-0.83-3.18-0.89-4.64-0.15l-24.79,14.38l0.13-0.73c0.1-0.57,0.04-0.98-0.19-1.23
							c-0.24-0.26-0.63-0.3-0.82-0.3c-0.89,1.01-1.28,1.98-1.15,2.91c0.2,1.43,1.59,2.29,1.59,2.3l56.26,32.45
							c1.41,0.82,3.12,0.87,4.56,0.16l25.16-14.58c0.29-0.16,0.54-0.35,0.75-0.58c0.94-0.92,1.72-2.16,0.32-4.44
							c-0.33-0.54-0.87-0.81-1.63-0.81C96.7,218.66,95.74,218.93,94.58,219.47z"/>
					</g>
					<g id="XMLID_3368_">
						<path id="XMLID_3373_" class="st1" d="M98.58,218.48l-56.47-32.53c-1.53-0.89-3.41-0.95-4.99-0.15l-25.11,14.57
							c-1.3,0.95-1.55,2.84-0.11,3.67l56.26,32.44c1.5,0.88,3.35,0.93,4.9,0.16l25.11-14.55C99.97,221.02,99.86,219.34,98.58,218.48
							z"/>
						<path id="XMLID_3372_" class="st2" d="M12.03,201.65l25.11-14.57c1.58-0.79,3.46-0.74,4.99,0.15l56.47,32.53
							c0.37,0.25,0.63,0.57,0.79,0.92c-0.2,0.46-0.58,0.9-1.2,1.27l-25.11,14.55c-1.56,0.78-3.4,0.72-4.9-0.16l-56.26-32.44
							c-0.43-0.25-0.69-0.6-0.83-0.98C11.25,202.44,11.57,201.99,12.03,201.65z"/>
						<path id="XMLID_3369_" class="st0" d="M67.98,236.78l-56.26-32.45c-0.69-0.4-1.1-1.05-1.14-1.83
							c-0.05-0.91,0.42-1.83,1.25-2.43l25.13-14.58c1.69-0.85,3.68-0.79,5.31,0.16l56.47,32.53l0.02,0.01
							c0.72,0.48,1.12,1.2,1.1,1.96c-0.02,0.86-0.57,1.65-1.54,2.23l-25.12,14.55c-0.78,0.39-1.62,0.58-2.46,0.58
							C69.79,237.53,68.84,237.27,67.98,236.78z M41.94,186.24c-1.43-0.83-3.18-0.89-4.64-0.15l-25.08,14.55
							c-0.62,0.45-0.98,1.15-0.94,1.83c0.03,0.54,0.31,0.99,0.8,1.27l56.26,32.45c1.41,0.82,3.12,0.87,4.56,0.16l25.1-14.54
							c0.76-0.45,1.18-1.04,1.2-1.66c0.01-0.52-0.27-1.02-0.79-1.37L41.94,186.24z"/>
					</g>
				</g>
				<g id="XMLID_3342_">
					<g id="XMLID_3360_">
						<path id="XMLID_3362_" class="st0" d="M30.55,192.2l0.03-0.02c0.16-0.09,0.14-0.25-0.04-0.36l0,0
							c-0.19-0.11-0.47-0.12-0.63-0.03l-0.03,0.02c-0.16,0.09-0.14,0.25,0.04,0.36l0,0C30.11,192.28,30.39,192.29,30.55,192.2z"/>
					</g>
					<g id="XMLID_3352_">
						<path id="XMLID_3359_" class="st0" d="M24.05,195.92l5.58-3.2c0.16-0.09,0.14-0.25-0.04-0.36l0,0
							c-0.19-0.11-0.47-0.12-0.63-0.03l-5.58,3.2c-0.16,0.09-0.14,0.25,0.04,0.36l0,0C23.61,196,23.89,196.01,24.05,195.92z"/>
					</g>
				</g>
				<g id="XMLID_3244_">
					<g id="XMLID_3328_">
						<g id="XMLID_3331_">
							<path id="XMLID_3332_" class="st1" d="M25.59,214.14l-2.7-1.57c-0.21-0.1-0.38-0.3-0.45-0.56c-0.07-0.24-0.05-0.48,0.06-0.67
								c0.08-0.15,0.21-0.25,0.35-0.29l0,0c0.14-0.04,0.28-0.03,0.44,0.05l2.81,1.64c0.05,0.04,0.29,0.27,0.36,0.51
								c0.12,0.44-0.06,0.86-0.41,0.96c-0.05,0.01-0.09,0.02-0.14,0.02C25.81,214.22,25.71,214.2,25.59,214.14z M22.98,211.48
								L22.98,211.48c-0.04,0.01-0.07,0.05-0.08,0.07c-0.05,0.08-0.05,0.2-0.02,0.32c0.04,0.15,0.13,0.24,0.22,0.28l2.73,1.59
								c0.04,0.02,0.07,0.02,0.1,0.01c0.09-0.03,0.16-0.2,0.1-0.4c-0.02-0.08-0.15-0.22-0.19-0.26l-2.76-1.61
								c-0.02-0.01-0.05-0.02-0.07-0.02C22.99,211.48,22.98,211.48,22.98,211.48z"/>
						</g>
					</g>
					<g id="XMLID_3295_">
						<g id="XMLID_3296_">
							<path id="XMLID_3297_" class="st1" d="M21.31,211.71l-2.7-1.57c-0.21-0.1-0.38-0.3-0.45-0.56c-0.07-0.24-0.05-0.48,0.06-0.67
								c0.08-0.15,0.21-0.25,0.35-0.29l0,0c0.14-0.04,0.29-0.02,0.44,0.05l2.81,1.64c0.05,0.04,0.29,0.27,0.36,0.51
								c0.12,0.44-0.06,0.86-0.41,0.96c-0.05,0.01-0.09,0.02-0.14,0.02C21.53,211.79,21.43,211.76,21.31,211.71z M18.7,209.05
								L18.7,209.05c-0.04,0.01-0.07,0.05-0.08,0.07c-0.05,0.08-0.05,0.2-0.02,0.32c0.04,0.13,0.11,0.23,0.22,0.28l2.73,1.59
								c0.04,0.02,0.07,0.02,0.1,0.01c0.09-0.03,0.16-0.2,0.1-0.4c-0.02-0.08-0.15-0.22-0.19-0.26l-2.76-1.61
								c-0.02-0.01-0.05-0.02-0.07-0.02C18.71,209.05,18.7,209.05,18.7,209.05z"/>
						</g>
					</g>
					<g id="XMLID_3245_">
						<g id="XMLID_3246_">
							<path id="XMLID_3247_" class="st1" d="M27.81,215.42l-0.68-0.38c-0.06-0.04-0.33-0.28-0.4-0.53
								c-0.07-0.24-0.05-0.48,0.06-0.67c0.08-0.15,0.21-0.25,0.35-0.29c0.14-0.04,0.32,0.01,0.43,0.05l0.68,0.38
								c0.19,0.11,0.33,0.3,0.4,0.53c0.06,0.2,0.05,0.4-0.01,0.57c-0.07,0.19-0.22,0.34-0.4,0.39c-0.04,0.01-0.08,0.02-0.12,0.02
								C28.01,215.48,27.9,215.45,27.81,215.42z M27.26,213.99c-0.03,0.01-0.06,0.05-0.07,0.07c-0.05,0.08-0.05,0.21-0.02,0.32
								c0.03,0.09,0.16,0.23,0.22,0.28l0.6,0.34c0.04,0.01,0.11,0.03,0.13,0.03c0.05-0.02,0.08-0.07,0.1-0.11
								c0.03-0.08,0.03-0.19,0-0.29c-0.03-0.12-0.1-0.21-0.18-0.26l-0.63-0.36C27.35,214,27.29,213.99,27.26,213.99
								C27.26,213.99,27.26,213.99,27.26,213.99z"/>
						</g>
					</g>
				</g>
				<g id="XMLID_3235_">
					<path id="XMLID_3243_" class="st1" d="M16.01,202.34l24.32-14c1.11-0.56,2.42-0.52,3.49,0.11l50.6,29.12
						c0.9,0.6,0.97,1.78-0.29,2.53l-24.31,13.98c-1.09,0.55-2.38,0.5-3.44-0.11l-50.45-29.05
						C14.93,204.33,14.97,202.87,16.01,202.34z"/>
					<path id="XMLID_3236_" class="st0" d="M66.27,234.17l-50.45-29.05c-0.55-0.32-0.86-0.88-0.84-1.51
						c0.02-0.63,0.37-1.17,0.93-1.46l24.32-14c1.18-0.59,2.57-0.55,3.71,0.11l50.61,29.12c0.5,0.34,0.78,0.83,0.77,1.37
						c-0.02,0.6-0.4,1.15-1.07,1.55l-24.33,13.99c-0.54,0.27-1.13,0.41-1.72,0.41C67.53,234.69,66.87,234.52,66.27,234.17z
						 M40.44,188.55l-24.32,14l-0.01,0.01c-0.41,0.21-0.67,0.61-0.68,1.07c-0.02,0.46,0.21,0.87,0.61,1.11l50.45,29.05
						c0.99,0.58,2.2,0.61,3.21,0.11l24.31-13.98c0.53-0.32,0.83-0.73,0.85-1.17c0.01-0.37-0.2-0.73-0.55-0.97l-50.6-29.12
						c-0.54-0.31-1.14-0.47-1.73-0.47C41.45,188.18,40.93,188.3,40.44,188.55z"/>
				</g>
				<g id="XMLID_3230_">
					<path id="XMLID_3231_" class="st1" d="M70,239.99l0.42-0.18c-0.49-1.17,0-2.55,0-2.56L70,237.1
						C69.97,237.17,69.44,238.66,70,239.99z"/>
				</g>
				<g id="XMLID_3226_">
					<path id="XMLID_3227_" class="st1" d="M84.28,232.16c-0.18-0.11-0.28-0.32-0.28-0.6c0-0.44,0.27-0.94,0.61-1.14l2.06-1.19
						c0.19-0.11,0.39-0.12,0.55-0.03c0.18,0.11,0.28,0.32,0.28,0.6c0,0.44-0.27,0.94-0.61,1.14l-2.06,1.19
						c-0.1,0.06-0.21,0.09-0.31,0.09C84.43,232.22,84.35,232.2,84.28,232.16z M86.66,230.54c0.2-0.12,0.38-0.46,0.38-0.74
						c0-0.12-0.03-0.19-0.06-0.2c-0.01-0.01-0.04,0-0.09,0.03l-2.06,1.19c-0.2,0.12-0.38,0.46-0.38,0.74c0,0.12,0.03,0.19,0.06,0.2
						c0.01,0,0.04,0,0.09-0.03L86.66,230.54z"/>
				</g>
			</g>
			<g id="XMLID_3203_">
				<g id="XMLID_3345_">
					<path id="XMLID_3224_" class="st1" d="M30.13,209.46l22.14-12.78c0.42-0.24,0.37-0.67-0.12-0.95l-6.37-3.68
						c-0.49-0.28-1.23-0.31-1.65-0.07l-22.14,12.78c-0.42,0.24-0.37,0.67,0.12,0.95l6.37,3.68C28.96,209.67,29.7,209.7,30.13,209.46
						z"/>
					<path id="XMLID_3221_" class="st0" d="M28.3,209.69l-6.37-3.68c-0.37-0.21-0.58-0.52-0.58-0.84c0-0.28,0.17-0.54,0.46-0.71
						l22.14-12.78c0.53-0.3,1.4-0.27,2,0.07l6.37,3.68c0.37,0.21,0.58,0.52,0.58,0.84c0,0.28-0.17,0.54-0.46,0.71L30.3,209.75
						c-0.24,0.14-0.56,0.21-0.89,0.21C29.02,209.96,28.62,209.87,28.3,209.69z M52.09,196.38c0.08-0.05,0.12-0.09,0.12-0.12
						c0-0.04-0.06-0.14-0.23-0.24l-6.37-3.68c-0.38-0.22-0.99-0.25-1.31-0.07l-22.14,12.78c-0.08,0.05-0.11,0.09-0.11,0.12
						c0,0.04,0.06,0.14,0.23,0.24l6.37,3.68c0.38,0.22,0.99,0.25,1.31,0.07L52.09,196.38z"/>
				</g>
				<g id="XMLID_3344_">
					<ellipse id="XMLID_3220_" class="st3" cx="43.66" cy="197.34" rx="3.48" ry="2.01"/>
					<path id="XMLID_3217_" class="st0" d="M41.94,198.14c-0.77-0.44-1.19-1.05-1.19-1.72c0-0.66,0.42-1.27,1.19-1.72
						c1.47-0.85,3.78-0.85,5.26,0c0.77,0.44,1.19,1.05,1.19,1.72c0,0.66-0.42,1.27-1.19,1.72c-0.74,0.43-1.68,0.64-2.63,0.64
						C43.62,198.78,42.68,198.57,41.94,198.14z M42.28,195.3c-0.55,0.32-0.85,0.71-0.85,1.12c0,0.41,0.3,0.81,0.85,1.12
						c1.26,0.73,3.32,0.73,4.58,0c0.55-0.32,0.85-0.71,0.85-1.12c0-0.41-0.3-0.81-0.85-1.12c-0.63-0.36-1.46-0.55-2.29-0.55
						C43.74,194.75,42.91,194.94,42.28,195.3z"/>
				</g>
				<g id="XMLID_3343_">
					<path id="XMLID_3216_" class="st4" d="M52,224.19l10.11-5.84c0.57-0.33,0.5-0.9-0.16-1.28l-6.63-3.83
						c-0.66-0.38-1.65-0.42-2.22-0.09l-10.11,5.84c-0.57,0.33-0.5,0.9,0.16,1.28l6.63,3.83C50.44,224.48,51.43,224.52,52,224.19z"/>
					<path id="XMLID_3212_" class="st0" d="M49.98,222.16l-6.63-3.83c-0.45-0.26-0.71-0.64-0.71-1.02c0-0.34,0.2-0.65,0.56-0.85
						l10.11-5.84c0.67-0.39,1.8-0.35,2.56,0.09l6.63,3.83c0.45,0.26,0.71,0.63,0.71,1.02c0,0.34-0.2,0.65-0.56,0.85l-10.11,5.84
						c-0.31,0.18-0.71,0.27-1.14,0.27C50.91,222.52,50.39,222.4,49.98,222.16z M53.64,211.21l-10.11,5.84
						c-0.08,0.05-0.21,0.14-0.21,0.26c0,0.1,0.1,0.27,0.37,0.43l6.63,3.83c0.55,0.32,1.41,0.36,1.88,0.09l10.11-5.84
						c0.08-0.05,0.21-0.14,0.21-0.26c0-0.1-0.1-0.27-0.37-0.43l-6.63-3.83c-0.31-0.18-0.71-0.27-1.09-0.27
						C54.14,211.03,53.85,211.09,53.64,211.21z"/>
				</g>
				<g id="XMLID_3355_">
					<path id="XMLID_3211_" class="st1" d="M67.06,230.48l21.8-12.59c0.51-0.29,0.44-0.8-0.14-1.14l-10.9-6.21
						c-0.59-0.34-1.47-0.37-1.98-0.08l-21.8,12.59c-0.51,0.29-0.44,0.8,0.14,1.14l10.9,6.21C65.67,230.74,66.56,230.78,67.06,230.48
						z"/>
					<path id="XMLID_3208_" class="st0" d="M64.92,230.7l-10.9-6.21c-0.42-0.24-0.66-0.58-0.66-0.94c0-0.32,0.18-0.6,0.51-0.79
						l21.8-12.59c0.61-0.35,1.63-0.32,2.32,0.08l10.9,6.21c0.42,0.24,0.66,0.58,0.66,0.94c0,0.32-0.18,0.6-0.51,0.79l-21.8,12.59
						c-0.28,0.16-0.65,0.24-1.03,0.24C65.75,231.02,65.29,230.91,64.92,230.7z M76.01,210.76l-21.8,12.59
						c-0.05,0.03-0.17,0.11-0.17,0.2c0,0.08,0.08,0.22,0.31,0.35l10.9,6.21c0.47,0.27,1.24,0.31,1.64,0.08l21.8-12.59
						c0.05-0.03,0.17-0.11,0.17-0.2c0-0.08-0.08-0.22-0.31-0.35l-10.9-6.21c-0.27-0.15-0.62-0.24-0.95-0.24
						C76.44,210.61,76.19,210.66,76.01,210.76z"/>
				</g>
				<g id="XMLID_3329_">
					<path id="XMLID_3207_" class="st1" d="M36.09,213.16l22.58-13.04c0.3-0.17,0.26-0.48-0.08-0.68l-2.42-1.4
						c-0.35-0.2-0.87-0.22-1.17-0.05l-22.58,13.04c-0.3,0.17-0.26,0.48,0.08,0.68l2.42,1.4C35.27,213.31,35.79,213.33,36.09,213.16z
						"/>
					<path id="XMLID_3204_" class="st0" d="M34.75,213.41l-2.42-1.4c-0.29-0.17-0.46-0.42-0.46-0.68c0-0.24,0.14-0.45,0.37-0.59
						l22.58-13.04c0.41-0.24,1.06-0.21,1.52,0.05l2.42,1.4c0.29,0.17,0.46,0.42,0.46,0.68c0,0.24-0.14,0.45-0.37,0.59l-22.58,13.04
						c-0.19,0.11-0.43,0.16-0.68,0.16C35.29,213.62,34.99,213.55,34.75,213.41z M58.54,199.84c0,0-0.02-0.04-0.12-0.1l-2.42-1.4
						c-0.26-0.15-0.65-0.15-0.83-0.05l-22.62,13.02c0,0,0.02,0.05,0.12,0.1l2.42,1.4c0.26,0.15,0.66,0.15,0.83,0.05L58.54,199.84z"
						/>
				</g>
				<g id="XMLID_3325_">
					<path id="XMLID_5601_" class="st3" d="M41.19,217.36l22.58-13.04c0.3-0.17,0.26-0.48-0.08-0.68l-2.42-1.4
						c-0.35-0.2-0.87-0.22-1.17-0.05l-22.58,13.04c-0.3,0.17-0.26,0.48,0.08,0.68l2.42,1.4C40.36,217.51,40.89,217.53,41.19,217.36z
						"/>
					<path id="XMLID_5602_" class="st0" d="M39.84,216.35l-2.42-1.4c-0.29-0.17-0.46-0.42-0.46-0.68c0-0.24,0.14-0.45,0.37-0.59
						l22.58-13.04c0.41-0.24,1.06-0.21,1.52,0.05l2.42,1.4c0.29,0.17,0.46,0.42,0.46,0.68c0,0.24-0.14,0.45-0.37,0.59l-22.58,13.04
						c-0.19,0.11-0.43,0.16-0.68,0.16C40.38,216.56,40.08,216.49,39.84,216.35z M60.26,201.23l-22.62,13.02c0,0,0.02,0.05,0.12,0.1
						l2.42,1.4c0.26,0.15,0.66,0.15,0.83,0.05l22.62-13.02c0,0-0.02-0.04-0.12-0.1l-2.42-1.4c-0.14-0.08-0.33-0.12-0.49-0.12
						C60.47,201.16,60.34,201.19,60.26,201.23z"/>
				</g>
				<g id="XMLID_3346_">
					<path id="XMLID_5597_" class="st3" d="M60.34,212.46l8.66-5c0.36-0.21,0.31-0.57-0.1-0.81l-2.17-1.25
						c-0.42-0.24-1.04-0.27-1.4-0.06l-8.66,5c-0.36,0.21-0.31,0.57,0.1,0.81l2.17,1.25C59.35,212.65,59.98,212.67,60.34,212.46z"/>
					<path id="XMLID_5598_" class="st0" d="M58.75,211.44l-2.17-1.25c-0.33-0.19-0.51-0.46-0.52-0.75c0-0.26,0.15-0.5,0.41-0.65
						l8.66-5c0.47-0.27,1.22-0.25,1.75,0.06l2.17,1.25c0.33,0.19,0.51,0.46,0.52,0.75c0,0.26-0.15,0.5-0.41,0.65l-8.66,5
						c-0.22,0.13-0.5,0.19-0.78,0.19C59.38,211.69,59.04,211.6,58.75,211.44z M68.89,205.85c0-0.02-0.04-0.08-0.17-0.16l-2.17-1.25
						c-0.31-0.18-0.81-0.21-1.06-0.06l-8.66,5c-0.05,0.03-0.07,0.06-0.07,0.06l0,0c0,0.02,0.04,0.08,0.17,0.16l2.17,1.25
						c0.31,0.18,0.81,0.21,1.06,0.06l8.66-5C68.87,205.87,68.89,205.85,68.89,205.85L68.89,205.85z"/>
				</g>
				<g id="XMLID_3354_">
					<path id="XMLID_5593_" class="st3" d="M65.67,215.54l8.66-5c0.36-0.21,0.31-0.57-0.1-0.81l-2.17-1.25
						c-0.42-0.24-1.04-0.27-1.4-0.06l-8.66,5c-0.36,0.21-0.31,0.57,0.1,0.81l2.17,1.25C64.68,215.72,65.31,215.75,65.67,215.54z"/>
					<path id="XMLID_5594_" class="st0" d="M64.08,214.52l-2.17-1.25c-0.33-0.19-0.52-0.46-0.52-0.75c0-0.26,0.15-0.5,0.41-0.65
						l8.66-5c0.47-0.27,1.22-0.24,1.75,0.06l2.17,1.25c0.33,0.19,0.52,0.46,0.52,0.76c0,0.26-0.15,0.5-0.41,0.65l-8.66,5
						c-0.22,0.13-0.5,0.19-0.79,0.19C64.71,214.76,64.37,214.68,64.08,214.52z M74.15,208.98c0.05-0.03,0.07-0.06,0.07-0.06l0,0
						c0-0.02-0.04-0.09-0.17-0.16l-2.17-1.25c-0.31-0.18-0.81-0.21-1.06-0.06l-8.66,5c-0.05,0.03-0.07,0.05-0.07,0.05l0,0
						c0,0.02,0.04,0.08,0.17,0.16l2.17,1.25c0.31,0.18,0.81,0.21,1.06,0.06L74.15,208.98z"/>
				</g>
			</g>
		</g>
		<g id="XMLID_1002_">
			<g id="XMLID_1174_">
				<path id="XMLID_1173_" class="st5" d="M70.8,234.86c-0.31,0.18-0.31,0.48,0,0.66c0.31,0.18,0.82,0.18,1.14,0
					c0.31-0.18,0.31-0.48,0-0.66C71.62,234.68,71.11,234.68,70.8,234.86z"/>
				<path id="XMLID_1172_" class="st5" d="M73.78,233.14c-0.31,0.18-0.31,0.48,0,0.66c0.31,0.18,0.82,0.18,1.14,0
					c0.31-0.18,0.31-0.48,0-0.66C74.6,232.96,74.09,232.96,73.78,233.14z"/>
				<path id="XMLID_1004_" class="st5" d="M76.76,231.42c-0.31,0.18-0.31,0.48,0,0.66c0.31,0.18,0.82,0.18,1.14,0
					c0.31-0.18,0.31-0.48,0-0.66C77.58,231.24,77.07,231.24,76.76,231.42z"/>
			</g>
			<g id="XMLID_1176_">
				<path id="XMLID_1332_" class="st5" d="M96.35,220.18c-0.31,0.18-0.31,0.48,0,0.66c0.31,0.18,0.82,0.18,1.14,0
					c0.31-0.18,0.31-0.48,0-0.66C97.18,220,96.67,220,96.35,220.18z"/>
			</g>
			<g id="XMLID_1333_">
				<path id="XMLID_1339_" class="st5" d="M13.22,201.75c-0.31,0.18-0.31,0.48,0,0.66c0.31,0.18,0.82,0.18,1.14,0
					c0.31-0.18,0.31-0.48,0-0.66C14.05,201.57,13.54,201.57,13.22,201.75z"/>
			</g>
		</g>
	</g>
</g>
</svg>
