<?xml version="1.0" encoding="utf-8"?>
<!-- Generator: Adobe Illustrator 27.0.0, SVG Export Plug-In . SVG Version: 6.00 Build 0)  -->
<svg version="1.1" id="content_1_" xmlns="http://www.w3.org/2000/svg" xmlns:xlink="http://www.w3.org/1999/xlink" x="0px" y="0px"
	 viewBox="0 0 332.68 274.02" style="enable-background:new 0 0 332.68 274.02;" xml:space="preserve">
<style type="text/css">
	.st0{fill:#FFFFFF;}
	.st1{fill:#FFA498;}
	.st2{fill:#0D1857;}
	.st3{fill:#0D1756;}
	.st4{fill:#459CCF;}
	.st5{fill:#FFA69A;}
	.st6{fill:#FFA599;}
	.st7{fill:#EB4B4B;}
	.st8{fill:#0D1755;}
	.st9{fill:#FFA397;}
</style>
<g id="illustration">
	<g id="XMLID_5129_">
		<g id="XMLID_4904_">
			<g id="XMLID_4905_">
				<g id="XMLID_4908_">
					
						<rect id="XMLID_4914_" x="228.99" y="195.38" transform="matrix(0.8639 -0.5037 0.5037 0.8639 -65.0175 151.0946)" class="st0" width="36.07" height="0.91"/>
				</g>
				<g id="XMLID_4907_">
					
						<rect id="XMLID_4913_" x="252.29" y="201.31" transform="matrix(0.8639 -0.5037 0.5037 0.8639 -66.7504 156.5305)" class="st0" width="7.9" height="0.91"/>
				</g>
				<g id="XMLID_4906_">
					
						<rect id="XMLID_4912_" x="231.24" y="210.06" transform="matrix(0.8636 -0.5042 0.5042 0.8636 -73.235 150.3288)" class="st0" width="19.97" height="0.91"/>
				</g>
			</g>
			<g id="XMLID_4705_">
				<g id="XMLID_4707_">
					<path id="XMLID_4874_" class="st0" d="M186.16,196.78c4.8-1.86,10.12-1.16,13.22-0.46c1.43,0.33,2.25,1.84,1.76,3.23l0,0.01
						c-0.42,1.17-1.63,1.85-2.84,1.58c-3.52-0.79-10.62-1.63-14.36,3.21c-3.36,4.36-1.88,8.24-0.55,10.32
						c0.63,0.98,0.51,2.26-0.31,3.08l0,0c-1.1,1.11-2.96,0.95-3.81-0.37c-2.38-3.72-4.02-9.84,0.77-16.04
						C181.78,199.08,183.91,197.65,186.16,196.78z"/>
					<path id="XMLID_4901_" class="st1" d="M200.37,198.54c-3.1-0.7-8.42-1.4-13.22,0.46c-2.25,0.87-4.38,2.3-6.12,4.56
						c-3.25,4.21-3.53,8.38-2.63,11.79c0.29,0.63,0.62,1.22,0.96,1.76c0.84,1.32,2.71,1.48,3.81,0.37c0.41-0.42,0.65-0.95,0.7-1.5
						c-0.34-0.67-0.64-1.45-0.82-2.32c-1.17-2.19-2.02-5.69,0.98-9.59c3.74-4.84,10.84-4,14.36-3.21c1.21,0.27,2.43-0.41,2.84-1.58
						l0-0.01c0.04-0.1,0.05-0.21,0.07-0.31C201.02,198.77,200.71,198.62,200.37,198.54z"/>
					<path id="XMLID_4875_" class="st2" d="M181.32,218.97c-0.11,0-0.21-0.01-0.32-0.02c-0.89-0.09-1.67-0.57-2.14-1.32
						c-1.64-2.56-4.84-9.3,0.79-16.6c1.65-2.14,3.78-3.73,6.33-4.72l0,0c5.02-1.95,10.62-1.14,13.51-0.48
						c0.81,0.18,1.51,0.71,1.92,1.45c0.41,0.74,0.48,1.63,0.19,2.43c-0.5,1.41-1.97,2.22-3.42,1.9c-3.67-0.82-10.34-1.52-13.86,3.03
						c-3.06,3.97-1.98,7.49-0.53,9.75c0.76,1.19,0.61,2.71-0.37,3.7C182.87,218.66,182.11,218.97,181.32,218.97z M186.34,197.24
						c-2.38,0.92-4.37,2.4-5.91,4.4c-5.25,6.81-2.27,13.09-0.74,15.47c0.31,0.49,0.83,0.81,1.42,0.87c0.6,0.06,1.2-0.15,1.63-0.58
						c0.65-0.66,0.75-1.68,0.24-2.47c-1.33-2.07-3.02-6.23,0.58-10.88c3.85-4.99,10.96-4.27,14.85-3.39
						c0.96,0.22,1.94-0.33,2.27-1.26c0.19-0.54,0.15-1.13-0.13-1.63c-0.27-0.5-0.72-0.84-1.27-0.96
						C196.5,196.17,191.11,195.38,186.34,197.24L186.34,197.24z"/>
				</g>
			</g>
			<g id="XMLID_4702_">
				<path id="XMLID_4870_" class="st0" d="M198.77,195.52L198.77,195.52c0,0-0.04-0.03-0.11-0.08c-0.05-0.03-0.09-0.06-0.14-0.09
					c-0.96-0.61-4.47-2.5-6.92,0.57c-2.44,3.06-0.02,6.07,0.75,6.9c0.04,0.05,0.09,0.1,0.14,0.14c0.05,0.05,0.08,0.08,0.08,0.08
					c0.56,0.46,1.41,0.55,2.44,0.16c2.06-0.77,4.02-3.15,4.39-5.32C199.58,196.81,199.33,195.98,198.77,195.52L198.77,195.52
					L198.77,195.52z"/>
				<path id="XMLID_4871_" class="st2" d="M193.8,203.95c-0.6,0-1.12-0.17-1.54-0.52l-0.11-0.11c-0.05-0.05-0.11-0.11-0.17-0.18
					c-0.84-0.9-3.44-4.16-0.76-7.52c2.14-2.68,5.31-2.11,7.57-0.68c0.04,0.02,0.1,0.06,0.16,0.1l0.14,0.1
					c0.72,0.59,1.01,1.6,0.8,2.83c-0.4,2.36-2.46,4.86-4.7,5.7C194.7,203.86,194.23,203.95,193.8,203.95z M195.01,194.72
					c-1.02,0-2.11,0.37-3.02,1.52c-2.19,2.74,0,5.48,0.72,6.25c0.05,0.06,0.08,0.09,0.12,0.12c0.49,0.41,1.19,0.44,2.01,0.14
					c1.91-0.71,3.74-2.93,4.07-4.94c0.14-0.86-0.01-1.54-0.45-1.9l-0.08-0.06c-0.04-0.03-0.07-0.05-0.1-0.07
					C197.74,195.44,196.43,194.72,195.01,194.72z"/>
			</g>
			<g id="XMLID_4657_">
				<g id="XMLID_4640_">
					<g id="XMLID_4648_">
						<path id="XMLID_4866_" class="st0" d="M208.01,219.15l-4.78-2.74c-0.32-0.26-0.68-0.47-1.07-0.61l0,0
							c-1.38-0.51-3.14-0.28-5.06,0.83c-4.4,2.54-7.97,8.72-7.97,13.81c0,2.38,0.79,4.08,2.07,4.98l5.62,3.28
							c0.39,0.22,0.88,0.05,1.05-0.36l2.25-5.71c2.06-2.16,3.68-5.03,4.46-7.9l1.87-2.81l1.07-0.29l0.79-1.5
							C208.48,219.78,208.35,219.35,208.01,219.15z"/>
						<path id="XMLID_4867_" class="st2" d="M197.18,239.29c-0.21,0-0.43-0.06-0.62-0.17l-5.62-3.28c-1.5-1.05-2.32-2.96-2.32-5.4
							c0-5.23,3.69-11.62,8.22-14.23c1.97-1.14,3.91-1.45,5.47-0.87c0.44,0.17,0.85,0.4,1.22,0.69l4.71,2.69
							c0.57,0.33,0.78,1.04,0.48,1.63l-0.89,1.7l-1.1,0.3l-1.73,2.59c-0.8,2.88-2.43,5.77-4.49,7.96l-2.21,5.62
							c-0.13,0.33-0.4,0.59-0.74,0.71C197.45,239.27,197.32,239.29,197.18,239.29z M200.66,216.04c-1.01,0-2.15,0.35-3.32,1.02
							c-4.26,2.46-7.73,8.46-7.73,13.38c0,2.11,0.66,3.74,1.86,4.57l5.59,3.26c0.08,0.05,0.16,0.03,0.2,0.02
							c0.04-0.01,0.11-0.05,0.14-0.14l2.35-5.87c2-2.1,3.58-4.9,4.34-7.69l0.07-0.14l1.98-2.96l1.04-0.28l0.69-1.31
							c0.06-0.11,0.02-0.25-0.09-0.31v0l-4.78-2.74c-0.35-0.27-0.66-0.45-1-0.58C201.58,216.11,201.13,216.04,200.66,216.04z"/>
					</g>
					<g id="XMLID_4636_">
						<path id="XMLID_4862_" class="st3" d="M210.86,224.6c0,5.08-3.57,11.27-7.97,13.81c-4.4,2.54-7.97,0.48-7.97-4.6
							c0-5.08,3.57-11.27,7.97-13.81C207.29,217.46,210.86,219.52,210.86,224.6z"/>
						<path id="XMLID_4863_" class="st2" d="M199.32,239.99c-0.84,0-1.63-0.2-2.32-0.6c-1.66-0.96-2.58-2.94-2.58-5.59
							c0-5.23,3.69-11.62,8.22-14.23c2.29-1.32,4.47-1.52,6.13-0.56c1.66,0.96,2.58,2.95,2.58,5.59c0,5.23-3.69,11.62-8.22,14.24
							C201.8,239.61,200.5,239.99,199.32,239.99z M206.44,219.4c-1,0-2.13,0.34-3.31,1.02c-4.26,2.46-7.73,8.46-7.73,13.38
							c0,2.28,0.74,3.96,2.09,4.73c1.35,0.78,3.17,0.58,5.15-0.56c4.26-2.46,7.73-8.46,7.73-13.38c0-2.28-0.74-3.96-2.09-4.73
							C207.74,219.56,207.12,219.4,206.44,219.4z"/>
					</g>
					<g id="XMLID_4644_">
						<path id="XMLID_4846_" class="st3" d="M208.21,226.03c0,3.4-2.38,7.53-5.32,9.22c-2.94,1.7-5.32,0.32-5.32-3.07
							s2.38-7.53,5.32-9.22C205.83,221.25,208.21,222.63,208.21,226.03z"/>
						<path id="XMLID_4847_" class="st4" d="M200.51,236.47c-0.59,0-1.14-0.14-1.63-0.42c-1.16-0.67-1.81-2.05-1.81-3.87
							c0-3.55,2.5-7.88,5.57-9.65c1.58-0.91,3.09-1.04,4.26-0.37c1.16,0.67,1.81,2.05,1.81,3.87c0,3.55-2.5,7.88-5.57,9.65
							C202.21,236.21,201.32,236.47,200.51,236.47z M205.26,222.72c-0.64,0-1.37,0.22-2.13,0.66c-2.8,1.62-5.08,5.56-5.08,8.8
							c0,1.46,0.47,2.53,1.31,3.02c0.85,0.49,2.01,0.36,3.27-0.37c2.8-1.62,5.08-5.56,5.08-8.8c0-1.46-0.47-2.53-1.31-3.02
							C206.07,222.81,205.68,222.72,205.26,222.72z"/>
					</g>
				</g>
				<g id="XMLID_4646_">
					<g id="XMLID_4661_">
						<path id="XMLID_4842_" class="st0" d="M223.18,233.3l-14.63-8.44c-0.19-0.16-0.41-0.28-0.64-0.37l0,0
							c-0.83-0.31-1.89-0.17-3.04,0.5c-2.65,1.53-4.8,5.25-4.8,8.31c0,1.43,0.47,2.46,1.25,3l15.14,8.76
							c0.23,0.14,0.53,0.03,0.63-0.22l1.35-3.44c1.24-1.3,2.22-3.03,2.68-4.75l1.13-1.69l0.64-0.17l0.47-0.91
							C223.46,233.68,223.38,233.42,223.18,233.3z"/>
						<path id="XMLID_4891_" class="st0" d="M223.18,231.16l-14.63-8.44c-0.19-0.16-0.41-0.28-0.64-0.37l0,0
							c-0.83-0.31-1.89-0.17-3.04,0.5c-2.65,1.53-4.8,5.25-4.8,8.31c0,1.43,0.47,2.46,1.25,3l15.14,8.76
							c0.23,0.13,0.53,0.03,0.63-0.22l1.35-3.44c1.24-1.3,2.22-3.03,2.68-4.75l1.13-1.69l0.64-0.17l0.47-0.91
							C223.46,231.54,223.38,231.28,223.18,231.16z"/>
						<path id="XMLID_4896_" class="st3" d="M223.17,233.44l-0.86-0.5l-0.08,0.02l-1.13,1.69c-0.47,1.72-1.44,3.45-2.68,4.75
							l-1.35,3.44c-0.1,0.25-0.4,0.35-0.63,0.22l-15.14-8.76c-0.57-0.4-0.98-1.07-1.15-1.98c-0.06,0.38-0.09,0.76-0.09,1.12
							c0,1.43,0.47,2.46,1.25,3l15.14,8.76c0.23,0.14,0.53,0.03,0.63-0.22l1.35-3.44c1.24-1.3,2.22-3.03,2.68-4.75l1.13-1.69
							l0.64-0.17l0.47-0.91C223.45,233.82,223.37,233.56,223.17,233.44z"/>
						<path id="XMLID_4895_" class="st5" d="M221.5,232.44l-13.17-7.59c-0.19-0.16-0.41-0.28-0.64-0.37l0,0
							c-0.83-0.31-1.89-0.17-3.04,0.5c-1.74,1-3.24,2.95-4.08,5.03c0.17,0.93,0.58,1.63,1.16,2.03l15.14,8.76
							c0.23,0.14,0.53,0.03,0.63-0.22l1.35-3.44C220.06,235.86,221.03,234.15,221.5,232.44z"/>
						<path id="XMLID_4843_" class="st2" d="M216.66,245.61c-0.16,0-0.33-0.04-0.47-0.13l-15.14-8.76
							c-0.97-0.68-1.49-1.88-1.49-3.42c0-3.21,2.26-7.13,5.04-8.74c1.23-0.71,2.46-0.91,3.46-0.54c0.29,0.11,0.55,0.26,0.79,0.45
							l14.57,8.39c0.44,0.25,0.6,0.79,0.36,1.24l-0.57,1.1l-0.67,0.18l-0.98,1.47c-0.49,1.74-1.47,3.49-2.71,4.82l-1.32,3.35
							c-0.1,0.25-0.3,0.45-0.56,0.54C216.87,245.6,216.77,245.61,216.66,245.61z M207,224.83c-0.57,0-1.22,0.2-1.9,0.59
							c-2.51,1.45-4.55,4.99-4.55,7.88c0,1.21,0.37,2.13,1.04,2.59l15.1,8.74l1.38-3.57c1.18-1.24,2.12-2.9,2.56-4.54l0.07-0.14
							l1.23-1.85l0.61-0.17l0.35-0.67l-14.59-8.41c-0.22-0.17-0.39-0.27-0.57-0.33C207.51,224.87,207.26,224.83,207,224.83z"/>
					</g>
					<g id="XMLID_4660_">
						<path id="XMLID_4838_" class="st0" d="M224.89,236.58c0,3.06-2.15,6.78-4.8,8.31c-2.65,1.53-4.8,0.29-4.8-2.77
							s2.15-6.78,4.8-8.31C222.74,232.28,224.89,233.52,224.89,236.58z"/>
						<path id="XMLID_4839_" class="st2" d="M217.95,246.04c-0.54,0-1.05-0.13-1.5-0.39c-1.06-0.62-1.65-1.87-1.65-3.53
							c0-3.21,2.26-7.13,5.04-8.74c1.44-0.83,2.82-0.95,3.88-0.34c1.07,0.62,1.65,1.87,1.65,3.53c0,3.21-2.26,7.13-5.04,8.74
							C219.51,245.8,218.7,246.04,217.95,246.04z M222.24,233.65c-0.57,0-1.22,0.2-1.9,0.59c-2.51,1.45-4.55,4.99-4.55,7.88
							c0,1.3,0.41,2.25,1.16,2.68c0.75,0.43,1.78,0.31,2.9-0.34c2.51-1.45,4.55-4.99,4.55-7.88c0-1.3-0.41-2.25-1.16-2.68
							C222.95,233.73,222.61,233.65,222.24,233.65z"/>
					</g>
				</g>
				<g id="XMLID_4650_">
					<g id="XMLID_4656_">
						<path id="XMLID_4834_" class="st0" d="M231.74,232.83l-4.78-2.74c-0.32-0.26-0.68-0.47-1.07-0.61l0,0
							c-1.38-0.51-3.14-0.28-5.06,0.83c-4.4,2.54-7.97,8.72-7.97,13.81c0,2.38,0.79,4.08,2.07,4.98l5.62,3.28
							c0.39,0.22,0.88,0.05,1.05-0.36l2.25-5.71c2.06-2.16,3.68-5.03,4.46-7.9l1.87-2.81l1.07-0.29l0.79-1.5
							C232.2,233.46,232.08,233.03,231.74,232.83z"/>
						<path id="XMLID_4898_" class="st3" d="M231.69,232.78l-1.2-0.69l-0.28,0.53l-1.07,0.29l-1.87,2.81
							c-0.78,2.86-2.4,5.74-4.46,7.9l-2.24,5.71c-0.16,0.42-0.66,0.59-1.05,0.36l-5.62-3.28c-0.38-0.26-0.71-0.61-0.99-1.01
							c0.24,1.68,0.94,2.92,1.97,3.64l5.62,3.28c0.39,0.22,0.88,0.05,1.05-0.36l2.25-5.71c2.06-2.16,3.68-5.03,4.46-7.9l1.87-2.81
							l1.07-0.29l0.79-1.5C232.15,233.41,232.03,232.98,231.69,232.78z"/>
						<path id="XMLID_4899_" class="st6" d="M231.42,234.57l-4.09-2.34c-0.32-0.26-0.68-0.47-1.07-0.61l0,0
							c-1.38-0.51-3.14-0.28-5.06,0.83c-2.34,1.35-4.43,3.73-5.89,6.42c0.16,0.15,0.32,0.29,0.5,0.42l5.62,3.28
							c0.39,0.22,0.88,0.05,1.05-0.36l5.53-2.96c0.09-0.27,0.18-0.55,0.25-0.82l1.87-2.81l1.07-0.29l0.3-0.57
							C231.47,234.68,231.44,234.63,231.42,234.57z"/>
						<path id="XMLID_4835_" class="st2" d="M220.91,252.97c-0.21,0-0.42-0.06-0.61-0.17l-5.62-3.28c-1.5-1.04-2.31-2.96-2.31-5.4
							c0-5.23,3.69-11.62,8.22-14.23c1.97-1.14,3.91-1.45,5.47-0.87c0.44,0.16,0.85,0.4,1.21,0.69l4.72,2.69
							c0.57,0.33,0.78,1.04,0.48,1.63l-0.89,1.7l-1.1,0.3l-1.73,2.59c-0.8,2.88-2.43,5.77-4.49,7.96l-2.21,5.62
							c-0.13,0.33-0.4,0.59-0.74,0.71C221.18,252.95,221.04,252.97,220.91,252.97z M224.39,229.72c-1.01,0-2.15,0.35-3.32,1.02
							c-4.26,2.46-7.73,8.46-7.73,13.38c0,2.11,0.66,3.74,1.86,4.57l5.59,3.26c0.08,0.05,0.16,0.03,0.2,0.02
							c0.04-0.01,0.11-0.05,0.14-0.14l2.35-5.87c2-2.1,3.58-4.9,4.34-7.69l0.07-0.14l1.98-2.96l1.04-0.28l0.69-1.31
							c0.06-0.11,0.02-0.25-0.09-0.32l-4.78-2.74c-0.35-0.27-0.66-0.45-1-0.58C225.3,229.8,224.86,229.72,224.39,229.72z"/>
					</g>
					<g id="XMLID_4654_">
						<path id="XMLID_4830_" class="st3" d="M234.58,238.28c0,5.08-3.57,11.27-7.97,13.81c-4.4,2.54-7.97,0.48-7.97-4.6
							c0-5.08,3.57-11.27,7.97-13.81C231.01,231.14,234.58,233.2,234.58,238.28z"/>
						<path id="XMLID_4831_" class="st2" d="M223.05,253.68c-0.84,0-1.63-0.2-2.32-0.6c-1.66-0.96-2.58-2.95-2.58-5.59
							c0-5.23,3.69-11.62,8.22-14.23c2.29-1.32,4.47-1.52,6.13-0.56c1.66,0.96,2.58,2.95,2.58,5.59c0,5.23-3.69,11.62-8.22,14.23
							C225.52,253.29,224.23,253.68,223.05,253.68z M230.17,233.08c-1,0-2.13,0.34-3.31,1.02c-4.26,2.46-7.73,8.46-7.73,13.38
							c0,2.28,0.74,3.96,2.09,4.74c1.35,0.78,3.17,0.58,5.14-0.56c4.26-2.46,7.73-8.46,7.73-13.38c0-2.28-0.74-3.96-2.09-4.74
							C231.46,233.24,230.84,233.08,230.17,233.08z"/>
					</g>
					<g id="XMLID_4652_">
						<path id="XMLID_4826_" class="st0" d="M230.08,241.96c0,1.74-1.22,3.85-2.73,4.72c-1.51,0.87-2.73,0.16-2.73-1.57
							s1.22-3.85,2.73-4.72C228.86,239.52,230.08,240.22,230.08,241.96z"/>
						<path id="XMLID_4827_" class="st4" d="M224.23,250.15c-0.59,0-1.14-0.14-1.63-0.42c-1.16-0.67-1.81-2.05-1.81-3.87
							c0-3.55,2.5-7.87,5.57-9.65c1.58-0.91,3.09-1.05,4.26-0.37c1.16,0.67,1.81,2.05,1.81,3.87c0,3.55-2.5,7.88-5.57,9.65
							C225.94,249.89,225.05,250.15,224.23,250.15z M228.99,236.4c-0.64,0-1.37,0.22-2.13,0.66c-2.8,1.62-5.08,5.56-5.08,8.8
							c0,1.46,0.47,2.53,1.31,3.02c0.85,0.49,2.01,0.35,3.27-0.37c2.8-1.62,5.08-5.56,5.08-8.8c0-1.46-0.47-2.53-1.31-3.02
							C229.79,236.49,229.41,236.4,228.99,236.4z"/>
					</g>
				</g>
			</g>
			<g id="XMLID_4882_">
				<g id="XMLID_561_">
					<g id="XMLID_4638_">
						<path id="XMLID_4822_" class="st0" d="M223.9,201.96l-18.07-10.43c-0.94-0.54-1.78-0.6-2.4-0.26v0l0,0
							c-0.03,0.02-0.06,0.04-0.09,0.05l-9.77,5.8c-0.15,0.09-0.19,0.29-0.08,0.42l12.01,14.75l0.07,0.4
							c0.16,0.91,0.51,1.87,1.02,2.77l2.79,4.89c0.03,0.05,0.04,0.11,0.04,0.17l-1.5,12.99c-0.03,0.23,0.22,0.4,0.43,0.28l9.3-5.47
							l5.51-3.31c0.51-0.31,0.86-0.86,1.02-1.59l3.11-14.69C227.74,206.52,226.1,203.23,223.9,201.96z"/>
						<path id="XMLID_4894_" class="st5" d="M208.53,233.95l9.3-5.47l5.51-3.31c0.51-0.31,0.86-0.86,1.02-1.59l2.9-13.65
							c-0.53-1.69-1.71-3.39-3.15-4.22l-18.07-10.43c-0.94-0.54-1.78-0.6-2.4-0.26l0,0l0,0c-0.03,0.02-0.06,0.04-0.09,0.05
							l-8.08,4.8l10.24,12.58l0.07,0.4c0.16,0.91,0.51,1.87,1.02,2.77l2.79,4.89c0.03,0.05,0.04,0.11,0.04,0.17l-0.33,2.89l0.3,0.53
							c0.03,0.05,0.04,0.11,0.04,0.17l-1.12,9.69C208.5,233.96,208.52,233.96,208.53,233.95z"/>
						<path id="XMLID_4823_" class="st2" d="M208.19,234.33c-0.15,0-0.29-0.04-0.42-0.13c-0.25-0.16-0.38-0.45-0.35-0.74l1.5-12.92
							l-2.75-4.84c-0.54-0.94-0.91-1.96-1.08-2.93l-0.05-0.28l-11.93-14.65c-0.14-0.18-0.2-0.41-0.16-0.63
							c0.04-0.22,0.18-0.42,0.37-0.53l9.88-5.86c0.81-0.43,1.83-0.34,2.88,0.27l18.07,10.43c2.41,1.39,4.12,4.87,3.61,7.31
							l-3.11,14.69c-0.18,0.87-0.62,1.53-1.25,1.91l-5.51,3.31l-9.3,5.48C208.46,234.29,208.33,234.33,208.19,234.33z
							 M194.03,197.42l11.94,14.66l0.09,0.53c0.15,0.86,0.48,1.76,0.96,2.6l2.79,4.9c0.08,0.14,0.12,0.31,0.1,0.47l-1.46,12.58
							l8.94-5.26l5.5-3.31c0.39-0.23,0.66-0.67,0.79-1.27l3.11-14.69c0.42-2-1.13-5.09-3.14-6.25l-18.07-10.43
							c-0.74-0.43-1.42-0.52-1.92-0.26L194.03,197.42z"/>
					</g>
					<g id="XMLID_564_">
						<path id="XMLID_4817_" class="st0" d="M192.67,200.18l3.11,18.28c0.16,0.91,0.51,1.87,1.02,2.77l5.51,9.67
							c1.52,2.67,4.02,4.11,5.54,3.2l5.51-3.31c0.51-0.31,0.86-0.86,1.02-1.59l3.11-14.69c0.47-2.21-1.17-5.51-3.37-6.78
							l-18.07-10.43C193.84,196.02,192.2,197.42,192.67,200.18z"/>
						<path id="XMLID_4818_" class="st2" d="M206.81,234.86c-0.27,0-0.55-0.04-0.83-0.11c-1.48-0.39-3.05-1.77-4.1-3.61l-5.51-9.67
							c-0.54-0.95-0.91-1.96-1.08-2.93l-3.12-18.28c-0.27-1.61,0.1-2.9,1.02-3.54c0.81-0.57,1.94-0.51,3.08,0.15l18.07,10.43
							c2.41,1.39,4.12,4.87,3.61,7.31l-3.11,14.69c-0.19,0.87-0.62,1.53-1.25,1.91l-5.5,3.31
							C207.72,234.74,207.28,234.86,206.81,234.86z M193.15,200.09l3.12,18.28c0.15,0.86,0.48,1.76,0.96,2.61l5.5,9.67
							c0.92,1.62,2.26,2.82,3.49,3.14c0.53,0.14,0.99,0.1,1.36-0.12l5.51-3.31c0.39-0.23,0.66-0.67,0.79-1.27L217,214.4
							c0.42-2-1.13-5.09-3.14-6.25l-18.07-10.43c-0.81-0.47-1.53-0.54-2.03-0.19C193.18,197.93,192.95,198.89,193.15,200.09
							L193.15,200.09z"/>
					</g>
				</g>
				<polygon id="XMLID_4889_" class="st3" points="216.83,210.6 226.48,204.63 227.35,207.98 225.12,218.91 223.89,223.85 
					223.14,225.01 213.94,230.49 217.48,214.5 217.07,211.37 				"/>
			</g>
			<g id="XMLID_4665_">
				<g id="XMLID_4688_">
					<g id="XMLID_4698_">
						<polygon id="XMLID_4881_" class="st0" points="190.54,239.79 174.44,230.5 174.44,211.91 190.54,221.2 						"/>
					</g>
					<g id="XMLID_4696_">
						<polygon id="XMLID_4880_" class="st0" points="206.64,211.91 190.54,221.2 174.44,211.91 190.54,202.61 						"/>
					</g>
					<g id="XMLID_4695_">
						<polygon id="XMLID_4879_" class="st7" points="206.64,217.3 192.16,225.56 176.06,216.27 190.54,208.01 						"/>
					</g>
					<g id="XMLID_4690_">
						<path id="XMLID_4951_" class="st3" d="M190.54,202.06l-16.1,9.3l-0.47,0.29v19.12l16.1,9.3l0,0l0.47,0.27l0.47-0.27l0,0
							l16.1-9.3v-18.59v-0.55L190.54,202.06z M190.54,203.16l15.16,8.75l-7.61,4.39l-7.55,4.36l-2.38-1.37l-12.78-7.38
							L190.54,203.16z M174.91,230.23v-17.5l15.16,8.75v17.5L174.91,230.23z"/>
					</g>
				</g>
			</g>
			<g id="XMLID_4634_">
				<g id="XMLID_4642_">
					<path id="XMLID_4813_" class="st8" d="M222.67,189.43h-23.62l6.2,9.1h0.01c0.22,0.61,0.73,1.18,1.55,1.65
						c2.24,1.29,5.88,1.29,8.12,0c0.82-0.47,1.33-1.05,1.55-1.65h0.01L222.67,189.43z"/>
					<path id="XMLID_4814_" class="st2" d="M210.86,201.65c-1.55,0-3.1-0.35-4.31-1.05c-0.85-0.49-1.45-1.12-1.73-1.83l-6.09-8.95
						c-0.26-0.38,0.01-0.89,0.47-0.89h22.91c0.64,0,1.01,0.71,0.66,1.24l-5.85,8.59c-0.28,0.71-0.88,1.34-1.73,1.84
						C213.96,201.3,212.41,201.65,210.86,201.65z M205.51,198.03h0.08l0.12,0.32c0.19,0.52,0.65,1.01,1.33,1.4
						c2.1,1.21,5.53,1.21,7.63,0c0.68-0.39,1.14-0.88,1.33-1.4l0.12-0.32h0.09l5.53-8.11h-21.76L205.51,198.03z"/>
				</g>
				<g id="XMLID_4626_">
					<path id="XMLID_4809_" class="st0" d="M223.43,186.96L223.43,186.96c0,0-0.01-0.13-0.03-0.35c-0.01-0.14-0.02-0.28-0.05-0.43
						c-0.36-2.9-2.35-12.98-12.49-12.82c-10.09,0.16-12.11,9.92-12.49,12.8c-0.03,0.17-0.05,0.34-0.06,0.52
						c-0.02,0.18-0.02,0.28-0.02,0.28c0,1.86,1.23,3.71,3.68,5.13c4.91,2.83,12.87,2.83,17.78,0
						C222.2,190.68,223.43,188.82,223.43,186.96L223.43,186.96L223.43,186.96z"/>
					<path id="XMLID_4810_" class="st2" d="M210.86,194.7c-3.31,0-6.62-0.73-9.13-2.18c-2.53-1.46-3.93-3.44-3.93-5.56l0.03-0.33
						c0.01-0.18,0.03-0.37,0.07-0.56c0.4-3.03,2.52-13.04,12.96-13.2c10.53-0.15,12.59,10.1,12.99,13.25
						c0.02,0.12,0.04,0.27,0.05,0.42c0.03,0.27,0.03,0.41,0.03,0.41c0,2.12-1.4,4.1-3.93,5.56
						C217.47,193.97,214.17,194.7,210.86,194.7z M211.09,173.85c-0.08,0-0.15,0-0.23,0c-9.66,0.15-11.63,9.51-12.01,12.37
						c-0.03,0.18-0.05,0.33-0.06,0.48l-0.02,0.28c0,1.72,1.22,3.39,3.44,4.67c4.77,2.75,12.52,2.75,17.28,0
						c2.21-1.28,3.43-2.94,3.44-4.69c0-0.04-0.01-0.14-0.03-0.32c-0.01-0.15-0.02-0.27-0.04-0.38
						C222.5,183.33,220.57,173.85,211.09,173.85z"/>
				</g>
				<g id="XMLID_4621_">
					<path id="XMLID_4805_" class="st6" d="M214.38,175.52c1.94,1.12,1.94,2.94,0,4.07c-1.94,1.12-5.1,1.12-7.04,0
						c-1.94-1.12-1.94-2.94,0-4.07C209.28,174.4,212.43,174.4,214.38,175.52z"/>
					<path id="XMLID_4806_" class="st2" d="M210.86,177.92c-0.72,0-1.44-0.16-2.01-0.49c-0.63-0.36-0.98-0.88-0.97-1.44
						c0-0.57,0.35-1.08,0.97-1.44c1.12-0.65,2.89-0.65,4.01,0c0.63,0.36,0.97,0.88,0.98,1.44c0,0.57-0.35,1.08-0.98,1.44
						C212.3,177.76,211.58,177.92,210.86,177.92z M210.86,175.05c-0.55,0-1.1,0.12-1.51,0.36c-0.31,0.18-0.48,0.39-0.48,0.59
						c0,0.2,0.18,0.41,0.48,0.59c0.82,0.47,2.21,0.47,3.03,0c0.31-0.18,0.48-0.39,0.48-0.59c0-0.2-0.18-0.41-0.48-0.59
						C211.96,175.17,211.41,175.05,210.86,175.05z"/>
				</g>
				<g id="XMLID_4622_">
					<path id="XMLID_4788_" class="st0" d="M213.13,160.65c1.26,0.73,1.26,1.9,0,2.63c-1.26,0.73-3.3,0.73-4.55,0
						c-1.26-0.73-1.26-1.9,0-2.63C209.84,159.93,211.88,159.93,213.13,160.65z"/>
					<path id="XMLID_4789_" class="st2" d="M210.86,162.5c-0.91,0-1.82-0.2-2.52-0.61c-0.77-0.44-1.19-1.06-1.19-1.74
						c0-0.68,0.42-1.3,1.19-1.74c1.41-0.82,3.63-0.82,5.05,0l0,0c0.77,0.44,1.19,1.06,1.19,1.74c0,0.68-0.42,1.3-1.19,1.74
						C212.67,162.29,211.77,162.5,210.86,162.5z M210.86,158.78c-0.74,0-1.48,0.16-2.03,0.48c-0.44,0.26-0.7,0.58-0.7,0.89
						c0,0.31,0.25,0.63,0.7,0.89c1.1,0.63,2.96,0.63,4.06,0c0.44-0.26,0.7-0.58,0.7-0.89c0-0.31-0.25-0.63-0.7-0.89
						C212.34,158.94,211.6,158.78,210.86,158.78z"/>
				</g>
				<g id="XMLID_4628_">
					<path id="XMLID_4782_" class="st0" d="M211.99,156.61c0.63,0.36,0.63,0.95,0,1.31c-0.63,0.36-1.64,0.36-2.27,0
						c-0.63-0.36-0.63-0.95,0-1.31C210.35,156.25,211.37,156.25,211.99,156.61z"/>
					<path id="XMLID_4785_" class="st2" d="M210.86,156.86c-0.5,0-0.99-0.11-1.38-0.33c-0.46-0.26-0.72-0.66-0.72-1.08
						c0-0.42,0.26-0.82,0.72-1.08c0.77-0.45,1.99-0.45,2.76,0l0,0c0.46,0.26,0.72,0.66,0.72,1.08c0,0.42-0.26,0.82-0.72,1.08
						C211.85,156.74,211.35,156.86,210.86,156.86z M210.86,155.01c-0.33,0-0.65,0.07-0.89,0.2c-0.16,0.09-0.22,0.19-0.22,0.23
						s0.06,0.13,0.22,0.23c0.47,0.27,1.3,0.27,1.78,0c0.16-0.09,0.22-0.19,0.22-0.23s-0.06-0.13-0.22-0.23
						C211.51,155.08,211.18,155.01,210.86,155.01z"/>
				</g>
				<g id="XMLID_4630_">
					<rect id="XMLID_4784_" x="210.37" y="156.37" class="st2" width="0.99" height="3.78"/>
				</g>
				<g id="XMLID_4632_">
					<rect id="XMLID_4783_" x="210.37" y="162" class="st2" width="0.99" height="13.99"/>
				</g>
			</g>
			<g id="XMLID_4658_">
				<path id="XMLID_4769_" class="st4" d="M214.79,187.65c-0.29,2.27-1.84,3.94-3.46,3.73c-1.62-0.21-2.7-2.22-2.41-4.48
					c0.29-2.27,1.84-3.94,3.46-3.73C214,183.37,215.08,185.38,214.79,187.65z"/>
				<path id="XMLID_4770_" class="st2" d="M210.01,191.89c-0.11,0-0.22-0.01-0.33-0.02c-1.89-0.24-3.16-2.5-2.84-5.04
					c0.33-2.53,2.13-4.4,4.02-4.16c1.89,0.24,3.16,2.5,2.84,5.04v0C213.39,190.1,211.77,191.89,210.01,191.89z M210.52,183.64
					c-1.27,0-2.46,1.43-2.7,3.32c-0.26,2,0.63,3.76,1.98,3.93c1.36,0.18,2.66-1.31,2.91-3.3l0,0c0.26-2-0.63-3.76-1.98-3.93
					C210.66,183.65,210.59,183.64,210.52,183.64z"/>
			</g>
			<g id="XMLID_4663_">
				<path id="XMLID_4764_" class="st4" d="M204.15,185.13c-0.47,2.24-1.75,3.87-2.86,3.63c-1.11-0.23-1.64-2.24-1.17-4.48
					c0.47-2.24,1.75-3.87,2.86-3.63C204.1,180.89,204.62,182.89,204.15,185.13z"/>
				<path id="XMLID_4765_" class="st2" d="M200.16,189.28c-0.11,0-0.21-0.01-0.32-0.03c-0.73-0.15-1.28-0.81-1.55-1.84
					c-0.24-0.92-0.24-2.06,0-3.22c0.54-2.59,2.02-4.31,3.45-4.01c1.42,0.3,2.09,2.47,1.55,5.06c-0.24,1.16-0.7,2.2-1.28,2.95
					C201.43,188.9,200.79,189.28,200.16,189.28z M201.42,181.13c-0.72,0-1.76,1.32-2.17,3.26c-0.21,1.01-0.22,1.99-0.01,2.76
					c0.17,0.65,0.46,1.06,0.8,1.13c0.33,0.07,0.77-0.19,1.19-0.71c0.49-0.63,0.88-1.53,1.09-2.54v0c0.43-2.04-0.06-3.74-0.79-3.89
					C201.49,181.13,201.46,181.13,201.42,181.13z"/>
			</g>
			<g id="XMLID_4759_">
				<g id="XMLID_4699_">
					<path id="XMLID_4777_" class="st0" d="M221.03,217.96L221.03,217.96c0,0,0.05,0.02,0.13,0.05c0.05,0.02,0.1,0.04,0.16,0.06
						c1.07,0.37,4.93,1.38,6.6-2.18c1.66-3.55-1.4-5.91-2.34-6.53c-0.05-0.04-0.11-0.07-0.17-0.11c-0.06-0.04-0.09-0.06-0.09-0.06
						c-0.65-0.32-1.5-0.2-2.42,0.41c-1.82,1.23-3.17,4.01-3.02,6.2C219.95,216.9,220.39,217.64,221.03,217.96L221.03,217.96
						L221.03,217.96z"/>
					<path id="XMLID_4903_" class="st9" d="M225.59,209.33c-0.05-0.04-0.11-0.07-0.17-0.11c-0.06-0.04-0.09-0.06-0.09-0.06
						c-0.23-0.11-0.5-0.15-0.79-0.15c-1.37,1.41-2.29,3.63-2.16,5.46c0.08,1.1,0.52,1.84,1.16,2.16l0,0v0c0,0,0.05,0.02,0.13,0.05
						c0.05,0.02,0.1,0.04,0.16,0.06c0.57,0.19,1.91,0.56,3.3,0.35c0.3-0.33,0.58-0.73,0.81-1.22
						C229.59,212.32,226.53,209.95,225.59,209.33z"/>
					<path id="XMLID_4778_" class="st2" d="M223.71,218.97c-0.87,0-1.75-0.17-2.55-0.44c-0.04-0.01-0.1-0.03-0.17-0.06
						c-0.07-0.03-0.13-0.05-0.17-0.07l0,0c-0.84-0.41-1.35-1.32-1.44-2.56c-0.17-2.38,1.25-5.3,3.24-6.64
						c1.03-0.7,2.06-0.86,2.91-0.45l0.14,0.08c0.06,0.03,0.13,0.08,0.2,0.13c1.03,0.68,4.32,3.24,2.5,7.13
						C227.37,218.21,225.56,218.97,223.71,218.97z M221.24,217.51l0.1,0.04c0.05,0.02,0.08,0.03,0.11,0.04
						c1.06,0.36,4.54,1.26,6.02-1.91c1.49-3.18-1.28-5.33-2.17-5.91c-0.06-0.04-0.1-0.07-0.14-0.09c-0.58-0.29-1.27-0.16-1.99,0.33
						c-1.69,1.14-2.95,3.73-2.8,5.76C220.42,216.64,220.73,217.26,221.24,217.51z"/>
				</g>
				<g id="XMLID_4700_">
					<path id="XMLID_4773_" class="st0" d="M197.06,228.21L197.06,228.21c0,0,0.05,0.02,0.13,0.05c0.05,0.02,0.1,0.04,0.16,0.06
						c1.07,0.37,4.93,1.38,6.6-2.18c1.66-3.55-1.4-5.91-2.34-6.53c-0.05-0.04-0.11-0.08-0.17-0.11c-0.06-0.04-0.09-0.06-0.09-0.06
						c-0.65-0.32-1.5-0.2-2.42,0.41c-1.82,1.23-3.17,4.01-3.02,6.2C195.97,227.16,196.41,227.9,197.06,228.21L197.06,228.21
						L197.06,228.21z"/>
					<path id="XMLID_4902_" class="st9" d="M198.82,220.38c-0.05-0.04-0.11-0.08-0.17-0.11c-0.06-0.04-0.09-0.06-0.09-0.06
						c-0.07-0.03-0.15-0.04-0.23-0.07c-1.5,1.38-2.54,3.77-2.4,5.7c0.08,1.1,0.52,1.84,1.16,2.16l0,0v0c0,0,0.04,0.02,0.13,0.05
						c0.05,0.02,0.1,0.04,0.16,0.06c0.47,0.16,1.46,0.44,2.57,0.42c0.47-0.39,0.89-0.91,1.22-1.62
						C202.82,223.37,199.76,221,198.82,220.38z"/>
					<path id="XMLID_4774_" class="st2" d="M199.74,229.23c-0.87,0-1.75-0.17-2.55-0.44c-0.04-0.01-0.1-0.04-0.17-0.06l-0.17-0.07
						c-0.84-0.41-1.35-1.32-1.44-2.56c-0.17-2.39,1.25-5.3,3.23-6.64c1.03-0.7,2.07-0.86,2.91-0.45l0.13,0.08
						c0.07,0.04,0.14,0.09,0.21,0.14c1.02,0.67,4.31,3.24,2.49,7.13C203.4,228.47,201.59,229.23,199.74,229.23z M197.26,227.76
						l0.09,0.04c0.05,0.02,0.09,0.03,0.12,0.05c1.05,0.36,4.53,1.26,6.01-1.91c1.48-3.18-1.29-5.33-2.17-5.91
						c-0.07-0.05-0.11-0.07-0.15-0.09c-0.57-0.29-1.26-0.15-1.99,0.34c-1.69,1.14-2.95,3.72-2.8,5.76
						C196.45,226.89,196.76,227.51,197.26,227.76z"/>
				</g>
				<g id="XMLID_4662_">
					<g id="XMLID_4704_">
						<path id="XMLID_4760_" class="st0" d="M214.92,233.28c-5.15,0-9.86-2.57-12.5-4.35c-1.22-0.82-1.43-2.53-0.47-3.64l0-0.01
							c0.81-0.94,2.19-1.14,3.22-0.45c2.99,2.01,9.31,5.36,14.55,2.19c4.71-2.85,4.74-7,4.25-9.42c-0.23-1.14,0.34-2.29,1.4-2.76
							l0,0c1.43-0.64,3.11,0.19,3.41,1.72c0.87,4.33,0.19,10.62-6.51,14.68C219.84,232.71,217.33,233.28,214.92,233.28z"/>
						<path id="XMLID_4900_" class="st6" d="M222.31,231.5c6.02-3.64,7.18-9.09,6.72-13.3c-0.69-0.6-1.71-0.81-2.64-0.4
							c-1.06,0.48-1.63,1.62-1.4,2.76c0.49,2.42,0.47,6.57-4.25,9.42c-5.23,3.16-11.55-0.19-14.55-2.19
							c-1.03-0.69-2.41-0.49-3.22,0.45l0,0.01c-0.25,0.29-0.41,0.61-0.51,0.95c2.64,1.78,7.35,4.35,12.49,4.35
							C217.36,233.54,219.87,232.97,222.31,231.5z"/>
						<path id="XMLID_4761_" class="st2" d="M214.92,233.77c-5.11,0-9.77-2.41-12.77-4.44c-0.69-0.47-1.15-1.21-1.27-2.04
							c-0.11-0.84,0.14-1.69,0.7-2.33c0.98-1.13,2.64-1.37,3.87-0.54c3.12,2.09,9.09,5.16,14.02,2.18c4.29-2.59,4.55-6.27,4.02-8.9
							c-0.28-1.38,0.41-2.74,1.68-3.31c0.83-0.37,1.77-0.35,2.58,0.07c0.79,0.41,1.35,1.14,1.52,2c0.6,2.98,1.15,10.42-6.74,15.19
							C220.22,233.06,217.66,233.77,214.92,233.77z M203.83,224.91c-0.56,0-1.11,0.24-1.5,0.69c-0.37,0.43-0.54,1-0.47,1.56
							c0.08,0.56,0.37,1.04,0.84,1.36c2.37,1.59,7.1,4.27,12.22,4.27c2.55,0,4.94-0.66,7.1-1.97c7.36-4.45,6.85-11.38,6.28-14.16
							c-0.11-0.57-0.48-1.05-1-1.32c-0.54-0.28-1.17-0.3-1.73-0.05c-0.85,0.38-1.31,1.29-1.12,2.22c0.49,2.41,0.56,6.9-4.47,9.94
							c-5.39,3.26-11.76,0.02-15.07-2.21C204.58,225.02,204.2,224.91,203.83,224.91z"/>
					</g>
				</g>
			</g>
			<g id="XMLID_4893_">
				<g id="XMLID_4892_">
					
						<rect id="XMLID_4911_" x="230.82" y="193.27" transform="matrix(0.8639 -0.5037 0.5037 0.8639 -63.7073 151.7104)" class="st8" width="36.07" height="0.91"/>
				</g>
				<g id="XMLID_4897_">
					
						<rect id="XMLID_4910_" x="254.12" y="199.21" transform="matrix(0.8639 -0.5037 0.5037 0.8639 -65.4442 157.1754)" class="st8" width="7.9" height="0.91"/>
				</g>
				<g id="XMLID_4890_">
					
						<rect id="XMLID_4909_" x="233.06" y="207.96" transform="matrix(0.8637 -0.5041 0.5041 0.8637 -71.9203 150.9323)" class="st8" width="19.97" height="0.91"/>
				</g>
			</g>
		</g>
		<g id="XMLID_4989_">
			<path id="XMLID_5002_" class="st2" d="M190.69,221.25c0.31,0.18,0.31,0.48,0,0.66c-0.31,0.18-0.82,0.18-1.14,0
				c-0.31-0.18-0.31-0.48,0-0.66C189.87,221.07,190.38,221.07,190.69,221.25z"/>
			<path id="XMLID_5001_" class="st2" d="M187.71,219.54c0.31,0.18,0.31,0.48,0,0.66c-0.31,0.18-0.82,0.18-1.14,0
				c-0.31-0.18-0.31-0.48,0-0.66C186.89,219.35,187.4,219.35,187.71,219.54z"/>
			<path id="XMLID_5000_" class="st2" d="M190.69,217.82c0.31,0.18,0.31,0.48,0,0.66c-0.31,0.18-0.82,0.18-1.14,0
				c-0.31-0.18-0.31-0.48,0-0.66C189.87,217.63,190.38,217.63,190.69,217.82z"/>
			<path id="XMLID_4999_" class="st2" d="M193.67,216.1c0.31,0.18,0.31,0.48,0,0.66c-0.31,0.18-0.82,0.18-1.14,0
				c-0.31-0.18-0.31-0.48,0-0.66C192.84,215.92,193.35,215.92,193.67,216.1z"/>
			<path id="XMLID_4998_" class="st2" d="M196.65,214.38c0.31,0.18,0.31,0.48,0,0.66c-0.31,0.18-0.82,0.18-1.14,0
				c-0.31-0.18-0.31-0.48,0-0.66C195.82,214.2,196.33,214.2,196.65,214.38z"/>
			<path id="XMLID_4997_" class="st2" d="M184.73,217.82c0.31,0.18,0.31,0.48,0,0.66c-0.31,0.18-0.82,0.18-1.14,0
				c-0.31-0.18-0.31-0.48,0-0.66C183.91,217.63,184.42,217.63,184.73,217.82z"/>
			<path id="XMLID_4996_" class="st2" d="M187.71,216.1c0.31,0.18,0.31,0.48,0,0.66c-0.31,0.18-0.82,0.18-1.14,0
				c-0.31-0.18-0.31-0.48,0-0.66C186.89,215.92,187.4,215.92,187.71,216.1z"/>
			<path id="XMLID_4995_" class="st2" d="M190.69,214.38c0.31,0.18,0.31,0.48,0,0.66c-0.31,0.18-0.82,0.18-1.14,0
				c-0.31-0.18-0.31-0.48,0-0.66C189.87,214.2,190.38,214.2,190.69,214.38z"/>
			<path id="XMLID_4994_" class="st2" d="M193.67,212.66c0.31,0.18,0.31,0.48,0,0.66c-0.31,0.18-0.82,0.18-1.14,0
				c-0.31-0.18-0.31-0.48,0-0.66C192.84,212.48,193.35,212.48,193.67,212.66z"/>
			<path id="XMLID_4993_" class="st2" d="M181.76,216.1c0.31,0.18,0.31,0.48,0,0.66c-0.31,0.18-0.82,0.18-1.14,0
				c-0.31-0.18-0.31-0.48,0-0.66C180.93,215.92,181.44,215.92,181.76,216.1z"/>
			<path id="XMLID_4992_" class="st2" d="M184.73,214.38c0.31,0.18,0.31,0.48,0,0.66c-0.31,0.18-0.82,0.18-1.14,0
				c-0.31-0.18-0.31-0.48,0-0.66C183.91,214.2,184.42,214.2,184.73,214.38z"/>
			<path id="XMLID_4991_" class="st2" d="M187.71,212.66c0.31,0.18,0.31,0.48,0,0.66c-0.31,0.18-0.82,0.18-1.14,0
				c-0.31-0.18-0.31-0.48,0-0.66C186.89,212.48,187.4,212.48,187.71,212.66z"/>
			<path id="XMLID_4990_" class="st2" d="M190.69,210.94c0.31,0.18,0.31,0.48,0,0.66c-0.31,0.18-0.82,0.18-1.14,0
				c-0.31-0.18-0.31-0.48,0-0.66C189.87,210.76,190.38,210.76,190.69,210.94z"/>
		</g>
		<g id="XMLID_5125_">
			<path id="XMLID_5132_" class="st2" d="M217.96,206.95c0.31,0.18,0.31,0.48,0,0.66c-0.31,0.18-0.82,0.18-1.14,0
				c-0.31-0.18-0.31-0.48,0-0.66C217.14,206.76,217.65,206.76,217.96,206.95z"/>
			<path id="XMLID_5131_" class="st2" d="M220.94,205.23c0.31,0.18,0.31,0.48,0,0.66c-0.31,0.18-0.82,0.18-1.14,0
				c-0.31-0.18-0.31-0.48,0-0.66C220.12,205.05,220.63,205.05,220.94,205.23z"/>
			<path id="XMLID_5130_" class="st2" d="M223.92,203.51c0.31,0.18,0.31,0.48,0,0.66c-0.31,0.18-0.82,0.18-1.14,0
				c-0.31-0.18-0.31-0.48,0-0.66C223.1,203.33,223.61,203.33,223.92,203.51z"/>
		</g>
	</g>
</g>
</svg>
